<?xml version="1.0" encoding="utf-8"?>
<!-- Generator: Adobe Illustrator 24.3.0, SVG Export Plug-In . SVG Version: 6.00 Build 0)  -->
<svg version="1.1" id="Layer_1" xmlns="http://www.w3.org/2000/svg" xmlns:xlink="http://www.w3.org/1999/xlink" x="0px" y="0px"
	 viewBox="0 0 56.646347 18.8999996" style="enable-background:new 0 0 56.646347 18.8999996;" xml:space="preserve">
<style type="text/css">
	.st0{fill:#FFFFFF;}
</style>
<g>
	<g>
		<path class="st0" d="M9.0261326,3.3458059c0,0.5759718-0.1880817,1.0784562-0.6548557,1.3449509
			C8.1453648,4.8197355,7.7973652,4.6143775,7.4785023,4.6143775c-0.3643112,0-0.7360783,0.1852422-0.9803066,0.0240674
			C6.0786953,4.3616014,5.930872,3.8860278,5.930872,3.3458059c0-0.8547325,0.8514919-2.1146884,1.5476303-2.1146884
			C8.1746387,1.2311175,9.0261326,2.4910734,9.0261326,3.3458059z"/>
		<path class="st0" d="M2.9155006,7.7973132C2.1574326,9.3140917,1.2386284,9.3065777,1.2386284,9.3065777
			s-0.3754863-1.400322,0.1743698-2.2954292c0.7721748-1.2570195,3.2823029-1.739222,3.2823029-1.739222
			S3.6217203,6.384275,2.9155006,7.7973132z"/>
		<path class="st0" d="M12.0190353,7.7973132c0.7580681,1.5167785,1.6768723,1.5092645,1.6768723,1.5092645
			s0.3754864-1.400322-0.1743698-2.2954292c-0.7721748-1.2570195-3.2823029-1.739222-3.2823029-1.739222
			S11.3128147,6.384275,12.0190353,7.7973132z"/>
		<path class="st0" d="M5.4623718,15.036335c0.0963631,0.5485315,0.1390896,1.8325386,0.1390896,1.8325386
			s-1.4012442-1.1571417-1.5893288-1.884306c-0.1469975-0.5683136,0.0886202-1.0391197,0.5902691-1.0311575
			C5.0606651,13.9606838,5.3588562,14.4470968,5.4623718,15.036335z"/>
		<path class="st0" d="M9.4121952,15.036335c-0.0963631,0.5485315-0.1390915,1.8325386-0.1390915,1.8325386
			s1.4012451-1.1571417,1.5893307-1.884306c0.1469955-0.5683136-0.0886211-1.0391197-0.5902691-1.0311575
			C9.8139019,13.9606838,9.5157108,14.4470968,9.4121952,15.036335z"/>
		<path class="st0" d="M7.4372044,5.0245633c-2.3835011,0-4.3156977,1.9322071-4.3156977,4.3157086
			c0,1.6478472,1.1826887,3.2097921,2.1917295,4.5333176c1.1407166,1.4962416,2.1239681,3.0969172,2.1239681,3.0969172
			s0.9464436-1.535244,2.0539398-2.9508228c1.0487614-1.3405228,2.2617607-2.957654,2.2617607-4.6794119
			C11.7529049,6.9567704,9.8207073,5.0245633,7.4372044,5.0245633z M8.5648251,11.1163816l-1.0714645-0.5633059
			l-1.0714626,0.5633059l0.2046375-1.1930895l-0.866827-0.8449392l1.1979218-0.1740751l0.5357304-1.0855122l0.5357323,1.0855122
			l1.1979218,0.1740751l-0.866827,0.8449392L8.5648251,11.1163816z"/>
	</g>
	<g>
		<path class="st0" d="M20.1580925,9.0831041h0.3240509v3.3048534h-0.3240509v-0.5912857
			c-0.3321228,0.5102539-0.8585987,0.6803904-1.287899,0.6803904c-0.8666706,0-1.6118717-0.6560965-1.6118717-1.7414923
			c0-1.0206633,0.6479454-1.7253485,1.6118717-1.7253485c0.518404,0,0.9719982,0.2025032,1.287899,0.6480246V9.0831041z
			 M17.5985165,10.7112761c0,0.7452002,0.4616661,1.4579573,1.2959709,1.4579573
			c0.8262329,0,1.2798271-0.6966124,1.2798271-1.4579573c0-0.9801474-0.7209072-1.3932257-1.287899-1.3932257
			C18.2303181,9.3180504,17.5985165,9.8121605,17.5985165,10.7112761z"/>
		<path class="st0" d="M21.826704,12.0801287h2.656826v0.3078289h-3.3534393l2.7054176-2.9970245h-2.2841911V9.0831041h2.9484367
			L21.826704,12.0801287z"/>
		<path class="st0" d="M25.4718304,9.0831041v1.9926605c0,0.234869,0.0081482,0.5832148,0.2106514,0.8261557
			c0.2025032,0.2430191,0.502182,0.267313,0.6560974,0.267313c0.1539116,0,0.4535942-0.0242939,0.6560936-0.267313
			c0.2025032-0.2429409,0.2105751-0.5912867,0.2105751-0.8261557V9.0831041h0.3240509v2.0817652
			c0,0.267313-0.0243721,0.6155806-0.2511673,0.9071875c-0.251091,0.3239737-0.6479454,0.4050055-0.9395523,0.4050055
			s-0.6885414-0.0810318-0.9396324-0.4050055c-0.2267952-0.2916069-0.251091-0.6398745-0.251091-0.9071875V9.0831041H25.4718304z"/>
		<path class="st0" d="M29.0196247,6.4830127v5.9049449h-0.3239746V6.4830127H29.0196247z"/>
		<path class="st0" d="M32.4215012,9.390933v2.9970245h-0.3239746V9.390933h-0.3644886V9.0831041h0.3644886V7.9005318h0.3239746
			v1.1825724h0.5751419V9.390933H32.4215012z"/>
		<path class="st0" d="M36.9006996,10.7436419c0,0.9801474-0.753273,1.7334204-1.7334213,1.7334204
			c-0.9800682,0-1.7333412-0.753273-1.7333412-1.7334204c0-0.9800692,0.753273-1.7334204,1.7333412-1.7334204
			C36.1474266,9.0102215,36.9006996,9.7635727,36.9006996,10.7436419z M36.5605049,10.7436419
			c0-0.801939-0.5993576-1.4255915-1.3932266-1.4255915c-0.7937889,0-1.3931465,0.6236525-1.3931465,1.4255915
			s0.5993576,1.4255915,1.3931465,1.4255915C35.9611473,12.1692333,36.5605049,11.5455809,36.5605049,10.7436419z"/>
		<path class="st0" d="M37.8565521,9.0831041h0.3239746v0.4292994c0.1215477-0.2834568,0.3726387-0.502182,0.7290573-0.502182
			c0.0891037,0,0.2267952,0.016222,0.3482666,0.0810328l-0.1619873,0.2916069
			c-0.032444-0.0242939-0.0971756-0.0648108-0.2430191-0.0648108c-0.6641693,0-0.6723175,0.8828936-0.6723175,1.2959709v1.7739363
			h-0.3239746V9.0831041z"/>
		<path class="st0" d="M40.3108025,9.390933v2.9970245h-0.3239746V9.390933h-0.3644867V9.0831041h0.3644867V7.9005318h0.3239746
			v1.1825724h0.5751419V9.390933H40.3108025z"/>
		<path class="st0" d="M41.8578644,9.0831041v1.9926605c0,0.234869,0.0081482,0.5832148,0.2106514,0.8261557
			c0.2025032,0.2430191,0.502182,0.267313,0.6560974,0.267313s0.4535942-0.0242939,0.6560974-0.267313
			c0.2025032-0.2429409,0.2105751-0.5912867,0.2105751-0.8261557V9.0831041h0.3240509v2.0817652
			c0,0.267313-0.0243721,0.6155806-0.2511711,0.9071875c-0.251091,0.3239737-0.6479454,0.4050055-0.9395523,0.4050055
			s-0.6885414-0.0810318-0.9396324-0.4050055c-0.2267952-0.2916069-0.251091-0.6398745-0.251091-0.9071875V9.0831041H41.8578644z"/>
		<path class="st0" d="M48.1273003,9.0831041v3.2076769c0,1.2473831-0.6237297,1.9602175-1.6605377,1.9602175
			c-0.8586006,0-1.5795059-0.5022593-1.6200218-1.4175186h0.340271c0.0566597,0.6884623,0.5750656,1.1096897,1.2797508,1.1096897
			c1.3041191,0,1.3365631-1.3121929,1.3365631-1.6523886v-0.4698153c-0.3321228,0.4616661-0.8343048,0.6560965-1.3041191,0.6560965
			c-0.8100128,0-1.6280937-0.5912867-1.6280937-1.7414923c0-0.9558535,0.6318016-1.7253485,1.6686096-1.7253485
			c0.5426979,0,0.9800682,0.2430191,1.2636032,0.6480246V9.0831041H48.1273003z M45.2113075,10.7517138
			c0,0.7938671,0.502182,1.4175196,1.279747,1.4175196c0.818161,0,1.3284149-0.6398745,1.3284149-1.4498854
			c0-0.769495-0.502182-1.4012976-1.312191-1.4012976C45.6891937,9.3180504,45.2113075,9.9903688,45.2113075,10.7517138z"/>
		<path class="st0" d="M51.9828453,9.0831041h0.3240509v3.3048534h-0.3240509v-0.5912857
			c-0.3321228,0.5102539-0.8586006,0.6803904-1.287899,0.6803904c-0.8666725,0-1.6118698-0.6560965-1.6118698-1.7414923
			c0-1.0206633,0.6479454-1.7253485,1.6118698-1.7253485c0.5184059,0,0.9720001,0.2025032,1.287899,0.6480246V9.0831041z
			 M49.4232712,10.7112761c0,0.7452002,0.4616661,1.4579573,1.2959709,1.4579573
			c0.8262329,0,1.2798271-0.6966124,1.2798271-1.4579573c0-0.9801474-0.7209091-1.3932257-1.287899-1.3932257
			C50.0550728,9.3180504,49.4232712,9.8121605,49.4232712,10.7112761z"/>
	</g>
	<g>
		<path class="st0" d="M48.7590256,13.8906231v-1.0855513h0.1630707c0.0726509,0,0.1305542,0.0056658,0.1737061,0.0169201
			c0.0435448,0.0111771,0.0803337,0.0301933,0.1103745,0.0568933c0.030426,0.027709,0.0545616,0.0620937,0.0724144,0.1033859
			c0.0182419,0.0416803,0.027401,0.0839043,0.027401,0.1265154c0,0.0778503-0.0297279,0.1436691-0.0892601,0.1976128
			c0.0575905,0.0196371,0.1030731,0.0540991,0.1363716,0.1033087c0.0337639,0.0487432,0.0506058,0.1054811,0.0506058,0.1701365
			c0,0.0848351-0.0299606,0.1565533-0.0899582,0.2151546c-0.0360909,0.0360918-0.076683,0.061162-0.121624,0.0752106
			c-0.0492096,0.0136604-0.1109161,0.0204134-0.1849632,0.0204134H48.7590256z M48.9227943,13.2712393h0.051384
			c0.0609283,0,0.1055603-0.013505,0.1338882-0.0404387c0.0283318-0.0269327,0.0425339-0.0666723,0.0425339-0.1192198
			c0-0.0510721-0.0145149-0.0898027-0.043541-0.1163473c-0.0291061-0.0264673-0.0712547-0.0396624-0.1265945-0.0396624h-0.0576706
			V13.2712393z M48.9227943,13.7366304h0.1012917c0.0740471,0,0.1283798-0.014514,0.1630745-0.0435429
			c0.0365562-0.031435,0.0548744-0.0712519,0.0548744-0.1195297c0-0.0468807-0.0176201-0.0862331-0.0527802-0.1181335
			c-0.034153-0.031435-0.0953903-0.0471134-0.1834869-0.0471134h-0.0829735V13.7366304z"/>
		<path class="st0" d="M49.7959862,13.7633314l-0.3079071-0.5575228h0.1834869l0.2094879,0.3937502l0.1954422-0.3937502h0.1785965
			l-0.5455704,1.0574532h-0.1806946L49.7959862,13.7633314z"/>
		<path class="st0" d="M50.8372955,13.8906231v-1.0855513h0.2278061c0.1092072,0,0.1954422,0.0107889,0.2586975,0.0323658
			c0.0679932,0.0211124,0.1296196,0.0569715,0.1848831,0.1075773c0.1120796,0.1021442,0.1680412,0.2364216,0.1680412,0.402832
			c0,0.1668768-0.0583687,0.3018532-0.1750259,0.4050055c-0.0586014,0.0515375-0.1199951,0.0873966-0.184185,0.1075001
			c-0.0600739,0.0201797-0.1451416,0.0302706-0.2552834,0.0302706H50.8372955z M51.0010681,13.7366304h0.0738144
			c0.0735817,0,0.134819-0.0076838,0.1835632-0.0232067c0.0487442-0.0163774,0.0927544-0.0423794,0.1321831-0.0780058
			c0.0805664-0.0735807,0.1209259-0.1694374,0.1209259-0.287571c0-0.1190643-0.0398941-0.21562-0.1195297-0.2896662
			c-0.0717163-0.0660524-0.177433-0.0991173-0.3171425-0.0991173h-0.0738144V13.7366304z"/>
		<path class="st0" d="M52.0107117,13.2058086v0.3930521c0,0.1133986,0.0447845,0.1701365,0.1342773,0.1701365
			c0.0895691,0,0.1343536-0.0567379,0.1343536-0.1701365v-0.3930521h0.1581841v0.3965445
			c0,0.0548754-0.0068321,0.1022215-0.0204124,0.1420393c-0.0131187,0.0356264-0.035862,0.0677595-0.0682259,0.096323
			c-0.0534019,0.0464144-0.1213951,0.069622-0.2038994,0.069622c-0.0819664,0-0.1497231-0.0232077-0.203125-0.069622
			c-0.0328331-0.0285635-0.0560379-0.0606966-0.069622-0.096323c-0.0131187-0.0319004-0.0197144-0.0792465-0.0197144-0.1420393
			v-0.3965445H52.0107117z M51.898243,12.9878597c0-0.0271664,0.0098572-0.0503731,0.0294952-0.069622
			c0.0197144-0.0196371,0.0433884-0.0294952,0.0710182-0.0294952c0.02771,0,0.051384,0.0098581,0.071022,0.0294952
			c0.0197144,0.019249,0.0295715,0.0426893,0.0295715,0.0703201c0,0.0281754-0.0098572,0.0520811-0.0295715,0.0717182
			c-0.020649,0.019249-0.0442429,0.0288734-0.071022,0.0288734c-0.0280952,0-0.052002-0.0098572-0.0717163-0.0295715
			C51.9078674,13.0390091,51.898243,13.0151033,51.898243,12.9878597z M52.1921005,12.9878597
			c0-0.0271664,0.0098572-0.0503731,0.0295715-0.069622c0.0201035-0.0196371,0.0437775-0.0294952,0.071022-0.0294952
			c0.0280952,0,0.0517693,0.0098581,0.0710182,0.0294952c0.0196381,0.019249,0.0294952,0.0426893,0.0294952,0.0703201
			c0,0.0281754-0.0098572,0.0520811-0.0294952,0.0717182c-0.0206451,0.019249-0.0443192,0.0288734-0.0710182,0.0288734
			c-0.02771,0-0.051384-0.0098572-0.071022-0.0295715C52.2019577,13.0399408,52.1921005,13.0160351,52.1921005,12.9878597z"/>
		<path class="st0" d="M52.6371536,13.2058086h0.1581879v0.061162c0.0291061-0.030426,0.0548706-0.0513048,0.0773849-0.0625591
			c0.0229721-0.0117207,0.0501404-0.0175419,0.0815735-0.0175419c0.0416794,0,0.0853043,0.0135832,0.1307068,0.0407486
			l-0.0724182,0.1448336c-0.0299606-0.0215778-0.0592957-0.0323658-0.0878601-0.0323658
			c-0.086235,0-0.1293869,0.0651979-0.1293869,0.1955166v0.3550205h-0.1581879V13.2058086z"/>
		<path class="st0" d="M53.6706238,13.2058086h0.1588821v0.6848145h-0.1588821v-0.0717182
			c-0.0651169,0.0609293-0.1352081,0.0914326-0.2101822,0.0914326c-0.094696,0-0.1730118-0.0342293-0.2348709-0.1026869
			c-0.0613937-0.0698557-0.0920563-0.1570196-0.0920563-0.26157c0-0.1026096,0.0306625-0.1881428,0.0920563-0.2566013
			c0.0613937-0.0683804,0.1383133-0.1026096,0.2305984-0.1026096c0.0797119,0,0.1511993,0.0327539,0.2144547,0.0984182V13.2058086z
			 M53.2951965,13.5460806c0,0.0656643,0.01754,0.1190653,0.0526962,0.1603575
			c0.0360947,0.0416803,0.0815811,0.0625591,0.1364517,0.0625591c0.0585251,0,0.1058731-0.0201807,0.1419601-0.0604639
			c0.0360947-0.0416803,0.0541763-0.0946922,0.0541763-0.1588821c0-0.0642662-0.0180817-0.1172018-0.0541763-0.1588821
			c-0.036087-0.0408258-0.0828934-0.061162-0.140564-0.061162c-0.0544052,0-0.0998917,0.0205688-0.1364441,0.061861
			C53.3132019,13.4331484,53.2951965,13.4846859,53.2951965,13.5460806z"/>
		<path class="st0" d="M54.1923676,13.3535137v0.5371094h-0.1581802v-0.5371094h-0.0675278v-0.1477051h0.0675278v-0.2509365
			h0.1581802v0.2509365h0.123024v0.1477051H54.1923676z"/>
		<path class="st0" d="M54.4004593,13.5432873c0-0.0988846,0.0353165-0.1830215,0.106102-0.2524109
			c0.0707855-0.0693121,0.1570206-0.1040068,0.2587738-0.1040068c0.1021423,0,0.1888428,0.0349274,0.2600937,0.1047049
			c0.0703278,0.0698557,0.105484,0.1556225,0.105484,0.2573786c0,0.1026096-0.0353928,0.1886091-0.1061783,0.2579985
			c-0.0712509,0.068924-0.1586533,0.1033859-0.2621918,0.1033859c-0.102684,0-0.1886902-0.0351601-0.2580795-0.1054811
			C54.4350739,13.735467,54.4004593,13.648303,54.4004593,13.5432873z M54.5621338,13.5460806
			c0,0.0684586,0.0182419,0.1226349,0.0548782,0.1624527c0.0374908,0.0402832,0.0869293,0.0604639,0.1483231,0.0604639
			c0.0618591,0,0.1113052-0.019948,0.1483307-0.0597649c0.0370178-0.0398178,0.0555725-0.0930634,0.0555725-0.1595812
			c0-0.0665951-0.0185547-0.1197624-0.0555725-0.1595802c-0.0374908-0.0403605-0.086937-0.0604639-0.1483307-0.0604639
			c-0.060463,0-0.109436,0.0201035-0.1469269,0.0604639C54.5808411,13.4303541,54.5621338,13.482358,54.5621338,13.5460806z"/>
		<path class="st0" d="M55.6923141,13.1599369c0,0.0656633-0.0229721,0.1215477-0.06884,0.1676521
			c-0.0458755,0.0461044-0.1013718,0.0690794-0.1664886,0.0690794c-0.0651245,0-0.1207733-0.0231304-0.167038-0.0693893
			c-0.0459442-0.0460272-0.06884-0.102067-0.06884-0.167963c0-0.0364809,0.0074463-0.0697002,0.0223541-0.0996609
			c0.0150528-0.0319777,0.036087-0.0590668,0.0629425-0.0811872c0.0439301-0.0363245,0.0932159-0.054409,0.1479416-0.054409
			c0.0362473,0,0.0690765,0.0068302,0.0984955,0.0205679c0.0417557,0.01824,0.0754395,0.0471916,0.1008987,0.0867758
			C55.6794357,13.0712204,55.6923141,13.1140652,55.6923141,13.1599369z M55.4552002,12.9584427
			c-0.0537109,0-0.0998154,0.0197926-0.138237,0.0594549c-0.0386581,0.0397396-0.0579071,0.0870085-0.0579071,0.1417284
			c0,0.0558844,0.019249,0.1037741,0.0579071,0.1435137c0.0384216,0.0396624,0.085144,0.0594549,0.1400223,0.0594549
			c0.0543289,0,0.1007462-0.0197144,0.1393967-0.059144c0.0384216-0.0395851,0.0576706-0.0874748,0.0576706-0.1435137
			c0-0.0300379-0.0075302-0.0610075-0.0226669-0.0929852c-0.0149002-0.0299606-0.0346909-0.0537891-0.0593719-0.0714083
			C55.5373154,12.9707842,55.4983521,12.9584427,55.4552002,12.9584427z M55.4799576,13.1829109l0.0884857,0.1137867h-0.0634918
			l-0.0808792-0.1079655v0.1079655H55.371994v-0.2723579h0.0544052c0.0380325,0,0.0657425,0.006753,0.0832062,0.0202579
			c0.0194092,0.0157566,0.0291061,0.0362473,0.0291061,0.0614729c0,0.0170755-0.0051956,0.0329094-0.0155258,0.0474234
			c-0.0103989,0.0140495-0.0236664,0.0235186-0.0397339,0.0281754L55.4799576,13.1829109z M55.4237595,13.1451893h0.0087738
			c0.0372543,0,0.0558853-0.0128069,0.0558853-0.0384979c0-0.0239058-0.0180054-0.0358591-0.0541-0.0358591h-0.0105591V13.1451893z"
			/>
	</g>
</g>
</svg>
