<?xml version="1.0" encoding="utf-8"?>
<!-- Generator: Adobe Illustrator 24.3.0, SVG Export Plug-In . SVG Version: 6.00 Build 0)  -->
<svg version="1.1" id="Layer_1" xmlns="http://www.w3.org/2000/svg" xmlns:xlink="http://www.w3.org/1999/xlink" x="0px" y="0px"
	 viewBox="0 0 74.1047516 18.8999996" style="enable-background:new 0 0 74.1047516 18.8999996;" xml:space="preserve">
<style type="text/css">
	.st0{fill:#FFFFFF;}
</style>
<g>
	<g>
		<g>
			<path class="st0" d="M9.6589966,3.6731422H8.2816153c-0.5234451,0-0.7415075,0.1650989-1.1261759,0.8328197
				c-0.213068,0.3698668-2.0609965,3.5516706-3.6676247,6.2703366V4.5007496c0-0.5142841-0.3198338-0.8276074-0.8350785-0.8276074
				H1.8913c-0.5152447,0-0.8348467,0.3133233-0.8348467,0.8276074v10.3357401c0,0.5156717,0.3196914,0.8131571,0.8339756,0.8131571
				h0.9644279c0.3380766,0,0.5861888-0.1499014,1.003643-0.8561726C4.2759542,14.0872211,9.7056541,5.0074015,9.999754,4.5059624
				C10.2938547,4.00454,10.1742411,3.6731422,9.6589966,3.6731422z"/>
			<path class="st0" d="M30.45467,3.6731422h-1.3773823c-0.5234451,0-0.7413254,0.1650989-1.1259937,0.8328197
				c-0.2130661,0.3698668-2.0609951,3.5516706-3.6676235,6.2703366V4.5007496c0-0.5142841-0.3191452-0.8276074-0.8343906-0.8276074
				h-0.7623062c-0.5152454,0-0.8346653,0.3133233-0.8346653,0.8276074v10.3357401
				c0,0.5156717,0.3195095,0.8131571,0.8337936,0.8131571h0.9652996c0.3380756,0,0.5854988-0.1499014,1.0029545-0.8561726
				c0.4174538-0.7062531,5.8471527-9.7860727,6.1412544-10.2875118C31.0897083,4.00454,30.9699154,3.6731422,30.45467,3.6731422z"/>
			<path class="st0" d="M41.8057899,9.4244022c-0.1201324-3.1173701-2.6524506-5.6452408-5.7652321-5.7591486
				c-0.081337-0.0041451-0.1610336-0.0061197-0.2380791-0.0061197c-0.0817451,0-0.1637726,0.0019925-0.2455177,0.0059774
				c-3.1015205,0.1322312-5.6233749,2.6601374-5.7429943,5.7550917C29.8095551,9.503727,29.807724,9.5809164,29.807724,9.6600809
				s0.0018311,0.1564789,0.0060482,0.2356253c0.0018501,0.047143,0.005373,0.0883436,0.0089302,0.1308966l0.000267,0.0031672
				l0.0010319,0.0132885c0.1847458,2.99825,2.5870895,5.406538,5.5880814,5.6018696l0.0026855,0.0001774l0.0139809,0.001174
				c0.0423775,0.00354,0.0832558,0.0070448,0.1261139,0.0088243c0.0838432,0.0040731,0.1658516,0.0060663,0.2476158,0.0060663
				c0.0770454,0,0.1567421-0.0019751,0.2337914-0.0059423c3.1170692-0.1142282,5.6493874-2.6421518,5.7693253-5.7552347
				c0.0044098-0.083416,0.0062447-0.1607475,0.0062447-0.239912S41.8100052,9.5037088,41.8057899,9.4244022z M39.4179764,10.3733788
				c-0.2848663,1.4532452-1.4548988,2.6168194-2.911274,2.8944111c-0.226284,0.0439577-0.459404,0.0663557-0.6918793,0.0663557
				c-0.2242203,0-0.4417381-0.0194263-0.646534-0.0577459c-1.5416069-0.2707596-2.7392311-1.4909773-2.9815598-3.0380983
				c-0.0064049-0.0278234-0.008667-0.0524263-0.009449-0.0714436c-0.0244598-0.1586494-0.0363808-0.3232937-0.0363808-0.5025606
				c0-0.1764746,0.012455-0.3480749,0.0369873-0.5099974c0.2343597-1.7134552,1.6660461-3.0393968,3.4036064-3.1486082
				c0.078434-0.0047498,0.1558914-0.0070448,0.2333298-0.0070448c0.0935402,0,0.1760101,0.0030956,0.2521706,0.009429
				c0.0410576,0.0021701,0.0836983,0.004643,0.1266441,0.0091615c1.5984268,0.1629362,2.9257736,1.3781366,3.2270432,2.9550557
				c0.044014,0.2284565,0.0663757,0.4614134,0.0663757,0.6920042C39.4870567,9.9051523,39.4638214,10.143713,39.4179764,10.3733788z
				"/>
			<path class="st0" d="M20.0785732,3.6731422l-6.15767-0.0000584c-0.5152445,0-0.8347311,0.3194864-0.8347311,0.8337703v10.3068323
				c0,0.5156717,0.3194866,0.8360109,0.8337708,0.8360109h6.158493c0.5156708,0,0.83601-0.3203392,0.83601-0.8360109v-0.6378517
				c0-0.5143023-0.3203392-0.8337879-0.83601-0.8337879h-4.5543385v-2.5714912l4.5527344,0.0003233
				c0.5170422,0,0.8376141-0.3414068,0.8376141-0.85569V9.275095c0-0.5143013-0.3203392-0.8337879-0.83601-0.8337879
				L15.5238953,8.441267l0.0002022-2.4605317h4.5543385c0.5156708,0,0.83601-0.3203402,0.83601-0.8360119V4.4888864
				C20.9144459,3.9732504,20.5941925,3.673178,20.0785732,3.6731422z"/>
			<g>
				<path class="st0" d="M43.2857552,5.3056703c-0.2504807,0.2422252-0.5507736,0.363338-0.9014435,0.363338
					c-0.3620567,0-0.6671867-0.1239591-0.9151039-0.3720193c-0.2482033-0.2480602-0.3720207-0.5531902-0.3720207-0.9153895
					c0-0.3761468,0.1337776-0.6888194,0.4016228-0.9380183c0.2516174-0.2328322,0.5467834-0.3492484,0.8855019-0.3492484
					c0.3552246,0,0.6586456,0.1256669,0.9102669,0.377285c0.2513313,0.251476,0.37714,0.5548983,0.37714,0.9099817
					C43.6717186,4.7473564,43.5430641,5.0553327,43.2857552,5.3056703z M41.6280327,3.6357105
					c-0.204937,0.2096345-0.3074074,0.4582641-0.3074074,0.7458889c0,0.2981563,0.1041794,0.5514822,0.3128166,0.7598357
					c0.2072144,0.2084961,0.4574089,0.3126726,0.7508698,0.3126726c0.2923203,0,0.5422325-0.1047459,0.7494469-0.3143802
					c0.2072144-0.210773,0.3108215-0.4633875,0.3108215-0.7581282c0-0.2864861-0.1030388-0.5349736-0.3091125-0.7458889
					c-0.2083549-0.2141886-0.4588356-0.3213542-0.7511559-0.3213542
					C42.0885735,3.3143563,41.8363876,3.4215219,41.6280327,3.6357105z M41.8201637,5.0978861V3.6707208
					c0.0885201,0,0.2211609,0.0002844,0.3973503,0.0008538c0.1764755,0.0005693,0.2746735,0.0014231,0.2943153,0.0027041
					c0.112999,0.008112,0.2069283,0.0325909,0.2812195,0.0732937c0.1269493,0.0698781,0.1904221,0.1834481,0.1904221,0.3405671
					c0,0.1199741-0.0333023,0.206646-0.1004791,0.2598729c-0.0668869,0.053369-0.149147,0.0852485-0.2470627,0.0956373
					c0.0896606,0.018786,0.1571198,0.0462537,0.2026596,0.0825448c0.0839691,0.0678854,0.1258125,0.1744819,0.1258125,0.3200731
					v0.1275167c0,0.0139475,0.0008507,0.0278945,0.0028458,0.0419841c0.0017052,0.013947,0.0051231,0.027894,0.0102463,0.0418415
					l0.013092,0.0402761h-0.3563652c-0.0116692-0.0455418-0.0196381-0.1112928-0.0236244-0.1973953
					c-0.0039825-0.0862446-0.0119553-0.1444526-0.0236244-0.1747665c-0.0185013-0.0499535-0.0535126-0.0849638-0.104744-0.1047459
					c-0.0278969-0.0116701-0.070591-0.0192132-0.1275177-0.0227709l-0.081974-0.0052657h-0.078846v0.5049443H41.8201637z
					 M42.5015831,3.9519413c-0.0515213-0.0197823-0.1235352-0.0297446-0.21661-0.0297446h-0.0910835v0.4140031h0.1451645
					c0.0873833,0,0.1554108-0.0175052,0.2043686-0.0523729s0.0734367-0.0913682,0.0734367-0.1695008
					C42.6168594,4.0363359,42.578434,3.982255,42.5015831,3.9519413z"/>
			</g>
			<g>
				<path class="st0" d="M31.5762882,17.8509102h-0.6421394v-1.4970436h0.5240135
					c0.2698364,0,0.4491577,0.1679363,0.4491577,0.3992023c0,0.1157036-0.0429802,0.2109146-0.1246719,0.2812195
					c0.1744843,0.0567856,0.278944,0.1973953,0.278944,0.3811283
					C32.0615921,17.6671772,31.8688946,17.8509102,31.5762882,17.8509102z M31.1701107,16.5647812v0.4037571h0.2655678
					c0.1471558,0,0.2311249-0.0794144,0.2311249-0.2040844c0-0.1248131-0.0839691-0.1996727-0.2311249-0.1996727H31.1701107z
					 M31.5557957,17.1750412h-0.385685v0.4649544h0.385685c0.165657,0,0.2630043-0.088522,0.2630043-0.2314091
					C31.8188,17.2656975,31.7214527,17.1750412,31.5557957,17.1750412z"/>
				<path class="st0" d="M33.3045959,16.7372723l-0.5419464,1.2405853
					c-0.0930748,0.2110577-0.2177467,0.3062687-0.4081688,0.3062687c-0.0614815,0-0.1226768-0.0068321-0.183876-0.0226288
					v-0.2019501c0.0703049,0.0068321,0.1132851,0.0091095,0.1315041,0.0091095c0.1112938,0,0.188427-0.0385685,0.242794-0.1633816
					l0.0452576-0.1043186l-0.444603-1.0636845h0.2564583l0.3196449,0.8096466l0.3290405-0.8096466H33.3045959z"/>
				<path class="st0" d="M34.126339,16.3538666h0.4696503c0.4898605,0,0.8143463,0.3039913,0.8143463,0.746315
					c0,0.4354935-0.3267632,0.7507286-0.8143463,0.7507286H34.126339V16.3538666z M34.5937119,17.6354408
					c0.3469734,0,0.5692749-0.2223015,0.5692749-0.5352592c0-0.3176537-0.2200241-0.5285683-0.5692749-0.5285683h-0.2268524
					v1.0638275H34.5937119z"/>
				<path class="st0" d="M35.6462975,16.7372723h0.2359619v0.6644821c0,0.1542721,0.1064568,0.2540379,0.2516212,0.2540379
					c0.1383324,0,0.2450714-0.0997658,0.2450714-0.2540379v-0.6644821h0.2379532v0.6464081
					c0,0.2994366-0.2109146,0.492136-0.4830246,0.492136c-0.2789459,0-0.4875832-0.1926994-0.4875832-0.492136V16.7372723z
					 M35.8777046,16.172411c0.083683,0,0.1519966,0.065752,0.1519966,0.1497192
					c0,0.0794125-0.0683136,0.1474419-0.1519966,0.1474419c-0.0839653,0-0.1565475-0.0680294-0.1565475-0.1474419
					C35.7211571,16.2404385,35.7937393,16.172411,35.8777046,16.172411z M36.3880577,16.172411
					c0.0814056,0,0.1517105,0.0680275,0.1517105,0.1497192c0,0.0794125-0.0703049,0.1474419-0.1517105,0.1474419
					c-0.0839653,0-0.1565475-0.0680294-0.1565475-0.1474419C36.2315102,16.2404385,36.3040924,16.172411,36.3880577,16.172411z"/>
				<path class="st0" d="M37.5655975,16.9481869h-0.0725822c-0.188427,0-0.3267632,0.1111507-0.3267632,0.308403v0.5943203
					H36.928299v-1.1136379h0.2223015v0.1451645c0.0791283-0.0999088,0.1972504-0.1565514,0.3241997-0.1565514
					c0.0341568,0,0.0634727,0.0045547,0.0907974,0.0113869V16.9481869z"/>
				<path class="st0" d="M38.6181831,17.8509102h-0.2220154v-0.1248131
					c-0.0816917,0.0976295-0.2043686,0.1497192-0.3563652,0.1497192c-0.2334023,0-0.3876762-0.1292248-0.3876762-0.3220654
					c0-0.1926994,0.1588287-0.3175125,0.4104462-0.3175125h0.3153763v-0.0725822
					c0-0.1542721-0.0862427-0.2380981-0.2382393-0.2380981c-0.1246719,0-0.2154694,0.0543652-0.3085442,0.1655159
					l-0.1383362-0.1406097c0.1112938-0.1611042,0.2766685-0.2382412,0.4696503-0.2382412
					c0.2743912,0,0.4557037,0.165659,0.4557037,0.4650955V17.8509102z M38.3779488,17.4085865h-0.2857742
					c-0.1272316,0-0.1975365,0.0453987-0.1975365,0.136055c0,0.0930767,0.0794144,0.1474419,0.1952591,0.1474419
					c0.1611061,0,0.2880516-0.1111507,0.2880516-0.2630043V17.4085865z"/>
				<path class="st0" d="M39.5893593,17.8509102c-0.0748596,0.0159397-0.140892,0.0249062-0.1975365,0.0249062
					c-0.2561722,0-0.4104462-0.1269474-0.4104462-0.3878174v-0.5443668h-0.1815948v-0.2063599h0.1815948v-0.2926064h0.2405205
					v0.2926064h0.3310318v0.2063599h-0.3310318v0.5240154c0,0.1428871,0.0748558,0.1926994,0.2200203,0.1926994
					c0.0338745,0,0.0814095-0.0045547,0.1474419-0.0112438V17.8509102z"/>
				<path class="st0" d="M40.3015213,16.7122231c0.3244858-0.0066891,0.5988731,0.2654228,0.592041,0.580658
					c0.0068321,0.3153763-0.2675552,0.5897655-0.592041,0.5829353c-0.3196487,0.0068302-0.5940361-0.2675591-0.587204-0.5829353
					C39.7074852,16.973093,39.9818726,16.7078114,40.3015213,16.7122231z M40.3037987,16.9299698
					c-0.1972542,0-0.3469734,0.1588268-0.3469734,0.3651886c0,0.2065029,0.1497192,0.3606339,0.344696,0.3606339
					c0.1975365,0,0.3472557-0.1586857,0.3472557-0.3606339C40.648777,17.0887966,40.4967804,16.9299698,40.3037987,16.9299698z"/>
				<path class="st0" d="M41.4061928,17.068161c-0.2015228,0.0045547-0.382267-0.1774712-0.3777122-0.3821239
					c-0.0045547-0.2047958,0.1761894-0.3882427,0.3777122-0.383831c0.2018051-0.0044117,0.3777122,0.1790352,0.3745804,0.383831
					C41.783905,16.8906898,41.6079979,17.0727158,41.4061928,17.068161z M41.4061928,16.3887348
					c-0.16082,0-0.2866287,0.1289406-0.2866287,0.2957363c0,0.1667976,0.1258087,0.2971611,0.2866287,0.2971611
					c0.1593971,0,0.2866287-0.1287994,0.2866287-0.2971611C41.6928215,16.5176754,41.5655899,16.3887348,41.4061928,16.3887348z
					 M41.6003151,16.8756046h-0.1075935l-0.0910835-0.1198311h-0.0483894v0.1198311h-0.0970573v-0.3807011h0.1559792
					c0.083683,0,0.1457329,0.0515194,0.1457329,0.1303635c0,0.0485306-0.0241928,0.0849648-0.0620499,0.1077347
					L41.6003151,16.8756046z M41.3532486,16.6708088h0.0574989c0.0287476,0,0.0469627-0.0182171,0.0469627-0.0439758
					c0-0.0288906-0.0182152-0.0469646-0.0469627-0.0469646h-0.0574989V16.6708088z"/>
			</g>
			<path class="st0" d="M11.4878397,8.4416676L8.9430923,8.4425917c-0.4902496,0.0004797-0.6652451,0.411932-0.6652451,0.8146849
				v0.6854496c0,0.4029665,0.1749001,0.8335724,0.6657715,0.8335724c0,0,1.6791468-0.0043917,2.5450325-0.0007811
				c0.4898577,0,0.6652451-0.410758,0.6652451-0.8148279V9.2774992C12.1538963,8.8734293,11.9789257,8.4416676,11.4878397,8.4416676
				z"/>
		</g>
		<g>
			<path class="st0" d="M61.8702736,18.3063831h-6.1146965l-3.1342926-5.2411509l-3.1345711,5.2411509h-6.1146965
				l5.7294273-8.7866383l-5.3438797-8.3499336h6.0887718l2.7749481,4.8813882l2.7233734-4.8813882h6.1403465l-5.3438797,8.3241463
				L61.8702736,18.3063831z"/>
			<path class="st0" d="M73.1487656,18.3063831H61.4590797V1.1698114h5.1897163v12.6148062h6.4999695V18.3063831z"/>
		</g>
	</g>
</g>
</svg>
