<?xml version="1.0" encoding="utf-8"?>
<!-- Generator: Adobe Illustrator 24.3.0, SVG Export Plug-In . SVG Version: 6.00 Build 0)  -->
<svg version="1.1" id="Layer_1" xmlns="http://www.w3.org/2000/svg" xmlns:xlink="http://www.w3.org/1999/xlink" x="0px" y="0px"
	 viewBox="0 0 76.0999985 18.8999996" style="enable-background:new 0 0 76.0999985 18.8999996;" xml:space="preserve">
<style type="text/css">
	.st0{fill:#FFFFFF;}
</style>
<g>
	<g>
		<g>
			<g>
				<path class="st0" d="M9.3709116,3.6355357H7.9935308c-0.5234456,0-0.741508,0.1650987-1.1261759,0.8328195
					c-0.213068,0.3698668-2.0609961,3.551671-3.6676245,6.2703371V4.4631429c0-0.5142841-0.3198338-0.8276072-0.8350785-0.8276072
					H1.6032157c-0.5152447,0-0.8348466,0.313323-0.8348466,0.8276072v10.335741
					c0,0.5156708,0.3196914,0.8131571,0.8339754,0.8131571h0.9644279c0.3380764,0,0.5861886-0.1499023,1.003643-0.8561735
					C3.9878697,14.049614,9.4175692,4.9697948,9.7116699,4.4683552C10.0057697,3.966933,9.8861561,3.6355357,9.3709116,3.6355357z"
					/>
				<path class="st0" d="M30.166584,3.6355357h-1.3773804c-0.5234451,0-0.7413254,0.1650987-1.1259937,0.8328195
					c-0.213068,0.3698668-2.0609951,3.551671-3.6676235,6.2703371V4.4631429c0-0.5142841-0.3191452-0.8276072-0.8343906-0.8276072
					h-0.7623062c-0.5152454,0-0.8346653,0.313323-0.8346653,0.8276072v10.335741
					c0,0.5156708,0.3195095,0.8131571,0.8337936,0.8131571h0.9652996c0.3380756,0,0.5854988-0.1499023,1.0029526-0.8561735
					c0.4174557-0.7062531,5.8471546-9.7860718,6.1412544-10.2875118C30.8016262,3.966933,30.6818295,3.6355357,30.166584,3.6355357z
					"/>
				<path class="st0" d="M41.5177078,9.386795c-0.1201363-3.1173697-2.6524544-5.6452398-5.7652321-5.7591476
					c-0.081337-0.0041449-0.1610336-0.0061197-0.2380829-0.0061197c-0.0817413,0-0.1637688,0.0019925-0.2455139,0.0059774
					c-3.1015205,0.1322312-5.6233768,2.6601374-5.7429962,5.7550917c-0.0044117,0.0835228-0.0062447,0.1607122-0.0062447,0.2398767
					s0.001833,0.1564789,0.0060501,0.2356253c0.0018501,0.047143,0.0053711,0.0883446,0.0089302,0.1308975l0.000267,0.0031662
					l0.0010319,0.0132895c0.1847458,2.9982491,2.5870914,5.4065371,5.5880795,5.6018686l0.0026894,0.0001783l0.0139809,0.001174
					c0.0423775,0.00354,0.0832558,0.0070448,0.1261139,0.0088234c0.0838432,0.0040741,0.1658516,0.0060663,0.247612,0.0060663
					c0.0770493,0,0.1567459-0.0019751,0.2337952-0.0059414c3.1170654-0.1142282,5.6493835-2.6421528,5.7693253-5.7552347
					c0.0044098-0.083416,0.0062408-0.1607485,0.0062408-0.239913S41.5219231,9.4661016,41.5177078,9.386795z M39.1298943,10.3357716
					c-0.2848663,1.4532452-1.4548988,2.6168203-2.911274,2.8944111c-0.2262878,0.0439587-0.459404,0.0663557-0.6918793,0.0663557
					c-0.2242241,0-0.4417381-0.0194263-0.646534-0.057745c-1.5416069-0.2707605-2.7392311-1.4909773-2.9815617-3.0380993
					c-0.0064049-0.0278225-0.0086632-0.0524263-0.0094471-0.0714436c-0.0244598-0.1586485-0.0363789-0.3232927-0.0363789-0.5025606
					c0-0.1764736,0.0124512-0.348074,0.0369835-0.5099964c0.2343616-1.7134557,1.666048-3.0393972,3.4036083-3.1486087
					C35.3718452,5.963335,35.4493027,5.96104,35.526741,5.96104c0.0935364,0,0.1760101,0.0030956,0.2521706,0.009429
					c0.0410576,0.0021701,0.0836983,0.004643,0.1266441,0.0091615c1.5984268,0.1629362,2.9257736,1.3781366,3.2270432,2.9550562
					c0.044014,0.2284555,0.0663757,0.4614124,0.0663757,0.6920033
					C39.1989746,9.8675461,39.1757393,10.1061058,39.1298943,10.3357716z"/>
				<path class="st0" d="M19.7904892,3.6355357l-6.157671-0.0000584c-0.5152445,0-0.8347301,0.3194861-0.8347301,0.83377v10.3068314
					c0,0.5156717,0.3194857,0.8360119,0.8337698,0.8360119H19.79035c0.5156727,0,0.8360119-0.3203402,0.8360119-0.8360119
					v-0.6378517c0-0.5143013-0.3203392-0.8337879-0.8360119-0.8337879h-4.5543365v-2.5714912l4.5527344,0.0003242
					c0.5170422,0,0.8376141-0.3414068,0.8376141-0.855691V9.2374887c0-0.5143023-0.3203392-0.8337879-0.8360119-0.8337879
					l-4.5545387-0.0000401l0.0002022-2.4605322H19.79035c0.5156727,0,0.8360119-0.3203402,0.8360119-0.8360119V4.4512796
					C20.6263618,3.9356437,20.3061085,3.6355712,19.7904892,3.6355357z"/>
				<g>
					<path class="st0" d="M42.997673,5.2680635c-0.2504807,0.2422252-0.5507736,0.363338-0.9014435,0.363338
						c-0.3620567,0-0.6671867-0.1239591-0.9151039-0.3720193c-0.2482033-0.2480602-0.3720207-0.5531902-0.3720207-0.9153895
						c0-0.3761468,0.1337776-0.6888194,0.4016228-0.9380183c0.2516174-0.2328322,0.5467834-0.3492484,0.8855019-0.3492484
						c0.3552246,0,0.6586456,0.1256669,0.9102669,0.377285c0.2513313,0.251476,0.37714,0.554898,0.37714,0.9099817
						C43.3836365,4.7097497,43.254982,5.0177259,42.997673,5.2680635z M41.3399506,3.5981038
						c-0.204937,0.2096345-0.3074074,0.4582641-0.3074074,0.7458889c0,0.2981563,0.1041756,0.5514822,0.3128166,0.7598357
						c0.2072144,0.2084961,0.4574089,0.3126726,0.7508698,0.3126726c0.2923203,0,0.5422325-0.1047459,0.7494469-0.3143802
						c0.2072144-0.210773,0.3108215-0.4633875,0.3108215-0.7581282c0-0.2864861-0.1030388-0.5349736-0.3091164-0.7458889
						c-0.2083511-0.2141886-0.4588318-0.3213542-0.751152-0.3213542
						C41.8004913,3.2767496,41.5483055,3.3839152,41.3399506,3.5981038z M41.5320816,5.0602794V3.6331141
						c0.0885201,0,0.2211609,0.0002847,0.3973503,0.0008538c0.1764755,0.0005693,0.2746735,0.0014231,0.2943153,0.0027041
						c0.112999,0.0081122,0.2069283,0.0325909,0.2812195,0.0732937c0.1269455,0.0698781,0.1904221,0.1834481,0.1904221,0.3405671
						c0,0.1199741-0.0333023,0.206646-0.1004791,0.2598729c-0.0668869,0.053369-0.149147,0.0852485-0.2470627,0.0956373
						c0.0896606,0.018786,0.1571198,0.0462537,0.2026596,0.0825448c0.0839691,0.0678854,0.1258087,0.1744819,0.1258087,0.3200731
						v0.1275167c0,0.0139475,0.0008545,0.0278945,0.0028496,0.0419841c0.0017052,0.013947,0.0051231,0.0278945,0.0102463,0.0418415
						l0.013092,0.0402761H42.346138c-0.0116692-0.0455418-0.0196381-0.1112928-0.0236244-0.1973953
						c-0.0039825-0.0862446-0.0119553-0.1444526-0.0236244-0.1747665c-0.0185013-0.0499535-0.0535126-0.0849638-0.104744-0.1047459
						c-0.0278969-0.0116701-0.070591-0.0192132-0.1275177-0.0227709L41.9846497,4.555335h-0.0788422v0.5049443H41.5320816z
						 M42.2134972,3.9143345c-0.0515175-0.0197823-0.1235313-0.0297446-0.2166061-0.0297446h-0.0910835V4.298593h0.1451645
						c0.0873833,0,0.1554108-0.0175052,0.2043686-0.0523729s0.0734367-0.0913682,0.0734367-0.1695008
						C42.3287773,3.998729,42.2903519,3.9446483,42.2134972,3.9143345z"/>
				</g>
				<g>
					<path class="st0" d="M31.2882042,17.813303h-0.6421394v-1.4970436h0.5240154
						c0.2698345,0,0.4491558,0.1679363,0.4491558,0.3992023c0,0.1157055-0.0429802,0.2109165-0.1246719,0.2812214
						c0.1744823,0.0567837,0.278944,0.1973953,0.278944,0.3811264C31.7735081,17.62957,31.5808086,17.813303,31.2882042,17.813303z
						 M30.8820286,16.5271759v0.4037552h0.265564c0.1471577,0,0.2311249-0.0794125,0.2311249-0.2040844
						c0-0.1248112-0.0839672-0.1996708-0.2311249-0.1996708H30.8820286z M31.2677097,17.1374359h-0.3856812v0.4649525h0.3856812
						c0.165659,0,0.2630043-0.088522,0.2630043-0.2314091S31.4333687,17.1374359,31.2677097,17.1374359z"/>
					<path class="st0" d="M33.0165138,16.6996651l-0.5419464,1.2405853
						c-0.0930748,0.2110577-0.2177467,0.3062687-0.4081688,0.3062687c-0.0614815,0-0.1226788-0.0068302-0.1838741-0.0226288
						v-0.2019482c0.0703049,0.0068302,0.1132851,0.0091076,0.1315022,0.0091076c0.11129,0,0.188427-0.0385685,0.242794-0.1633816
						l0.0452576-0.1043186l-0.444603-1.0636845h0.2564583l0.3196449,0.8096466l0.3290405-0.8096466H33.0165138z"/>
					<path class="st0" d="M33.8382568,16.3162594h0.4696503c0.4898605,0,0.8143425,0.3039913,0.8143425,0.7463169
						c0,0.4354935-0.3267593,0.7507267-0.8143425,0.7507267h-0.4696503V16.3162594z M34.3056297,17.5978336
						c0.3469734,0,0.5692711-0.2222996,0.5692711-0.5352573c0-0.3176537-0.2200203-0.5285702-0.5692711-0.5285702h-0.2268524
						v1.0638275H34.3056297z"/>
					<path class="st0" d="M35.3582153,16.6996651h0.2359619v0.6644821c0,0.154274,0.1064529,0.2540379,0.2516174,0.2540379
						c0.1383362,0,0.2450714-0.0997639,0.2450714-0.2540379v-0.6644821h0.237957v0.6464081
						c0,0.2994366-0.2109146,0.492136-0.4830284,0.492136c-0.2789421,0-0.4875793-0.1926994-0.4875793-0.492136V16.6996651z
						 M35.5896225,16.1348038c0.083683,0,0.1519966,0.065752,0.1519966,0.1497192
						c0,0.0794144-0.0683136,0.1474419-0.1519966,0.1474419c-0.0839653,0-0.1565475-0.0680275-0.1565475-0.1474419
						C35.433075,16.2028332,35.5056572,16.1348038,35.5896225,16.1348038z M36.0999756,16.1348038
						c0.0814056,0,0.1517105,0.0680294,0.1517105,0.1497192c0,0.0794144-0.0703049,0.1474419-0.1517105,0.1474419
						c-0.0839653,0-0.1565475-0.0680275-0.1565475-0.1474419C35.943428,16.2028332,36.0160103,16.1348038,36.0999756,16.1348038z"/>
					<path class="st0" d="M37.2775154,16.9105797h-0.0725822c-0.188427,0-0.3267632,0.1111507-0.3267632,0.308403v0.5943203
						h-0.2379532v-1.1136379h0.2222977v0.1451645c0.0791321-0.0999069,0.1972542-0.1565495,0.3242035-0.1565495
						c0.0341568,0,0.0634727,0.0045528,0.0907974,0.011385V16.9105797z"/>
					<path class="st0" d="M38.330101,17.813303h-0.2220154v-0.1248131
						c-0.0816917,0.0976315-0.2043724,0.1497192-0.3563652,0.1497192c-0.2334023,0-0.3876762-0.1292248-0.3876762-0.3220654
						c0-0.1926994,0.1588287-0.3175125,0.4104462-0.3175125h0.3153763V17.126049
						c0-0.1542721-0.0862427-0.2380981-0.2382393-0.2380981c-0.1246719,0-0.2154694,0.0543671-0.308548,0.1655159
						l-0.1383324-0.1406097c0.1112938-0.1611042,0.2766685-0.2382393,0.4696503-0.2382393
						c0.2743912,0,0.4557037,0.165657,0.4557037,0.4650936V17.813303z M38.0898666,17.3709793h-0.2857742
						c-0.1272316,0-0.1975365,0.0453987-0.1975365,0.136055c0,0.0930767,0.0794144,0.1474419,0.1952591,0.1474419
						c0.1611061,0,0.2880516-0.1111507,0.2880516-0.2630043V17.3709793z"/>
					<path class="st0" d="M39.3012772,17.813303c-0.0748596,0.0159397-0.140892,0.0249062-0.1975365,0.0249062
						c-0.2561722,0-0.4104462-0.1269474-0.4104462-0.3878174v-0.5443649h-0.1815987v-0.2063618h0.1815987v-0.2926064h0.2405167
						v0.2926064h0.3310318v0.2063618h-0.3310318v0.5240135c0,0.1428871,0.0748596,0.1926994,0.2200241,0.1926994
						c0.0338745,0,0.0814056-0.0045547,0.1474419-0.0112438V17.813303z"/>
					<path class="st0" d="M40.0134392,16.6746178c0.324482-0.0066891,0.5988731,0.2654228,0.592041,0.5806561
						c0.0068321,0.3153782-0.2675591,0.5897675-0.592041,0.5829353c-0.3196487,0.0068321-0.5940361-0.2675571-0.587204-0.5829353
						C39.4194031,16.9354858,39.6937904,16.6702042,40.0134392,16.6746178z M40.0157127,16.8923626
						c-0.1972504,0-0.3469696,0.1588268-0.3469696,0.3651886c0,0.2065029,0.1497192,0.3606339,0.344696,0.3606339
						c0.1975365,0,0.3472557-0.1586838,0.3472557-0.3606339C40.3606949,17.0511894,40.2086983,16.8923626,40.0157127,16.8923626z"/>
					<path class="st0" d="M41.1181107,17.0305538c-0.2015228,0.0045547-0.382267-0.1774693-0.3777122-0.3821239
						c-0.0045547-0.2047958,0.1761894-0.3882427,0.3777122-0.383831c0.2018051-0.0044117,0.3777122,0.1790352,0.3745804,0.383831
						C41.4958229,16.8530846,41.3199158,17.0351086,41.1181107,17.0305538z M41.1181107,16.3511276
						c-0.16082,0-0.2866287,0.1289406-0.2866287,0.2957363c0,0.1667976,0.1258087,0.2971611,0.2866287,0.2971611
						c0.1593971,0,0.2866287-0.1287975,0.2866287-0.2971611C41.4047394,16.4800682,41.2775078,16.3511276,41.1181107,16.3511276z
						 M41.312233,16.8379974h-0.1075935l-0.0910835-0.1198311h-0.0483894v0.1198311h-0.0970612v-0.3807011h0.155983
						c0.083683,0,0.1457329,0.0515194,0.1457329,0.1303635c0,0.0485306-0.0241928,0.0849648-0.0620499,0.1077347
						L41.312233,16.8379974z M41.0651665,16.6332016h0.0574989c0.0287476,0,0.0469627-0.0182152,0.0469627-0.0439758
						c0-0.0288906-0.0182152-0.0469646-0.0469627-0.0469646h-0.0574989V16.6332016z"/>
				</g>
				<path class="st0" d="M11.1997557,8.4040613L8.6550083,8.4049845c-0.4902496,0.0004807-0.6652455,0.411932-0.6652455,0.8146858
					v0.6854496c0,0.4029665,0.1748996,0.8335724,0.665772,0.8335724c0,0,1.6791468-0.0043926,2.5450325-0.000782
					c0.4898577,0,0.6652451-0.410758,0.6652451-0.814827V9.239892C11.8658123,8.8358221,11.6908417,8.4040613,11.1997557,8.4040613z
					"/>
			</g>
			<g>
				<path class="st0" d="M44.558033,8.8325462l0.0383987,1.1135502v5.3983459H43.349617V7.3395314h1.2468147l3.9821243,5.192802
					l3.6636467-5.192802h1.3958931v8.0049114h-1.3958931V9.9460964c0-0.3907585,0.0293655-0.7611895,0.0926094-1.1135502
					c-0.1761818,0.5014362-0.3523598,0.8741255-0.5285416,1.1135502l-3.0763779,4.133461h-0.3952789l-3.1915741-4.0973215
					C44.9036179,9.6818256,44.7093658,9.297843,44.558033,8.8325462z"/>
				<path class="st0" d="M53.976902,15.3444424l4.6258621-8.0049114h1.3778229l4.7387962,8.0049114h-1.6420898l-1.0390129-1.8679638
					h-5.5316086l-1.0186844,1.8679638H53.976902z M57.1504059,12.3245306h4.2463989l-2.1322327-3.8149815L57.1504059,12.3245306z"/>
				<path class="st0" d="M65.1349869,15.3444424l4.0205307-4.0973225l-4.0769958-3.9075885h2.0373688l2.8889008,2.9069753
					l2.6427078-2.9069753h1.870224l-3.6817169,3.7201152l4.4925919,4.2847958h-2.1141586l-3.2277145-3.2480421l-2.9069748,3.2480421
					H65.1349869z"/>
			</g>
			<g>
				<path class="st0" d="M44.558033,8.8325462l0.0383987,1.1135502v5.3983459H43.349617V7.3395314h1.2468147l3.9821243,5.192802
					l3.6636467-5.192802h1.3958931v8.0049114h-1.3958931V9.9460964c0-0.3907585,0.0293655-0.7611895,0.0926094-1.1135502
					c-0.1761818,0.5014362-0.3523598,0.8741255-0.5285416,1.1135502l-3.0763779,4.133461h-0.3952789l-3.1915741-4.0973215
					C44.9036179,9.6818256,44.7093658,9.297843,44.558033,8.8325462z"/>
				<path class="st0" d="M53.976902,15.3444424l4.6258621-8.0049114h1.3778229l4.7387962,8.0049114h-1.6420898l-1.0390129-1.8679638
					h-5.5316086l-1.0186844,1.8679638H53.976902z M57.1504059,12.3245306h4.2463989l-2.1322327-3.8149815L57.1504059,12.3245306z"/>
				<path class="st0" d="M65.1349869,15.3444424l4.0205307-4.0973225l-4.0769958-3.9075885h2.0373688l2.8889008,2.9069753
					l2.6427078-2.9069753h1.870224l-3.6817169,3.7201152l4.4925919,4.2847958h-2.1141586l-3.2277145-3.2480421l-2.9069748,3.2480421
					H65.1349869z"/>
			</g>
		</g>
	</g>
</g>
</svg>
