<?xml version="1.0" encoding="utf-8"?>
<!-- Generator: Adobe Illustrator 24.3.0, SVG Export Plug-In . SVG Version: 6.00 Build 0)  -->
<svg version="1.1" id="Layer_1" xmlns="http://www.w3.org/2000/svg" xmlns:xlink="http://www.w3.org/1999/xlink" x="0px" y="0px"
	 viewBox="0 0 66.6225815 18.8999996" style="enable-background:new 0 0 66.6225815 18.8999996;" xml:space="preserve">
<style type="text/css">
	.st0{fill:#FFFFFF;}
</style>
<g>
	<g>
		<g>
			<g>
				<g>
					<path class="st0" d="M2.4146452,6.2665434c0-0.2914939,0.2337861-0.5274982,0.5223203-0.5274982h2.1839776
						c0.2885332,0,0.5304575,0.2360044,0.5304575,0.5274982v1.4796591c0,0.2914925-0.2419243,0.5274992-0.5304575,0.5274992
						H2.4146452V6.2665434z M6.4230433,7.7462025V6.2665434c0-0.7242937-0.5852051-1.2984023-1.3021002-1.2984023H2.9369655
						c-0.7176352,0-1.3021008,0.5741086-1.3021008,1.2984023v4.4234419c0,0.2204695,0.1716409,0.39359,0.3898903,0.39359
						c0.2027135,0,0.3898902-0.1731205,0.3898902-0.39359V9.0608807h2.7062979
						C5.8378382,9.0608807,6.4230433,8.4704962,6.4230433,7.7462025"/>
					<path class="st0" d="M11.1571407,7.7695808c0,0.2759571-0.2256479,0.5119629-0.5067835,0.5119629H8.4353065
						c-0.2803955,0-0.5067825-0.2360058-0.5067825-0.5119629c0-0.2833543,0.226387-0.5193601,0.5149212-0.5193601h2.7136955
						V7.7695808z M8.4434452,6.4711795c-0.7094975,0-1.2865639,0.5748482-1.2865639,1.2984014
						c0,0.7087574,0.5689287,1.2910032,1.2784252,1.2910032h2.2150507c0.7020988,0,1.2710276-0.5748472,1.2710276-1.2910032
						V6.2588487c0-0.7161546-0.5689287-1.2910028-1.2791662-1.2910028h-3.064374
						c-0.2182503,0-0.3898907,0.17312-0.3898907,0.3854513c0,0.2130713,0.1716404,0.3861909,0.3898907,0.3861909h3.064374
						c0.2811356,0,0.5149221,0.2278681,0.5149221,0.5193605v0.2123308H8.4434452z"/>
					<path class="st0" d="M13.0684185,9.0605841c0.2027111,0,0.3898888-0.1731195,0.3898888-0.393589V5.7550244h2.3711548
						c0.2959328,0,0.5297184,0.2360058,0.5297184,0.5274982V8.666995c0,0.2204695,0.1716404,0.393589,0.3824921,0.393589
						c0.2182503,0,0.3898907-0.1731195,0.3898907-0.393589V6.2825227c0-0.7242932-0.5770683-1.3146768-1.3021011-1.3146768
						h-2.7691822c-0.2182503,0.0081382-0.381752,0.17312-0.381752,0.3935895V8.666995
						C12.6785278,8.8874645,12.8501682,9.0605841,13.0684185,9.0605841"/>
					<path class="st0" d="M17.7947464,8.6905947c0,0.1886568,0.179039,0.369915,0.3662148,0.369915h3.985466
						c0.2101097,0,0.3743515-0.1494455,0.3743515-0.3780527c0-0.2041931-0.1642418-0.3854513-0.3743515-0.3854513h-2.8779392
						c0.7020988-0.5903845,3.0569763-2.557591,3.0569763-2.557591c0.1168938-0.0865602,0.1716404-0.2130709,0.1716404-0.3388419
						c0-0.22047-0.156105-0.4328012-0.3588181-0.4328012h-3.9455128c-0.226387,0-0.3980274,0.173121-0.3980274,0.3854513
						c0,0.2441435,0.179039,0.3861918,0.405426,0.3861918h2.8698006c-0.7094975,0.5903831-3.1272602,2.6286149-3.1272602,2.6286149
						C17.8413563,8.4464512,17.7947464,8.5492878,17.7947464,8.6905947"/>
					<path class="st0" d="M24.51758,9.0605841H27.42659c0.2182522,0,0.3898907-0.1886559,0.3898907-0.393589V5.3695731
						c0-0.2130709-0.1716385-0.393589-0.3898907-0.393589c-0.2182484,0-0.3898907,0.1805182-0.3898907,0.393589V8.273406H24.51758
						c-0.2803955,0-0.5149212-0.2360067-0.5149212-0.5274992V5.3614354c0-0.2123318-0.1871777-0.3935895-0.3972893-0.3935895
						c-0.2182503,0-0.3898888,0.1812577-0.3898888,0.3935895v2.3844714
						C23.2154808,8.4702005,23.7999458,9.0605841,24.51758,9.0605841"/>
					<path class="st0" d="M31.7550411,9.0483027c0.2093697,0,0.3958035-0.1723795,0.3958035-0.3921089V5.773077h1.2577095
						c0.217514,0,0.3884125-0.1879168,0.3884125-0.3921103c0-0.2271271-0.1708984-0.3995075-0.3884125-0.3995075h-1.2577095
						V4.2764006c0-0.2818742,0.2330475-0.5252786,0.5127029-0.5252786h1.2495728c0.190876,0,0.3455009-0.1383483,0.381012-0.3144286
						v4.3028507c0,0.7213345,0.5822449,1.3087587,1.2961807,1.3087587h0.7065392
						c0.201973,0,0.3884087-0.1879158,0.3884087-0.3921089c0-0.2108517-0.1864357-0.3913708-0.3884087-0.3913708H35.590313
						c-0.2796516,0-0.5127029-0.2352657-0.5127029-0.525279V3.359751c0-0.2197287-0.1856956-0.3921089-0.3876686-0.3921089
						c-0.2115898,0-0.3728752,0.1524045-0.3921127,0.3528984c-0.0192337-0.2004938-0.1805153-0.3528984-0.3847084-0.3528984
						h-1.2495728c-0.714674,0-1.2969189,0.5881648-1.2969189,1.3087585v4.3797932
						C31.3666286,8.8759232,31.5375271,9.0483027,31.7550411,9.0483027"/>
					<path class="st0" d="M37.9113121,6.2668395c0-0.2900133,0.2330437-0.52528,0.5127029-0.52528h2.6781807
						c0.287056,0,0.5200996,0.2352667,0.5200996,0.52528v1.4648623c0,0.2900133-0.2330437,0.525279-0.5200996,0.525279H38.424015
						c-0.2796593,0-0.5127029-0.2352657-0.5127029-0.525279V6.2668395z M38.424015,9.0404606h2.6781807
						c0.7220726,0,1.3043213-0.5874243,1.3043213-1.3087587v-1.449326c0-0.7205949-0.5822487-1.3087597-1.3043213-1.3087597
						H38.424015c-0.7146797,0-1.2969246,0.5881648-1.2969246,1.3087597v1.449326
						C37.1270905,8.4530363,37.7093353,9.0404606,38.424015,9.0404606"/>
					<path class="st0" d="M43.9205055,6.2668395c0-0.2900133,0.2330437-0.52528,0.5126991-0.52528h2.6781845
						c0.287796,0,0.5200996,0.2352667,0.5200996,0.52528v1.4648623c0,0.2900133-0.2323036,0.525279-0.5200996,0.525279h-2.6781845
						c-0.2796555,0-0.5126991-0.2352657-0.5126991-0.525279V6.2668395z M44.4332047,9.0404606h2.6781845
						c0.7220726,0,1.3043213-0.5874243,1.3043213-1.3087587v-1.449326c0-0.7205949-0.5822487-1.3087597-1.3043213-1.3087597
						h-2.6781845c-0.7146759,0-1.2969208,0.5881648-1.2969208,1.3087597v1.449326
						C43.1362839,8.4530363,43.7185287,9.0404606,44.4332047,9.0404606"/>
					<path class="st0" d="M49.526123,9.0483027c0.2093697,0,0.3802719-0.1723795,0.3802719-0.3839703V6.2428689
						c0-0.2737374,0.2249031-0.5008645,0.4971657-0.5008645h1.9095001c0.2722549,0,0.5045662,0.2271271,0.5045662,0.5008645
						c0,0.2197289,0.1708946,0.3839712,0.3728714,0.3839712c0.2093735,0,0.3802719-0.1642423,0.3802719-0.3839712
						c0-0.6969204-0.5585709-1.2688084-1.2577095-1.2688084h-1.9095001c-0.6910019,0-1.2577133,0.571888-1.2577133,1.2688084
						v2.4214635C49.1458473,8.8759232,49.3167496,9.0483027,49.526123,9.0483027"/>
					<path class="st0" d="M54.5801964,9.0483027c0.2019691,0,0.3884048-0.1723795,0.3884048-0.3921089v-3.298162
						c0-0.2115908-0.1864357-0.3839712-0.3884048-0.3839712c-0.2249107,0-0.395813,0.1723804-0.395813,0.3839712v3.298162
						C54.1843834,8.8759232,54.3552856,9.0483027,54.5801964,9.0483027"/>
					<path class="st0" d="M54.5801964,4.6212344c0.2019691,0,0.3884048-0.1805182,0.3884048-0.3921089v-0.250062
						c0-0.2197301-0.1864357-0.3921103-0.3884048-0.3921103c-0.2249107,0-0.395813,0.1723802-0.395813,0.3921103v0.250062
						C54.1843834,4.4407163,54.3552856,4.6212344,54.5801964,4.6212344"/>
					<path class="st0" d="M58.9045753,4.9737644h-2.7558708c-0.2175064,0.0081391-0.3802719,0.1723814-0.3802719,0.3921103
						v3.2907634c0,0.2189894,0.1701622,0.3913689,0.3876724,0.3913689c0.2019768,0,0.3884125-0.1723795,0.3884125-0.3913689
						v-2.899394h2.3600578c0.2951889,0,0.5282364,0.2352667,0.5282364,0.52528v2.374114
						c0,0.2189894,0.1701584,0.3913689,0.3802719,0.3913689c0.2175102,0,0.3884163-0.1723795,0.3884163-0.3913689v-2.374114
						C60.2014999,5.5611897,59.6266479,4.9737644,58.9045753,4.9737644"/>
					<path class="st0" d="M64.9450607,8.272666h-2.7255325c-0.287056,0-0.5200958-0.2352667-0.5200958-0.5326777V6.2743864
						c0-0.2974119,0.2330399-0.5326786,0.5200958-0.5326786h2.2128372c0.2715149,0,0.5126953,0.2271285,0.5126953,0.5171423
						V8.272666z M61.2429581,11.0470276c-0.0273819,0-0.0902634-0.1205921-0.0902634-0.3551178
						s0.0628815-0.3558588,0.0902634-0.3558588c0.0266342,0,0.0895157,0.1213331,0.0895157,0.3558588
						S61.2695923,11.0470276,61.2429581,11.0470276 M64.4323654,4.9737644h-2.2128372
						c-0.7139282,0-1.2961807,0.5874252-1.2961807,1.3161583v1.4500656c0,0.7287321,0.5822525,1.3080187,1.2961807,1.3080187
						h2.7255325v0.7287331c0,0.2826157-0.2330399,0.525279-0.5126953,0.525279h-2.2535248V10.300539h-0.9314423v0.0014801
						c-0.0014877,0-0.0029678-0.0014801-0.0044403-0.0014801c-0.0695496,0-0.1257706,0.1753407-0.1257706,0.3913708
						s0.056221,0.3906298,0.1257706,0.3906298c0.0014725,0,0.0029526-0.0007401,0.0044403-0.0014791v0.0014791h0.3506775
						c0.0088806,0.0007401,0.0140533,0.0029593,0.023674,0.0029593h2.8106155c0.7139359,0,1.2961807-0.5874252,1.2961807-1.3087587
						V6.2899227C65.7285461,5.5611897,65.1463013,4.9737644,64.4323654,4.9737644"/>
					<path class="st0" d="M29.613306,11.0016756l0.0998764,0.0776825l5.0508175,4.0276337
						c0.0229378,0.0177555,0.0266342,0.0517883,0.0081406,0.0747232c-0.0103569,0.0133162-0.0258942,0.0207148-0.0414314,0.0207148
						c-0.0118408,0-0.023674-0.0044394-0.0332947-0.011837l-5.0737476-4.0453901v5.9215984
						c0,0.0436497-0.0355148,0.0784225-0.0784264,0.0784225c-0.0436478,0-0.0784187-0.0347729-0.0784187-0.0784225v-5.8986635
						l-4.7260342,3.7198639c-0.0096169,0.0073986-0.0214539,0.0110979-0.0325527,0.0110979
						c-0.0162754,0-0.0318127-0.0066586-0.0421696-0.0199747c-0.0184956-0.023675-0.0147972-0.0569677,0.0088768-0.0754633
						l4.7304707-3.7243032l0.061409-0.0495691v-0.7294722h-9.2271576v0.7827406l7.310257-0.0029593
						c-0.5104809,0.2774363-1.097168,0.6998787-1.6845932,1.2273779c-1.2303352,1.2303362-2.0841007,2.6219568-1.7911282,2.9482212
						c0.2485847,0.2759571,2.373373-0.8848362,3.1605549-1.4286108c0.4231815-0.3188667,0.7672043-0.6111002,1.0438995-0.8789186
						C28.2623768,13.2256041,28.2535,13.5126581,28.2535,13.8063707c0,2.8424273,0.7531433,4.4656134,1.346489,4.4656134
						c0.501606,0,1.3457527-1.8288593,1.3457527-4.4656134c0-0.1945753-0.0037003-0.3854513-0.011097-0.5741081
						c0.2855721,0.2803955,0.6451302,0.5866852,1.0890255,0.9218283c1.2577133,0.858942,3.2752266,1.6402025,3.3625259,1.5529032
						c0.1109772-0.1109753-0.1361275-1.2591906-1.9723854-3.0954485c-0.8656006-0.7783003-1.7311993-1.3324337-2.3578358-1.5314474
						l6.8249302,0.0029593v-0.7827406H29.613306V11.0016756z"/>
				</g>
				<rect x="11.8910522" y="10.3006868" class="st0" width="8.2024937" height="0.7820005"/>
				<rect x="46.3316116" y="10.3006868" class="st0" width="8.2772141" height="0.7820005"/>
				<rect x="54.7560539" y="10.3006868" class="st0" width="5.4251747" height="0.7820005"/>
				<rect x="38.0277634" y="10.3006868" class="st0" width="8.1581039" height="0.7820005"/>
				<g>
					<path class="st0" d="M3.6194582,10.6919098c0,0.2345257-0.0628853,0.3551178-0.089519,0.3551178
						s-0.0895195-0.1205921-0.0895195-0.3551178c0-0.2345266,0.0628858-0.3558588,0.0895195-0.3558588
						S3.6194582,10.4573832,3.6194582,10.6919098 M3.5343781,10.3020191c-0.0014796,0-0.0029593-0.0014801-0.0044389-0.0014801
						c-0.0695443,0-0.125771,0.1753407-0.125771,0.3913708s0.0562267,0.3906298,0.125771,0.3906298
						c0.0014796,0,0.0029593-0.0007391,0.0044389-0.0014791v0.0014791h8.2106314V10.300539H3.5343781V10.3020191z"/>
					<path class="st0" d="M60.3023376,10.691391c0,0.2160311-0.0562363,0.3913698-0.1257782,0.3913698
						c-0.0688019,0-0.1250305-0.1753387-0.1250305-0.3913698c0-0.2160301,0.0562286-0.3913698,0.1250305-0.3913698
						C60.2461014,10.3000212,60.3023376,10.4753609,60.3023376,10.691391"/>
					<path class="st0" d="M52.6733513,13.6891823c0.0821228,0,0.1494484-0.0673246,0.1494484-0.1472263v-0.2160301
						c0-0.0821209-0.0673256-0.1494455-0.1494484-0.1494455h-0.9403191v0.512702H52.6733513z M52.6755714,12.9537907
						c0.0821228,0,0.1516647-0.0665836,0.1516647-0.1487055v-0.2485828c0-0.0799007-0.0695419-0.1494455-0.1516647-0.1494455
						H51.882473c-0.0843391,0-0.1494408,0.0695448-0.1494408,0.1664619v0.3802719H52.6755714z M52.5956726,12.1843681
						c0.1990128,0,0.4520302,0.0776825,0.4520302,0.3721342v0.2485828c0,0.1013575-0.0406837,0.1945753-0.105793,0.2611599
						c0.0606689,0.0673246,0.1035767,0.1642427,0.1035767,0.2596807v0.2160301c0,0.2056723-0.1664619,0.3721342-0.3721352,0.3721342
						h-1.0505562c-0.0599251,0-0.1124535-0.0540075-0.1124535-0.1124535v-1.2281179
						c0-0.2182493,0.1627617-0.3891506,0.3721313-0.3891506H52.5956726z"/>
					<path class="st0" d="M54.6305046,14.1040039c0,0.2012339-0.1620216,0.3610373-0.361042,0.3610373h-0.7457428
						c-0.0628853,0-0.1102371-0.047349-0.1102371-0.1057959c0-0.0628853,0.0473518-0.1102343,0.1102371-0.1102343h0.7457428
						c0.0776863,0,0.1427879-0.0651054,0.1427879-0.1450071v-0.2182493
						c-0.0414314,0.0170164-0.0954361,0.0303326-0.1427879,0.0303326h-0.5881615
						c-0.2004929,0-0.3610382-0.1620226-0.3610382-0.3610363v-0.6569691c0-0.0606661,0.0458679-0.1080151,0.108017-0.1080151
						c0.0562248,0,0.1080132,0.047349,0.1080132,0.1080151v0.6569691c0,0.0776815,0.0651054,0.1450062,0.1450081,0.1450062
						h0.5881615c0.0776863,0,0.1427879-0.0673246,0.1427879-0.1450062v-0.6569691
						c0-0.0606661,0.0473518-0.1080151,0.1102371-0.1080151c0.0562248,0,0.108017,0.047349,0.108017,0.1080151V14.1040039z"/>
					<path class="st0" d="M55.7887802,12.4113483v1.2821245h1.0054321c0.079895,0,0.1494408-0.0695438,0.1494408-0.1494455
						v-0.9854536c0-0.0799007-0.0695457-0.1472254-0.1494408-0.1472254H55.7887802z M56.7942123,12.1864395
						c0.2056694,0,0.3721313,0.1664619,0.3721313,0.3721342v0.9854536c0,0.2056723-0.1664619,0.3721352-0.3721313,0.3721352
						h-1.1171455c-0.0628853,0-0.1124535-0.0495691-0.1124535-0.1124544v-1.5048141
						c0-0.0584459,0.0540047-0.1124544,0.1124535-0.1124544H56.7942123z"/>
					<path class="st0" d="M58.184864,12.6405468c0-0.0606661,0.0473518-0.1080151,0.108017-0.1080151
						c0.0584412,0,0.1102295,0.047349,0.1102295,0.1080151v0.0688038c0,0.0569677-0.0517883,0.108016-0.1102295,0.108016
						c-0.0606651,0-0.108017-0.0510483-0.108017-0.108016V12.6405468z M57.7113724,12.6405468
						c0-0.0606661,0.0473518-0.1080151,0.108017-0.1080151c0.058445,0,0.1080132,0.047349,0.1080132,0.1080151v0.0688038
						c0,0.0569677-0.0495682,0.108016-0.1080132,0.108016c-0.0606651,0-0.108017-0.0510483-0.108017-0.108016V12.6405468z
						 M57.7868385,13.9160137c-0.1990166,0-0.361042-0.1620226-0.361042-0.3610373v-0.6547489
						c0-0.0584469,0.0473518-0.108016,0.108017-0.108016c0.0584488,0,0.1102371,0.0495691,0.1102371,0.108016v0.6547489
						c0,0.0799017,0.0651054,0.1450071,0.1427879,0.1450071h0.6983948v-0.7982769
						c0-0.0577068,0.0473518-0.1080151,0.108017-0.1080151s0.1080132,0.0503082,0.1080132,0.1080151v0.906292
						c0,0.0562267-0.047348,0.1080151-0.1080132,0.1080151H57.7868385z"/>
					<path class="st0" d="M59.8264046,12.7918425c0.1945686,0,0.3499413,0.1575832,0.3499413,0.3499393
						c0,0.0606661-0.0473557,0.1065359-0.1057968,0.1065359c-0.0562286,0-0.1035767-0.0458698-0.1035767-0.1065359
						c0-0.0754623-0.0651093-0.1383486-0.1405678-0.1383486h-0.5319366c-0.0754662,0-0.1383514,0.0628862-0.1383514,0.1383486
						v0.668067c0,0.0584459-0.047348,0.1057949-0.105793,0.1057949c-0.0584488,0-0.1057968-0.047349-0.1057968-0.1057949v-0.668067
						c0-0.1923561,0.1575813-0.3499393,0.3499413-0.3499393H59.8264046z"/>
					<path class="st0" d="M60.7004395,13.7018328h0.6140594c0.0776749,0,0.140564-0.0643654,0.140564-0.1405678v-0.142787
						h-0.7524033c-0.0799026,0-0.1427917,0.0651054-0.1427917,0.142787
						C60.5598679,13.6374674,60.622757,13.7018328,60.7004395,13.7018328 M61.3122787,12.7918425
						c0.1967926,0,0.3543777,0.1575832,0.3543777,0.3543787v0.4150438c0,0.1967955-0.1575851,0.3543787-0.3521576,0.3543787
						h-0.6140594c-0.1967926,0-0.3543854-0.1598034-0.3543854-0.3543787c0-0.1990137,0.1598053-0.3565979,0.3566055-0.3565979
						h0.7524033v-0.0584459c0-0.0799017-0.0651016-0.1427879-0.1427841-0.1427879h-0.8500671
						c-0.0599213,0-0.108017-0.047349-0.108017-0.1057949c0-0.0584469,0.0480957-0.1057959,0.108017-0.1057959H61.3122787z"/>
					<path class="st0" d="M62.4435501,13.6998348c0.0628891,0,0.1102295,0.0495691,0.1102295,0.108016
						c0,0.0606661-0.0473404,0.1080151-0.1102295,0.1080151h-0.2078934c-0.2004929,0-0.3610382-0.1620226-0.3610382-0.3610373
						v-1.2081423c0-0.0606661,0.0458755-0.1080151,0.108017-0.1080151c0.0562286,0,0.108757,0.047349,0.108757,0.1080151v0.4431581
						h0.3521576c0.0606613,0,0.108017,0.047349,0.108017,0.1080151c0,0.0584469-0.0473557,0.1057959-0.108017,0.1057959h-0.3521576
						v0.5511732c0,0.0799017,0.0643616,0.1450062,0.1442642,0.1450062H62.4435501z"/>
					<path class="st0" d="M62.9375305,13.5531273c0,0.0799017,0.0651093,0.1442671,0.1427917,0.1442671h0.7457504
						c0.079895,0,0.1450043-0.0643654,0.1450043-0.1442671v-0.4046869c0-0.0799017-0.0651093-0.1450071-0.1450043-0.1450071
						h-0.7457504c-0.0776825,0-0.1427917,0.0651054-0.1427917,0.1450071V13.5531273z M63.8260727,12.7918425
						c0.2012329,0,0.3632507,0.1620226,0.3632507,0.3610373v0.4002476c0,0.1990147-0.1620178,0.3610373-0.3632507,0.3610373
						h-0.7457504c-0.1990128,0-0.3610382-0.1620226-0.3610382-0.3610373v-0.4002476
						c0-0.1990147,0.1620255-0.3610373,0.3610382-0.3610373H63.8260727z"/>
				</g>
			</g>
			<g>
				<g>
					<g>
						<path class="st0" d="M64.8218918,12.5163317v0.08778c0,0.0512314-0.0410156,0.0920887-0.092247,0.0927267
							c0.0119705,0.0306435,0.0335159,0.0834703,0.0485153,0.1195393c0.0015945,0.0031929,0.0022354,0.0065441,0.0022354,0.0097361
							c0,0.0113316-0.0076599,0.0220242-0.0178757,0.0263338c-0.0031891,0.0015955-0.0063858,0.0022345-0.0102158,0.0022345
							c-0.0106888,0-0.0215454-0.0065441-0.0258484-0.0172367l-0.055542-0.1406069h-0.1916809v0.1297541
							c0,0.0156403-0.0134048,0.0280895-0.0279312,0.0280895c-0.0156403,0-0.0280838-0.0124493-0.0280838-0.0280895v-0.3102608
							c0-0.0512314,0.0414886-0.0925674,0.0932007-0.0925674h0.2127457
							C64.7803955,12.4237642,64.8218918,12.4651003,64.8218918,12.5163317z M64.7668304,12.5163317
							c0-0.0199499-0.0172348-0.0365477-0.0376663-0.0365477h-0.2127457c-0.0204239,0-0.0371857,0.0165977-0.0371857,0.0365477
							v0.1249666h0.2499313c0.0204315,0,0.0376663-0.0165987,0.0376663-0.0371866V12.5163317z"/>
					</g>
				</g>
				<g>
					<path class="st0" d="M64.6177597,13.0204153c-0.2102356,0-0.3813782-0.1707945-0.3813782-0.381031
						c0-0.2102375,0.1711426-0.3813848,0.3813782-0.3813848s0.3813858,0.1711473,0.3813858,0.3813848
						C64.9991455,12.8496208,64.8279953,13.0204153,64.6177597,13.0204153z M64.6177597,12.312232
						c-0.1802979,0-0.3271484,0.1468487-0.3271484,0.3271523c0,0.1803026,0.1468506,0.3267994,0.3271484,0.3267994
						c0.1803055,0,0.3271561-0.1464968,0.3271561-0.3267994C64.9449158,12.4590807,64.7980652,12.312232,64.6177597,12.312232z"/>
				</g>
			</g>
		</g>
	</g>
</g>
</svg>
