<?xml version="1.0" encoding="utf-8"?>
<!-- Generator: Adobe Illustrator 26.3.1, SVG Export Plug-In . SVG Version: 6.00 Build 0)  -->
<svg version="1.1" id="Layer_1" xmlns="http://www.w3.org/2000/svg" xmlns:xlink="http://www.w3.org/1999/xlink" x="0px" y="0px"
	 viewBox="0 0 432 104" style="enable-background:new 0 0 432 104;" xml:space="preserve">
<style type="text/css">
	.st0{fill:#FFFFFF;}
	.st1{fill:#B08F53;}
</style>
<g>
	<path class="st0" d="M417.3,23.5c-8.4,0.1-12.1,5.6-12.1,14.2c0,15.9,20.6,16.1,20.6,29.8c0,6.1-2.4,10.5-8.6,10.5
		c-6.3,0-8.6-4.4-8.6-10.5v-3.2H405v2.9c0,8.2,3.6,14.3,12.3,14.3c8.7,0,12.3-6,12.3-14.3c0-15.7-20.6-16-20.6-29.8
		c0-6,2.3-10.5,8.5-10.5c6.2,0,8.5,4.6,8.5,10.6V39h3.6v-1.2C429.5,29.6,426,23.5,417.3,23.5 M377.7,52.2V27.5h8.1
		c6.2,0,8.6,3.7,8.6,9.8v5.4c0,7.7-3.9,9.5-10.6,9.5H377.7z M374,24v57h3.7V55.6h6c6.5,0,10.7,2.1,10.7,9.7v9c0,3.1,0.2,5.1,1.2,6.8
		h3.9c-1.2-1.9-1.4-4.5-1.4-6.8v-8.9c0-6.2-2.4-10.3-8.2-11.7c5.6-1.3,8.2-5.1,8.2-11.8v-5c0-8.1-3.5-12.9-12.2-12.9H374z
		 M349.1,50.4v-23h18.7V24h-22.5v57h22.5v-3.4h-18.7V53.9h15.6v-3.4H349.1z M328.9,81.1V27.5h11.6V24h-27v3.4h11.7v53.6H328.9z
		 M298.9,81.1V27.5h11.6V24h-27v3.4h11.7v53.6H298.9z M264,28.3l8.4,36.9h-16.6L264,28.3z M272.9,68.5l2.9,12.6h3.7L266.8,24h-5.5
		l-12.5,57.1h3.4l2.9-12.6H272.9z M239.6,30.4v50.7h3.6V24h-5.4l-11.9,50.4l-12-50.4h-5.4v57h3.3V30.6L224,81h3.7L239.6,30.4z"/>
</g>
<polygon class="st1" points="153.5,16.4 180.5,16.4 180.5,2.1 137.8,2.1 137.8,101.6 180.5,101.6 180.5,87.4 153.5,87.4 153.5,58.3 
	174.9,58.3 174.9,44.1 153.5,44.1 "/>
<polygon class="st1" points="84.2,2.1 84.2,16.4 112.5,16.4 82.8,87.7 82.8,101.6 128.6,101.6 128.6,87.4 98.9,87.4 128.6,16.1 
	128.6,2.1 "/>
<rect x="58.2" y="2.1" class="st1" width="15.6" height="99.5"/>
<path class="st1" d="M3.1,26c0,28.4,30.6,32.3,30.6,52.7c0,7.1-3.1,9.7-8.1,9.7s-8.1-2.6-8.1-9.7v-7.1H2.7v6.1c0,15.9,8,25,23.3,25
	s23.3-9.1,23.3-25c0-28.4-30.6-32.3-30.6-52.7c0-7.1,2.8-9.8,7.8-9.8s7.8,2.7,7.8,9.8v4.1h14.8V26c0-15.9-7.8-25-23-25
	S3.1,10.1,3.1,26"/>
</svg>
