<?xml version="1.0" encoding="utf-8"?>
<!-- Generator: Adobe Illustrator 26.3.1, SVG Export Plug-In . SVG Version: 6.00 Build 0)  -->
<svg version="1.1" id="Layer_1" xmlns="http://www.w3.org/2000/svg" xmlns:xlink="http://www.w3.org/1999/xlink" x="0px" y="0px"
	 viewBox="0 0 73 31.5" style="enable-background:new 0 0 73 31.5;" xml:space="preserve">
<style type="text/css">
	.st0{fill:#FFFFFF;}
	.st1{fill:#B08F53;}
</style>
<g>
	<g>
		<path class="st0" d="M5.5729122,4.4031658c-1.9950008,0-3.6170006,1.6219997-3.6170006,3.6169987v15.4030018
			c0,1.9939995,1.6219997,3.6169987,3.6170006,3.6169987h15.4029999c1.9939995,0,3.6169987-1.6229992,3.6169987-3.6169987V8.0201645
			c0-1.9949989-1.6229992-3.6169987-3.6169987-3.6169987H5.5729122z M20.9759121,28.7861652H5.5729122
			c-2.9570007,0-5.3630009-2.4060001-5.3630009-5.362999V8.0201645c0-2.9569988,2.4060001-5.362999,5.3630009-5.362999h15.4029999
			c2.9569988,0,5.362999,2.4060001,5.362999,5.362999v15.4030018
			C26.3389111,26.3801651,23.9329109,28.7861652,20.9759121,28.7861652"/>
	</g>
	<g>
		<path class="st0" d="M14.2257118,24.2526665c0,0.4820004-0.3910007,0.8729992-0.8730001,0.8729992
			c-0.4820004,0-0.8730001-0.3909988-0.8730001-0.8729992V7.2086658c0-0.4819984,0.3909998-0.8729992,0.8730001-0.8729992
			c0.4819994,0,0.8730001,0.3910007,0.8730001,0.8729992V24.2526665z"/>
	</g>
	<g>
		<path class="st0" d="M17.9237118,20.616066c0,0.2229996-0.085001,0.4470005-0.2560005,0.6170006l-3.7039995,3.7039986
			c-0.3410006,0.3409996-0.8940001,0.3409996-1.2340002,0c-0.3409996-0.3409996-0.3409996-0.8929996,0-1.2339993
			l3.7039986-3.7040005c0.3410015-0.3409996,0.8930016-0.3409996,1.2340012,0
			C17.8387108,20.1690655,17.9237118,20.3930664,17.9237118,20.616066"/>
	</g>
	<g>
		<path class="st0" d="M14.1314116,7.0996647c0,0.2230015-0.085,0.4470005-0.2560005,0.6170006l-3.7039995,3.7040005
			c-0.3410006,0.3409996-0.8940001,0.3409996-1.2340002,0.0009995c-0.3409996-0.3409996-0.3409996-0.8939991,0-1.2350006
			l3.7039995-3.7039986c0.3410006-0.3409996,0.8930006-0.3409996,1.2340002,0
			C14.0464115,6.6526661,14.1314116,6.8766651,14.1314116,7.0996647"/>
	</g>
	<g>
		<path class="st0" d="M17.9237118,10.8038654c0,0.2240009-0.085001,0.4470005-0.2560005,0.6170006
			c-0.3409996,0.3409996-0.8929996,0.3409996-1.2340012,0l-3.7039986-3.7040005
			c-0.3409996-0.3409996-0.3409996-0.8939991,0-1.2349987c0.3409996-0.3400002,0.8929996-0.3400002,1.2340002,0.0009995
			l3.7039995,3.7040005C17.8387108,10.3568668,17.9237118,10.5808659,17.9237118,10.8038654"/>
	</g>
	<g>
		<path class="st0" d="M14.2196121,24.3200665c0,0.2229996-0.085,0.4469986-0.2560005,0.6169987
			c-0.3409996,0.3410015-0.8929996,0.3410015-1.2340002,0l-3.7039995-3.7039986
			c-0.3409996-0.3409996-0.3409996-0.8929996,0-1.2340012c0.3409996-0.3409996,0.8929996-0.3409996,1.2340002,0l3.7039995,3.7040005
			C14.1346121,23.8730659,14.2196121,24.0970669,14.2196121,24.3200665"/>
	</g>
</g>
<g>
	<path class="st1" d="M41.7705078,17.3276367H31.3105469v-2.6796875c2.9599609-2.1337891,4.8432617-3.5732422,5.6499023-4.3203125
		c0.8066406-0.7460938,1.2104492-1.4462891,1.2104492-2.0996094c0-0.4404297-0.1772461-0.7832031-0.5302734-1.0302734
		c-0.3535156-0.2470703-0.7900391-0.3701172-1.3100586-0.3701172c-1.3334961,0-2.5200195,0.4873047-3.5600586,1.4599609
		l-1.8999023-2.2802734c0.6801758-0.7460938,1.5-1.3027344,2.4599609-1.6699219
		c0.9599609-0.3662109,1.9399414-0.5498047,2.9399414-0.5498047c1.5869141,0,2.8833008,0.4072266,3.8901367,1.2197266
		c1.0063477,0.8134766,1.5102539,1.8867188,1.5102539,3.2207031c0,1-0.3735352,1.9726562-1.1201172,2.9199219
		c-0.7470703,0.9462891-1.9667969,2.0068359-3.6601562,3.1796875h4.8798828V17.3276367z"/>
	<path class="st1" d="M48.7509766,17.5678711c-1.5737305,0-2.9101562-0.3203125-4.0102539-0.9599609
		c-1.1000977-0.640625-1.6499023-1.5732422-1.6499023-2.7998047c0-0.7333984,0.25-1.4003906,0.75-2
		c0.5-0.6005859,1.1499023-1.0537109,1.9501953-1.3603516c-1.6538086-0.6269531-2.4799805-1.6601562-2.4799805-3.1005859
		c0-0.6123047,0.15625-1.15625,0.4697266-1.6298828c0.3129883-0.4726562,0.7368164-0.8466797,1.2700195-1.1201172
		c0.5332031-0.2724609,1.1132812-0.4765625,1.7402344-0.609375c0.6264648-0.1328125,1.2797852-0.2001953,1.9599609-0.2001953
		c0.9331055,0,1.7929688,0.1132812,2.5795898,0.3398438c0.7866211,0.2275391,1.4604492,0.6171875,2.0200195,1.1699219
		c0.5600586,0.5537109,0.840332,1.2373047,0.840332,2.0498047c0,1.4277344-0.8334961,2.4609375-2.5,3.1005859
		c0.7998047,0.3066406,1.449707,0.7597656,1.949707,1.3603516c0.5,0.5996094,0.75,1.2666016,0.75,2
		c0,0.8261719-0.2768555,1.5332031-0.8295898,2.1191406c-0.5537109,0.5869141-1.2436523,1.0068359-2.0703125,1.2607422
		C50.6640625,17.440918,49.7509766,17.5678711,48.7509766,17.5678711z M48.7509766,14.7075195
		c0.6264648,0,1.1430664-0.1201172,1.5498047-0.3603516c0.4067383-0.2392578,0.6098633-0.5527344,0.6098633-0.9394531
		c0-0.3730469-0.2333984-0.6835938-0.699707-0.9296875c-0.4667969-0.2470703-0.9536133-0.4033203-1.4599609-0.4707031
		c-0.5200195,0.0673828-1.0102539,0.2236328-1.4702148,0.4707031c-0.4599609,0.2460938-0.6899414,0.5566406-0.6899414,0.9296875
		c0,0.3867188,0.2001953,0.7001953,0.6000977,0.9394531C47.5908203,14.5874023,48.1108398,14.7075195,48.7509766,14.7075195z
		 M48.7509766,9.1079102c0.4931641-0.0664062,0.9365234-0.2099609,1.3295898-0.4306641
		c0.3935547-0.2197266,0.590332-0.4960938,0.590332-0.8300781c0-0.3730469-0.1767578-0.6660156-0.5302734-0.8798828
		c-0.3530273-0.2128906-0.8168945-0.3193359-1.3896484-0.3193359c-0.5869141,0-1.0571289,0.1064453-1.4101562,0.3193359
		c-0.3535156,0.2138672-0.5297852,0.5068359-0.5297852,0.8798828c0,0.3339844,0.199707,0.6103516,0.5996094,0.8300781
		C47.8110352,8.8979492,48.2573242,9.0415039,48.7509766,9.1079102z"/>
	<path class="st1" d="M58.8505859,10.4672852c-1.0268555,0-1.8598633-0.3164062-2.5-0.9492188
		c-0.6401367-0.6337891-0.9599609-1.4238281-0.9599609-2.3701172c0-0.9599609,0.3198242-1.7607422,0.9599609-2.4003906
		s1.4731445-0.9599609,2.5-0.9599609c1.0532227,0,1.9033203,0.3203125,2.550293,0.9599609
		c0.6464844,0.6396484,0.9697266,1.4404297,0.9697266,2.4003906c0,0.9462891-0.3232422,1.7363281-0.9697266,2.3701172
		C60.7539062,10.1508789,59.9038086,10.4672852,58.8505859,10.4672852z M57.8808594,8.237793
		c0.246582,0.2597656,0.5698242,0.3896484,0.9697266,0.3896484s0.7299805-0.1298828,0.9902344-0.3896484
		c0.2597656-0.2597656,0.3896484-0.6230469,0.3896484-1.0898438c0-0.4804688-0.1298828-0.8535156-0.3896484-1.1201172
		c-0.2602539-0.2666016-0.590332-0.4003906-0.9902344-0.4003906s-0.7231445,0.1337891-0.9697266,0.4003906
		c-0.2470703,0.2666016-0.3701172,0.6396484-0.3701172,1.1201172C57.5107422,7.6147461,57.6337891,7.9780273,57.8808594,8.237793z
		 M59.2504883,17.3276367h-1.7197266L66.0507812,3.987793h1.7397461L59.2504883,17.3276367z M66.390625,17.5678711
		c-1.0268555,0-1.8598633-0.3164062-2.5-0.9501953c-0.6401367-0.6328125-0.9599609-1.4228516-0.9599609-2.3701172
		c0-0.9599609,0.3198242-1.7597656,0.9599609-2.4003906c0.6401367-0.6396484,1.4731445-0.9599609,2.5-0.9599609
		c1.0400391,0,1.8833008,0.3203125,2.5302734,0.9599609c0.6464844,0.640625,0.9697266,1.4404297,0.9697266,2.4003906
		c0,0.9472656-0.3232422,1.7373047-0.9697266,2.3701172C68.2739258,17.2514648,67.4306641,17.5678711,66.390625,17.5678711z
		 M66.390625,15.7280273c0.4130859,0,0.746582-0.1269531,1-0.3808594c0.2529297-0.2529297,0.3798828-0.6191406,0.3798828-1.0996094
		c0-0.4794922-0.1298828-0.8535156-0.3896484-1.1201172c-0.2602539-0.2666016-0.590332-0.3994141-0.9902344-0.3994141
		s-0.7236328,0.1328125-0.9697266,0.3994141c-0.2470703,0.2666016-0.3701172,0.640625-0.3701172,1.1201172
		c0,0.4804688,0.1230469,0.8466797,0.3701172,1.0996094C65.6669922,15.6010742,65.9907227,15.7280273,66.390625,15.7280273z"/>
</g>
<g>
	<path class="st0" d="M44.9008789,28.1274414h-0.8100586l-1.3227539-4.8417969l-1.3232422,4.8417969h-0.8100586
		l-1.7099609-6.0029297h0.828125l1.3320312,5.0039062l1.3769531-5.0039062h0.6210938l1.3769531,5.0039062l1.3227539-5.0039062
		h0.828125L44.9008789,28.1274414z"/>
	<path class="st0" d="M47.753418,23.159668c-0.1201172,0-0.2246094-0.0439453-0.3149414-0.1308594
		c-0.0898438-0.0869141-0.1347656-0.1933594-0.1347656-0.3193359s0.0449219-0.234375,0.1347656-0.3242188
		c0.090332-0.0898438,0.1948242-0.1347656,0.3149414-0.1347656c0.1259766,0,0.234375,0.0449219,0.3242188,0.1347656
		s0.1347656,0.1982422,0.1347656,0.3242188s-0.0449219,0.2324219-0.1347656,0.3193359S47.8793945,23.159668,47.753418,23.159668z
		 M48.0957031,28.1274414h-0.675293v-4.3466797h0.675293V28.1274414z"/>
	<path class="st0" d="M53.2705078,28.1274414h-0.6748047v-0.6484375c-0.3720703,0.5048828-0.8613281,0.7568359-1.4672852,0.7568359
		c-0.5756836,0-1.0424805-0.2060547-1.3994141-0.6171875c-0.3569336-0.4101562-0.5356445-0.9638672-0.5356445-1.6601562
		c0-0.6904297,0.1787109-1.2431641,0.5356445-1.6601562s0.8237305-0.6259766,1.3994141-0.6259766
		c0.6000977,0,1.0888672,0.2548828,1.4672852,0.7646484v-2.3125h0.6748047V28.1274414z M51.2905273,27.6323242
		c0.2641602,0,0.5161133-0.0654297,0.7558594-0.1982422c0.2402344-0.1318359,0.4233398-0.2939453,0.5493164-0.4853516v-1.9716797
		c-0.1259766-0.1972656-0.3105469-0.3642578-0.5537109-0.4990234s-0.4936523-0.2021484-0.7514648-0.2021484
		c-0.4262695,0-0.7651367,0.1572266-1.0170898,0.4716797c-0.2519531,0.3154297-0.3779297,0.71875-0.3779297,1.2109375
		s0.1259766,0.8935547,0.3779297,1.2060547C50.5253906,27.4760742,50.8642578,27.6323242,51.2905273,27.6323242z"/>
	<path class="st0" d="M56.5830078,28.2358398c-0.6484375,0-1.1791992-0.2119141-1.5932617-0.6347656
		s-0.6210938-0.9736328-0.6210938-1.6513672c0-0.6357422,0.2041016-1.1748047,0.6123047-1.6162109
		c0.4077148-0.4404297,0.9179688-0.6611328,1.5297852-0.6611328c0.6420898,0,1.1503906,0.2207031,1.5253906,0.6611328
		c0.375,0.4414062,0.5625,0.9980469,0.5625,1.6699219v0.1708984h-3.519043
		c0.0302734,0.4257812,0.1860352,0.7832031,0.4682617,1.0712891c0.2817383,0.2880859,0.6479492,0.4316406,1.0981445,0.4316406
		c0.5400391,0,0.9868164-0.1826172,1.3408203-0.5488281l0.3242188,0.4414062
		C57.8666992,28.0131836,57.2905273,28.2358398,56.5830078,28.2358398z M57.9326172,25.6791992
		c-0.0058594-0.3720703-0.1318359-0.7060547-0.3779297-1.0029297s-0.597168-0.4462891-1.0527344-0.4462891
		c-0.4321289,0-0.7729492,0.1474609-1.0214844,0.4414062c-0.2490234,0.2939453-0.3828125,0.6298828-0.4008789,1.0078125H57.9326172z
		"/>
	<path class="st0" d="M60.362793,28.1274414H59.6875v-4.3466797h0.675293v0.7021484
		c0.4018555-0.5283203,0.8847656-0.7919922,1.4487305-0.7919922v0.6923828
		c-0.0839844-0.0175781-0.1738281-0.0273438-0.2700195-0.0273438c-0.2036133,0-0.4257812,0.0722656-0.6660156,0.2167969
		c-0.2397461,0.1435547-0.4106445,0.3027344-0.5126953,0.4765625V28.1274414z"/>
</g>
</svg>
