<?xml version="1.0" encoding="utf-8"?>
<!-- Generator: Adobe Illustrator 26.3.1, SVG Export Plug-In . SVG Version: 6.00 Build 0)  -->
<svg version="1.1" id="Layer_1" xmlns="http://www.w3.org/2000/svg" xmlns:xlink="http://www.w3.org/1999/xlink" x="0px" y="0px"
	 viewBox="0 0 73 31.5" style="enable-background:new 0 0 73 31.5;" xml:space="preserve">
<style type="text/css">
	.st0{fill:#FFFFFF;}
	.st1{fill:#B08F53;}
</style>
<g>
	<path class="st0" d="M5.3633003,3.1984005c-1.9950008,0-3.6170006,1.6219997-3.6170006,3.6169987V22.218399
		c0,1.9940014,1.6219997,3.6170006,3.6170006,3.6170006h15.4029999c1.9939995,0,3.6169987-1.6229992,3.6169987-3.6170006V6.8153992
		c0-1.9949989-1.6229992-3.6169987-3.6169987-3.6169987H5.3633003z M20.7663002,27.5813999H5.3633003
		c-2.9570007,0-5.3630009-2.4060001-5.3630009-5.3630009V6.8153992c0-2.9569988,2.4060001-5.362999,5.3630009-5.362999h15.4029999
		c2.9569988,0,5.362999,2.4060001,5.362999,5.362999V22.218399C26.1292992,25.1753998,23.723299,27.5813999,20.7663002,27.5813999"
		/>
	<path class="st0" d="M5.4635,23.0914001c-0.223,0-0.447-0.0849991-0.6170001-0.2560005
		c-0.3410001-0.3409996-0.3410001-0.8929977,0-1.2339993L20.2495003,6.197401c0.3409996-0.3410015,0.8929996-0.3410015,1.2339993,0
		c0.3409996,0.3409996,0.3409996,0.8939991,0,1.2349987L6.0804996,22.8353996
		C5.9104996,23.0064011,5.6864996,23.0914001,5.4635,23.0914001"/>
	<path class="st0" d="M20.9099998,12.8745995c-0.4820004,0-0.8730011-0.3909988-0.8730011-0.8729992V6.7635994
		c0-0.4829998,0.3910007-0.8729992,0.8730011-0.8729992c0.4819984,0,0.8729992,0.3899994,0.8729992,0.8729992v5.2380009
		C21.782999,12.4836006,21.3919983,12.8745995,20.9099998,12.8745995"/>
	<path class="st0" d="M5.3196998,23.101799c-0.4820004,0-0.8730001-0.3909988-0.8730001-0.8729973v-5.2380009
		c0-0.4829998,0.3909998-0.8730011,0.8730001-0.8730011s0.8729997,0.3900013,0.8729997,0.8730011v5.2380009
		C6.1926994,22.7108002,5.8016996,23.101799,5.3196998,23.101799"/>
	<path class="st0" d="M10.6204004,23.1641998H5.3824005c-0.4830003,0-0.8730001-0.3909988-0.8730001-0.8729992
		s0.3899999-0.8729992,0.8730001-0.8729992h5.2379999c0.4819994,0,0.8729992,0.3909988,0.8729992,0.8729992
		S11.1023998,23.1641998,10.6204004,23.1641998"/>
	<path class="st0" d="M20.9099998,7.6362991h-5.2379999c-0.4830008,0-0.8730001-0.3909988-0.8730001-0.8729992
		s0.3899994-0.8729992,0.8730001-0.8729992h5.2379999c0.4819984,0,0.8729992,0.3909988,0.8729992,0.8729992
		S21.3919983,7.6362991,20.9099998,7.6362991"/>
</g>
<g>
	<path class="st1" d="M37.1601562,17.4921875c-1.5742188,0-2.9106445-0.3203125-4.0107422-0.9599609
		c-1.1000977-0.640625-1.6499023-1.5732422-1.6499023-2.7998047c0-0.7333984,0.25-1.4003906,0.75-2
		c0.5-0.6005859,1.1499023-1.0537109,1.9501953-1.3603516c-1.6538086-0.6269531-2.4799805-1.6601562-2.4799805-3.1005859
		c0-0.6123047,0.15625-1.15625,0.4697266-1.6298828c0.3129883-0.4726562,0.7368164-0.8466797,1.2700195-1.1201172
		c0.5332031-0.2724609,1.1132812-0.4765625,1.7402344-0.609375c0.6264648-0.1328125,1.2797852-0.2001953,1.9604492-0.2001953
		c0.9326172,0,1.7929688,0.1132812,2.5791016,0.3398438c0.7861328,0.2275391,1.4599609,0.6171875,2.0205078,1.1699219
		c0.5595703,0.5537109,0.8398438,1.2373047,0.8398438,2.0498047c0,1.4277344-0.8339844,2.4609375-2.5,3.1005859
		c0.7998047,0.3066406,1.4492188,0.7597656,1.9492188,1.3603516c0.5,0.5996094,0.75,1.2666016,0.75,2
		c0,0.8261719-0.2763672,1.5332031-0.8291016,2.1191406c-0.5537109,0.5869141-1.2431641,1.0068359-2.0703125,1.2607422
		C39.0722656,17.3652344,38.1601562,17.4921875,37.1601562,17.4921875z M37.1601562,14.6318359
		c0.6259766,0,1.1425781-0.1201172,1.5488281-0.3603516c0.4072266-0.2392578,0.6103516-0.5527344,0.6103516-0.9394531
		c0-0.3730469-0.2333984-0.6835938-0.7001953-0.9296875c-0.4667969-0.2470703-0.953125-0.4033203-1.4589844-0.4707031
		c-0.5205078,0.0673828-1.0107422,0.2236328-1.4707031,0.4707031c-0.4599609,0.2460938-0.6899414,0.5566406-0.6899414,0.9296875
		c0,0.3867188,0.2001953,0.7001953,0.6000977,0.9394531C35.9995117,14.5117188,36.5195312,14.6318359,37.1601562,14.6318359z
		 M37.1601562,9.0322266c0.4921875-0.0664062,0.9355469-0.2099609,1.3291016-0.4306641
		c0.3935547-0.2197266,0.5908203-0.4960938,0.5908203-0.8300781c0-0.3730469-0.1777344-0.6660156-0.53125-0.8798828
		c-0.3525391-0.2128906-0.8164062-0.3193359-1.3886719-0.3193359c-0.5874023,0-1.0576172,0.1064453-1.4106445,0.3193359
		c-0.3535156,0.2138672-0.5297852,0.5068359-0.5297852,0.8798828c0,0.3339844,0.199707,0.6103516,0.5996094,0.8300781
		C36.2197266,8.8222656,36.6660156,8.9658203,37.1601562,9.0322266z"/>
	<path class="st1" d="M48.5390625,17.4716797c-1.6269531,0-2.9726562-0.4267578-4.0390625-1.2792969l1.4794922-2.640625
		c0.7197266,0.5869141,1.5732422,0.8798828,2.5595703,0.8798828c0.9335938,0,1.6875-0.2958984,2.2597656-0.8896484
		c0.5742188-0.5927734,0.8603516-1.3095703,0.8603516-2.1503906v-0.1591797
		c-0.3330078,0.453125-0.796875,0.8232422-1.3896484,1.109375c-0.59375,0.2871094-1.2167969,0.4296875-1.8701172,0.4296875
		c-1.2666016,0-2.3564453-0.3925781-3.2705078-1.1796875c-0.9130859-0.7861328-1.3691406-1.859375-1.3691406-3.2197266
		c0-1.3730469,0.5-2.4970703,1.5-3.3701172s2.2734375-1.3095703,3.8203125-1.3095703
		c2.0117188,0,3.5253906,0.6367188,4.5390625,1.9091797c1.0136719,1.2734375,1.5195312,2.9306641,1.5195312,4.9707031
		c0,2.1201172-0.5927734,3.7998047-1.7792969,5.0400391C52.171875,16.8515625,50.5664062,17.4716797,48.5390625,17.4716797z
		 M49.4199219,9.8320312c0.9326172,0,1.6796875-0.2998047,2.2392578-0.9003906
		c-0.0400391-0.6132812-0.2568359-1.1328125-0.6494141-1.5595703c-0.3945312-0.4267578-0.9707031-0.6396484-1.7304688-0.6396484
		c-0.5996094,0-1.0869141,0.1533203-1.4599609,0.4599609c-0.3740234,0.3066406-0.5595703,0.6591797-0.5595703,1.0595703
		c0,0.5195312,0.2167969,0.9130859,0.6494141,1.1796875C48.3417969,9.6992188,48.8457031,9.8320312,49.4199219,9.8320312z"/>
	<path class="st1" d="M59.5996094,10.3916016c-1.0273438,0-1.8603516-0.3164062-2.5-0.9492188
		c-0.640625-0.6337891-0.9609375-1.4238281-0.9609375-2.3701172c0-0.9599609,0.3203125-1.7607422,0.9609375-2.4003906
		c0.6396484-0.6396484,1.4726562-0.9599609,2.5-0.9599609c1.0527344,0,1.9023438,0.3203125,2.5498047,0.9599609
		c0.6464844,0.6396484,0.9697266,1.4404297,0.9697266,2.4003906c0,0.9462891-0.3232422,1.7363281-0.9697266,2.3701172
		C61.5019531,10.0751953,60.6523438,10.3916016,59.5996094,10.3916016z M58.6289062,8.1621094
		c0.2470703,0.2597656,0.5703125,0.3896484,0.9707031,0.3896484c0.3994141,0,0.7294922-0.1298828,0.9902344-0.3896484
		c0.2597656-0.2597656,0.3886719-0.6230469,0.3886719-1.0898438c0-0.4804688-0.1289062-0.8535156-0.3886719-1.1201172
		c-0.2607422-0.2666016-0.5908203-0.4003906-0.9902344-0.4003906c-0.4003906,0-0.7236328,0.1337891-0.9707031,0.4003906
		c-0.2460938,0.2666016-0.3691406,0.6396484-0.3691406,1.1201172C58.2597656,7.5390625,58.3828125,7.9023438,58.6289062,8.1621094z
		 M59.9990234,17.2519531h-1.7197266l8.5195312-13.3398438h1.7402344L59.9990234,17.2519531z M67.1386719,17.4921875
		c-1.0263672,0-1.859375-0.3164062-2.5-0.9501953c-0.6396484-0.6328125-0.9589844-1.4228516-0.9589844-2.3701172
		c0-0.9599609,0.3193359-1.7597656,0.9589844-2.4003906c0.640625-0.6396484,1.4736328-0.9599609,2.5-0.9599609
		c1.0410156,0,1.8837891,0.3203125,2.53125,0.9599609c0.6464844,0.640625,0.96875,1.4404297,0.96875,2.4003906
		c0,0.9472656-0.3222656,1.7373047-0.96875,2.3701172C69.0224609,17.1757812,68.1796875,17.4921875,67.1386719,17.4921875z
		 M67.1386719,15.6523438c0.4140625,0,0.7470703-0.1269531,1-0.3808594
		c0.2539062-0.2529297,0.3808594-0.6191406,0.3808594-1.0996094c0-0.4794922-0.1308594-0.8535156-0.390625-1.1201172
		s-0.5898438-0.3994141-0.9902344-0.3994141c-0.3994141,0-0.7226562,0.1328125-0.96875,0.3994141
		c-0.2480469,0.2666016-0.3710938,0.640625-0.3710938,1.1201172c0,0.4804688,0.1230469,0.8466797,0.3710938,1.0996094
		C66.4160156,15.5253906,66.7392578,15.6523438,67.1386719,15.6523438z"/>
</g>
<g>
	<path class="st0" d="M42.5878906,28.0517578h-3.5361328v-6.0029297h0.7470703v5.3369141h2.7890625V28.0517578z"/>
	<path class="st0" d="M46.890625,28.0517578h-0.6748047v-0.4951172c-0.3662109,0.4023438-0.8466797,0.6035156-1.4404297,0.6035156
		c-0.4023438,0-0.7558594-0.1289062-1.0615234-0.3876953c-0.3056641-0.2578125-0.4589844-0.6083984-0.4589844-1.0527344
		c0-0.4560547,0.1513672-0.8085938,0.4541016-1.0576172s0.6582031-0.3730469,1.0664062-0.3730469
		c0.6181641,0,1.0976562,0.1972656,1.4404297,0.59375v-0.7832031c0-0.2880859-0.1025391-0.5126953-0.3056641-0.6748047
		c-0.2050781-0.1621094-0.46875-0.2431641-0.7929688-0.2431641c-0.5097656,0-0.953125,0.2011719-1.3320312,0.6035156
		l-0.3144531-0.46875c0.4619141-0.4794922,1.0410156-0.7197266,1.7363281-0.7197266
		c0.4980469,0,0.9042969,0.1201172,1.2158203,0.3603516s0.4677734,0.6083984,0.4677734,1.1064453V28.0517578z
		 M45.0185547,27.6738281c0.5400391,0,0.9384766-0.1796875,1.1972656-0.5400391v-0.8193359
		c-0.2587891-0.359375-0.6572266-0.5400391-1.1972656-0.5400391c-0.3115234,0-0.5683594,0.0888672-0.7695312,0.265625
		c-0.2001953,0.1777344-0.3017578,0.4072266-0.3017578,0.6884766c0,0.2763672,0.1015625,0.5029297,0.3017578,0.6796875
		C44.4501953,27.5849609,44.7070312,27.6738281,45.0185547,27.6738281z"/>
	<path class="st0" d="M48.9160156,28.0517578h-0.6757812v-4.3466797h0.6757812v0.7021484
		c0.4013672-0.5283203,0.8847656-0.7919922,1.4482422-0.7919922v0.6923828
		c-0.0839844-0.0175781-0.1738281-0.0273438-0.2705078-0.0273438c-0.203125,0-0.4257812,0.0722656-0.6660156,0.2167969
		c-0.2392578,0.1435547-0.4101562,0.3027344-0.5117188,0.4765625V28.0517578z"/>
	<path class="st0" d="M52.9560547,29.8154297c-0.3837891,0-0.7109375-0.0458984-0.9814453-0.1396484
		c-0.2695312-0.0927734-0.5273438-0.2617188-0.7734375-0.5078125l0.3417969-0.5039062
		c0.3300781,0.3955078,0.8007812,0.59375,1.4130859,0.59375c0.4013672,0,0.7353516-0.1064453,0.9990234-0.3193359
		s0.3964844-0.5419922,0.3964844-0.9853516v-0.6210938c-0.1621094,0.2275391-0.3730469,0.4140625-0.6308594,0.5576172
		c-0.2578125,0.1445312-0.5332031,0.2158203-0.828125,0.2158203c-0.5751953,0-1.0419922-0.2021484-1.3984375-0.6074219
		c-0.3574219-0.4052734-0.5361328-0.9521484-0.5361328-1.6425781c0-0.6894531,0.1787109-1.2382812,0.5361328-1.6464844
		c0.3564453-0.4082031,0.8232422-0.6123047,1.3984375-0.6123047c0.5947266,0,1.0800781,0.2548828,1.4589844,0.7646484v-0.65625
		h0.6748047v4.2207031c0,0.6660156-0.1953125,1.1474609-0.5849609,1.4443359
		C54.0507812,29.6669922,53.5566406,29.8154297,52.9560547,29.8154297z M53.0546875,27.5117188
		c0.2578125,0,0.5087891-0.0693359,0.7519531-0.2070312s0.4238281-0.3056641,0.5449219-0.5039062v-1.8994141
		c-0.1210938-0.1972656-0.3007812-0.3642578-0.5410156-0.4990234c-0.2392578-0.1347656-0.4912109-0.2021484-0.7558594-0.2021484
		c-0.4316406,0-0.7714844,0.1523438-1.0214844,0.4589844c-0.2480469,0.3056641-0.3730469,0.7050781-0.3730469,1.1962891
		c0,0.4863281,0.1259766,0.8837891,0.3779297,1.1923828C52.2900391,27.3574219,52.6289062,27.5117188,53.0546875,27.5117188z"/>
	<path class="st0" d="M58.3378906,28.1601562c-0.6484375,0-1.1787109-0.2119141-1.5927734-0.6347656
		s-0.6210938-0.9736328-0.6210938-1.6513672c0-0.6357422,0.2041016-1.1748047,0.6123047-1.6162109
		c0.4082031-0.4404297,0.9179688-0.6611328,1.5292969-0.6611328c0.6425781,0,1.1503906,0.2207031,1.5253906,0.6611328
		c0.375,0.4414062,0.5625,0.9980469,0.5625,1.6699219v0.1708984h-3.5185547
		c0.0302734,0.4257812,0.1865234,0.7832031,0.4677734,1.0712891c0.2822266,0.2880859,0.6484375,0.4316406,1.0986328,0.4316406
		c0.5400391,0,0.9873047-0.1826172,1.3408203-0.5488281l0.3242188,0.4414062
		C59.6220703,27.9375,59.0458984,28.1601562,58.3378906,28.1601562z M59.6875,25.6035156
		c-0.0058594-0.3720703-0.1308594-0.7060547-0.3769531-1.0029297s-0.5976562-0.4462891-1.0527344-0.4462891
		c-0.4326172,0-0.7734375,0.1474609-1.0214844,0.4414062c-0.25,0.2939453-0.3828125,0.6298828-0.4013672,1.0078125H59.6875z"/>
	<path class="st0" d="M62.1181641,28.0517578h-0.6748047v-4.3466797h0.6748047v0.7021484
		c0.4013672-0.5283203,0.8847656-0.7919922,1.4482422-0.7919922v0.6923828
		c-0.0839844-0.0175781-0.1738281-0.0273438-0.2695312-0.0273438c-0.203125,0-0.4257812,0.0722656-0.6660156,0.2167969
		c-0.2402344,0.1435547-0.4101562,0.3027344-0.5126953,0.4765625V28.0517578z"/>
</g>
</svg>
