<?xml version="1.0" encoding="utf-8"?>
<!-- Generator: Adobe Illustrator 26.3.1, SVG Export Plug-In . SVG Version: 6.00 Build 0)  -->
<svg version="1.1" id="Layer_1" xmlns="http://www.w3.org/2000/svg" xmlns:xlink="http://www.w3.org/1999/xlink" x="0px" y="0px"
	 viewBox="0 0 73 31.5" style="enable-background:new 0 0 73 31.5;" xml:space="preserve">
<style type="text/css">
	.st0{fill:#FFFFFF;}
	.st1{fill:#B08F53;}
</style>
<g>
	<g>
		<path class="st0" d="M5.0260444,4.5633869c-1.9950008,0-3.6170006,1.6219997-3.6170006,3.6169987v15.4030018
			c0,1.9939995,1.6219997,3.6169987,3.6170006,3.6169987h15.4029999c1.9939995,0,3.6169987-1.6229992,3.6169987-3.6169987V8.1803856
			c0-1.9949989-1.6229992-3.6169987-3.6169987-3.6169987H5.0260444z M20.4290447,28.9463863H5.0260444
			c-2.9570007,0-5.3630009-2.4060001-5.3630009-5.362999V8.1803856c0-2.9569988,2.4060001-5.362999,5.3630009-5.362999h15.4029999
			c2.9569988,0,5.362999,2.4060001,5.362999,5.362999v15.4030018
			C25.7920437,26.5403862,23.3860435,28.9463863,20.4290447,28.9463863"/>
	</g>
	<g>
		<path class="st0" d="M4.2127442,16.7933865c-0.4820004,0-0.8730001-0.3909988-0.8730001-0.8729992
			s0.3909998-0.8729992,0.8730001-0.8729992h17.0440006c0.4819984,0,0.8729992,0.3909988,0.8729992,0.8729992
			s-0.3910007,0.8729992-0.8729992,0.8729992H4.2127442z"/>
	</g>
	<g>
		<path class="st0" d="M7.8494439,20.4912872c-0.223,0-0.447-0.0849991-0.6170001-0.2560005l-3.704-3.7040005
			c-0.3410001-0.3409996-0.3410001-0.8939991,0-1.2339993c0.3410001-0.3409996,0.8930001-0.3409996,1.2340002,0l3.703999,3.7040005
			c0.3409996,0.3409996,0.3409996,0.8929996,0,1.2339993C8.296443,20.4062881,8.072443,20.4912872,7.8494439,20.4912872"/>
	</g>
	<g>
		<path class="st0" d="M21.3657436,16.6990871c-0.2230015,0-0.4470005-0.0849991-0.6170006-0.2560005l-3.7040005-3.7040005
			c-0.3409996-0.3409996-0.3409996-0.8929996-0.0009995-1.2339993c0.3409996-0.3409996,0.8939991-0.3409996,1.2350006,0
			l3.7039986,3.7040005c0.3409996,0.3409996,0.3409996,0.8929996,0,1.2339993
			C21.8127422,16.6140881,21.5887432,16.6990871,21.3657436,16.6990871"/>
	</g>
	<g>
		<path class="st0" d="M17.661644,20.4912872c-0.2230015,0-0.4470005-0.0849991-0.6170006-0.2560005
			c-0.3409996-0.3409996-0.3409996-0.8929996,0-1.2339993l3.7040005-3.7040005c0.3409996-0.3409996,0.8939991-0.3409996,1.2349987,0
			c0.3400002,0.3409996,0.3400002,0.8929996-0.0009995,1.2339993l-3.7040005,3.7040005
			C18.1086426,20.4062881,17.8846436,20.4912872,17.661644,20.4912872"/>
	</g>
	<g>
		<path class="st0" d="M4.1454439,16.7872868c-0.223,0-0.447-0.0849991-0.6170001-0.2559986
			c-0.3410001-0.3409996-0.3410001-0.8929996,0-1.2340012l3.704-3.7039986c0.3410001-0.3410015,0.8929996-0.3410015,1.2339993,0
			c0.3410006,0.3399982,0.3410006,0.8929996,0,1.2339993l-3.7039995,3.7040005
			C4.5924435,16.7022877,4.3684435,16.7872868,4.1454439,16.7872868"/>
	</g>
</g>
<g>
	<path class="st1" d="M39.6557617,17.487793h-3.4599609v-2.4404297H29.815918v-2.6796875l5.0600586-8.2197266h4.7797852v7.8798828
		h1.6201172v3.0195312h-1.6201172V17.487793z M36.1958008,12.027832V7.1479492l-3.0400391,4.8798828H36.1958008z"/>
	<path class="st1" d="M47.8759766,17.7280273c-1.5737305,0-2.9101562-0.3203125-4.0102539-0.9599609
		c-1.1000977-0.640625-1.6499023-1.5732422-1.6499023-2.7998047c0-0.7333984,0.25-1.4003906,0.75-2
		c0.5-0.6005859,1.1499023-1.0537109,1.9501953-1.3603516c-1.6538086-0.6269531-2.4799805-1.6601562-2.4799805-3.1005859
		c0-0.6123047,0.15625-1.15625,0.4697266-1.6298828c0.3129883-0.4726562,0.7368164-0.8466797,1.2700195-1.1201172
		c0.5332031-0.2724609,1.1132812-0.4765625,1.7402344-0.609375c0.6264648-0.1328125,1.2797852-0.2001953,1.9599609-0.2001953
		c0.9331055,0,1.7929688,0.1132812,2.5795898,0.3398438c0.7866211,0.2275391,1.4604492,0.6171875,2.0200195,1.1699219
		c0.5600586,0.5537109,0.840332,1.2373047,0.840332,2.0498047c0,1.4277344-0.8334961,2.4609375-2.5,3.1005859
		c0.7998047,0.3066406,1.449707,0.7597656,1.949707,1.3603516c0.5,0.5996094,0.75,1.2666016,0.75,2
		c0,0.8261719-0.2768555,1.5332031-0.8295898,2.1191406c-0.5537109,0.5869141-1.2436523,1.0068359-2.0703125,1.2607422
		C49.7890625,17.6010742,48.8759766,17.7280273,47.8759766,17.7280273z M47.8759766,14.8676758
		c0.6264648,0,1.1430664-0.1201172,1.5498047-0.3603516c0.4067383-0.2392578,0.6098633-0.5527344,0.6098633-0.9394531
		c0-0.3730469-0.2333984-0.6835938-0.699707-0.9296875c-0.4667969-0.2470703-0.9536133-0.4033203-1.4599609-0.4707031
		c-0.5200195,0.0673828-1.0102539,0.2236328-1.4702148,0.4707031c-0.4599609,0.2460938-0.6899414,0.5566406-0.6899414,0.9296875
		c0,0.3867188,0.2001953,0.7001953,0.6000977,0.9394531C46.7158203,14.7475586,47.2358398,14.8676758,47.8759766,14.8676758z
		 M47.8759766,9.2680664c0.4931641-0.0664062,0.9365234-0.2099609,1.3295898-0.4306641
		c0.3935547-0.2197266,0.590332-0.4960938,0.590332-0.8300781c0-0.3730469-0.1767578-0.6660156-0.5302734-0.8798828
		c-0.3530273-0.2128906-0.8168945-0.3193359-1.3896484-0.3193359c-0.5869141,0-1.0571289,0.1064453-1.4101562,0.3193359
		c-0.3535156,0.2138672-0.5297852,0.5068359-0.5297852,0.8798828c0,0.3339844,0.199707,0.6103516,0.5996094,0.8300781
		C46.9360352,9.0581055,47.3823242,9.2016602,47.8759766,9.2680664z"/>
	<path class="st1" d="M57.9755859,10.6274414c-1.0268555,0-1.8598633-0.3164062-2.5-0.9492188
		c-0.6401367-0.6337891-0.9599609-1.4238281-0.9599609-2.3701172c0-0.9599609,0.3198242-1.7607422,0.9599609-2.4003906
		s1.4731445-0.9599609,2.5-0.9599609c1.0532227,0,1.9033203,0.3203125,2.550293,0.9599609
		c0.6464844,0.6396484,0.9697266,1.4404297,0.9697266,2.4003906c0,0.9462891-0.3232422,1.7363281-0.9697266,2.3701172
		C59.8789062,10.3110352,59.0288086,10.6274414,57.9755859,10.6274414z M57.0058594,8.3979492
		c0.246582,0.2597656,0.5698242,0.3896484,0.9697266,0.3896484s0.7299805-0.1298828,0.9902344-0.3896484
		c0.2597656-0.2597656,0.3896484-0.6230469,0.3896484-1.0898438c0-0.4804688-0.1298828-0.8535156-0.3896484-1.1201172
		c-0.2602539-0.2666016-0.590332-0.4003906-0.9902344-0.4003906s-0.7231445,0.1337891-0.9697266,0.4003906
		c-0.2470703,0.2666016-0.3701172,0.6396484-0.3701172,1.1201172C56.6357422,7.7749023,56.7587891,8.1381836,57.0058594,8.3979492z
		 M58.3754883,17.487793h-1.7197266l8.5200195-13.3398438h1.7397461L58.3754883,17.487793z M65.515625,17.7280273
		c-1.0268555,0-1.8598633-0.3164062-2.5-0.9501953c-0.6401367-0.6328125-0.9599609-1.4228516-0.9599609-2.3701172
		c0-0.9599609,0.3198242-1.7597656,0.9599609-2.4003906c0.6401367-0.6396484,1.4731445-0.9599609,2.5-0.9599609
		c1.0400391,0,1.8833008,0.3203125,2.5302734,0.9599609c0.6464844,0.640625,0.9697266,1.4404297,0.9697266,2.4003906
		c0,0.9472656-0.3232422,1.7373047-0.9697266,2.3701172C67.3989258,17.4116211,66.5556641,17.7280273,65.515625,17.7280273z
		 M65.515625,15.8881836c0.4130859,0,0.746582-0.1269531,1-0.3808594c0.2529297-0.2529297,0.3798828-0.6191406,0.3798828-1.0996094
		c0-0.4794922-0.1298828-0.8535156-0.3896484-1.1201172c-0.2602539-0.2666016-0.590332-0.3994141-0.9902344-0.3994141
		s-0.7236328,0.1328125-0.9697266,0.3994141c-0.2470703,0.2666016-0.3701172,0.640625-0.3701172,1.1201172
		c0,0.4804688,0.1230469,0.8466797,0.3701172,1.0996094C64.7919922,15.7612305,65.1157227,15.8881836,65.515625,15.8881836z"/>
</g>
<g>
	<path class="st0" d="M39.809082,28.2875977h-3.5366211V22.284668h0.7470703v5.3369141h2.7895508V28.2875977z"/>
	<path class="st0" d="M44.1162109,27.7387695c-0.3930664,0.4375-0.9135742,0.6572266-1.5615234,0.6572266
		c-0.6484375,0-1.1689453-0.2197266-1.5615234-0.6572266c-0.3930664-0.4384766-0.5898438-0.9814453-0.5898438-1.6289062
		c0-0.6484375,0.1967773-1.1894531,0.5898438-1.625c0.3925781-0.4345703,0.9130859-0.6523438,1.5615234-0.6523438
		c0.6479492,0,1.168457,0.2177734,1.5615234,0.6523438c0.3925781,0.4355469,0.5893555,0.9765625,0.5893555,1.625
		C44.7055664,26.7573242,44.5087891,27.300293,44.1162109,27.7387695z M41.4970703,27.3022461
		c0.2607422,0.3271484,0.6132812,0.4902344,1.0576172,0.4902344c0.4438477,0,0.7949219-0.1630859,1.0527344-0.4902344
		s0.387207-0.7246094,0.387207-1.1923828c0-0.46875-0.1293945-0.8642578-0.387207-1.1884766
		s-0.6088867-0.4853516-1.0527344-0.4853516c-0.4443359,0-0.796875,0.1630859-1.0576172,0.4902344
		c-0.2612305,0.3271484-0.3916016,0.7216797-0.3916016,1.1835938
		C41.1054688,26.5776367,41.2358398,26.9750977,41.4970703,27.3022461z"/>
	<path class="st0" d="M49.4125977,28.2875977h-0.675293v-2.84375c0-0.3662109-0.0839844-0.6259766-0.2519531-0.7783203
		c-0.1679688-0.1533203-0.4082031-0.2294922-0.7197266-0.2294922c-0.2524414,0-0.496582,0.0654297-0.7338867,0.1972656
		c-0.2368164,0.1328125-0.4213867,0.2910156-0.5532227,0.4775391v3.1767578h-0.675293V23.940918h0.675293v0.6298828
		c0.1679688-0.1982422,0.3925781-0.3710938,0.6748047-0.5175781c0.2822266-0.1474609,0.5732422-0.2207031,0.8730469-0.2207031
		c0.9238281,0,1.3862305,0.4677734,1.3862305,1.4042969V28.2875977z"/>
	<path class="st0" d="M52.5078125,30.0512695c-0.3837891,0-0.7109375-0.0458984-0.980957-0.1396484
		c-0.2700195-0.0927734-0.527832-0.2617188-0.7739258-0.5078125l0.3417969-0.5039062
		c0.3300781,0.3955078,0.8012695,0.59375,1.4130859,0.59375c0.4018555,0,0.7348633-0.1064453,0.9990234-0.3193359
		s0.3959961-0.5419922,0.3959961-0.9853516v-0.6210938c-0.1621094,0.2275391-0.3720703,0.4140625-0.6298828,0.5576172
		c-0.2583008,0.1445312-0.5341797,0.2158203-0.828125,0.2158203c-0.5756836,0-1.0424805-0.2021484-1.3994141-0.6074219
		s-0.5356445-0.9521484-0.5356445-1.6425781c0-0.6894531,0.1787109-1.2382812,0.5356445-1.6464844
		s0.8237305-0.6123047,1.3994141-0.6123047c0.5942383,0,1.0800781,0.2548828,1.4580078,0.7646484v-0.65625h0.675293v4.2207031
		c0,0.6660156-0.1953125,1.1474609-0.5854492,1.4443359C53.6030273,29.902832,53.1079102,30.0512695,52.5078125,30.0512695z
		 M52.6069336,27.7475586c0.2578125,0,0.5083008-0.0693359,0.7514648-0.2070312s0.4243164-0.3056641,0.5444336-0.5039062V25.137207
		c-0.1201172-0.1972656-0.2998047-0.3642578-0.5400391-0.4990234c-0.2397461-0.1347656-0.4916992-0.2021484-0.7558594-0.2021484
		c-0.4321289,0-0.7724609,0.1523438-1.0214844,0.4589844c-0.2490234,0.3056641-0.3735352,0.7050781-0.3735352,1.1962891
		c0,0.4863281,0.1259766,0.8837891,0.3779297,1.1923828C51.8417969,27.5932617,52.1806641,27.7475586,52.6069336,27.7475586z"/>
	<path class="st0" d="M57.8901367,28.3959961c-0.6484375,0-1.1791992-0.2119141-1.5932617-0.6347656
		s-0.6210938-0.9736328-0.6210938-1.6513672c0-0.6357422,0.2041016-1.1748047,0.6123047-1.6162109
		c0.4077148-0.4404297,0.9179688-0.6611328,1.5297852-0.6611328c0.6420898,0,1.1503906,0.2207031,1.5253906,0.6611328
		c0.375,0.4414062,0.5625,0.9980469,0.5625,1.6699219v0.1708984h-3.519043
		c0.0302734,0.4257812,0.1860352,0.7832031,0.4682617,1.0712891c0.2817383,0.2880859,0.6479492,0.4316406,1.0981445,0.4316406
		c0.5400391,0,0.9868164-0.1826172,1.3408203-0.5488281l0.3242188,0.4414062
		C59.1738281,28.1733398,58.5976562,28.3959961,57.8901367,28.3959961z M59.2397461,25.8393555
		c-0.0058594-0.3720703-0.1318359-0.7060547-0.3779297-1.0029297s-0.597168-0.4462891-1.0527344-0.4462891
		c-0.4321289,0-0.7729492,0.1474609-1.0214844,0.4414062c-0.2490234,0.2939453-0.3828125,0.6298828-0.4008789,1.0078125H59.2397461z
		"/>
	<path class="st0" d="M61.6699219,28.2875977h-0.675293V23.940918h0.675293v0.7021484
		c0.4018555-0.5283203,0.8847656-0.7919922,1.4487305-0.7919922v0.6923828
		c-0.0839844-0.0175781-0.1738281-0.0273438-0.2700195-0.0273438c-0.2036133,0-0.4257812,0.0722656-0.6660156,0.2167969
		c-0.2397461,0.1435547-0.4106445,0.3027344-0.5126953,0.4765625V28.2875977z"/>
</g>
</svg>
