<?xml version="1.0" encoding="utf-8"?>
<!-- Generator: Adobe Illustrator 24.3.0, SVG Export Plug-In . SVG Version: 6.00 Build 0)  -->
<svg version="1.1" xmlns="http://www.w3.org/2000/svg" xmlns:xlink="http://www.w3.org/1999/xlink" x="0px" y="0px"
	 viewBox="0 0 55.8766251 52.8839989" style="enable-background:new 0 0 55.8766251 52.8839989;" xml:space="preserve">
<style type="text/css">
	.st0{fill:#0E3866;}
</style>
<g id="Layer_1">
</g>
<g id="Layer_2">
	<g>
		<path class="st0" d="M3.3156581,52.306263c-0.255445,0-0.51089-0.0970764-0.7070091-0.2907448
			c-0.3937087-0.3907661-0.3966506-1.0261917-0.0063736-1.4203911L51.7997131,0.9529886
			c0.3892937-0.3941993,1.0247231-0.3956702,1.4199028-0.0063739c0.3932152,0.3907672,0.3961601,1.0261927,0.0058823,1.420392
			L4.0290413,52.0091438C3.8324318,52.2072258,3.5740449,52.306263,3.3156581,52.306263z"/>
	</g>
	<g>
		<path class="st0" d="M26.1380291,9.0012226c-0.5545273,0-1.0041294-0.4496021-1.0041294-1.0041289v-6.325819
			c0-0.5545264,0.4496021-1.0041294,1.0041294-1.0041294c0.5545254,0,1.0041294,0.4496029,1.0041294,1.0041294v6.325819
			C27.1421585,8.5516205,26.6925545,9.0012226,26.1380291,9.0012226z"/>
	</g>
	<g>
		<path class="st0" d="M9.5792093,25.5095425H3.2529001c-0.5545266,0-1.0041294-0.449604-1.0041294-1.0041294
			c0-0.5545273,0.4496028-1.0041294,1.0041294-1.0041294h6.3263092c0.5545263,0,1.0041294,0.4496021,1.0041294,1.0041294
			C10.5833387,25.0599384,10.1337357,25.5095425,9.5792093,25.5095425z"/>
	</g>
	<g>
		<path class="st0" d="M17.8863201,11.2247219c-0.3471298,0-0.684454-0.1799393-0.8707676-0.5020647L13.852643,5.2445631
			c-0.2770185-0.4804916-0.1127682-1.0943441,0.3677235-1.3718526c0.4790201-0.2784891,1.093853-0.1122782,1.3718519,0.3677232
			l3.1629105,5.4780941c0.2770176,0.4800014,0.1127682,1.0943441-0.3677235,1.3718529
			C18.2295284,11.1815758,18.0564537,11.2247219,17.8863201,11.2247219z"/>
	</g>
	<g>
		<path class="st0" d="M6.3216724,36.9638748c-0.3471308,0-0.6844554-0.1799393-0.8707685-0.5020676
			c-0.2770181-0.4804916-0.1127682-1.0943413,0.3677235-1.3718529l5.4785843-3.1629086
			c0.4804916-0.2784882,1.093854-0.1127682,1.3718529,0.3677235c0.2770185,0.4804916,0.1127682,1.0943451-0.3677235,1.3718529
			l-5.4785843,3.1629105C6.6643906,36.9207268,6.4918056,36.9638748,6.3216724,36.9638748z"/>
	</g>
	<g>
		<path class="st0" d="M34.4951515,11.1472549c-0.1706238,0-0.3432083-0.0431461-0.5010834-0.1343412
			c-0.4804916-0.2775087-0.6452332-0.8918514-0.3677254-1.3718529l3.1633987-5.4785843
			c0.2775116-0.4804919,0.8913612-0.6447415,1.3718529-0.3677235c0.4804916,0.2775087,0.6452332,0.8918514,0.3677254,1.3718529
			l-3.1634026,5.4785843C35.1796074,10.9673157,34.8422813,11.1472549,34.4951515,11.1472549z"/>
	</g>
	<g>
		<path class="st0" d="M11.9012585,17.1641865c-0.1701326,0-0.3427181-0.0431461-0.5010843-0.1343403l-5.4785843-3.1629105
			c-0.4804916-0.2775087-0.6447415-0.8913612-0.3677235-1.3718529s0.8898902-0.6457214,1.3718529-0.3677225l5.4785843,3.1629095
			c0.4804916,0.2775078,0.644742,0.8913612,0.3677235,1.3718529C12.5857143,16.9842472,12.2483892,17.1641865,11.9012585,17.1641865
			z"/>
	</g>
	<path class="st0" d="M53.0656624,28.5229378l-6.3051071-3.5669765l6.1266365-1.6831303
		c0.5354042-0.147089,0.8491974-0.6996555,0.7021065-1.2345695c-0.1461067-0.534914-0.7021065-0.8501759-1.2335892-0.7021065
		l-6.1124153,1.6792088l3.5530624-6.2801609c0.2735863-0.4824524,0.1029625-1.0953245-0.3794899-1.3679295
		c-0.4804916-0.2740765-1.0953255-0.1034527-1.3679314,0.3794899l-4.447979,7.8619213
		c-0.0262909,0.0463333-0.02948,0.0972633-0.0476799,0.1456184l-12.8513737,3.5305099l-1.5257454,1.5257454l-3.3218269,12.8443871
		c-0.0527687,0.0199165-0.1082935,0.0251274-0.1585503,0.0545464l-7.7829819,4.5847702
		c-0.4780407,0.2814293-0.6373882,0.8972435-0.355957,1.374794c0.187294,0.318203,0.5221672,0.494709,0.8663559,0.494709
		c0.1730747,0,0.3486023-0.0446167,0.5084381-0.138752l6.2233467-3.6660156l-1.5875835,6.1385841
		c-0.1387539,0.5368767,0.1838627,1.0850296,0.7207375,1.2237854c0.0843315,0.0215721,0.1691532,0.031868,0.2520142,0.031868
		c0.4471512,0,0.8545876-0.3000603,0.9717693-0.7526054l1.5900345-6.1484566L30.775753,51.08741
		c0.187294,0.3177147,0.521677,0.4942207,0.8658657,0.4942207c0.1735649,0,0.3490925-0.0446167,0.5089283-0.138752
		c0.4775505-0.2819214,0.6364059-0.8972473,0.3549767-1.3752861l-4.5847721-7.7829819
		c-0.0317478-0.053936-0.0805931-0.0883789-0.1201859-0.134037l3.0603161-11.8340054l8.7575722,8.6375713
		c-0.0129318,0.0658836-0.0385513,0.1272316-0.0379372,0.1969757l0.0794296,9.032753
		c0.0049019,0.5515862,0.4530334,0.9953041,1.0041275,0.9953041c0.0029411,0,0.0058823,0,0.0088272,0
		c0.5550156-0.0049019,1.000206-0.4584274,0.9953041-1.0129547l-0.0638008-7.2533379l4.4500008,4.389019
		c0.195137,0.1931801,0.4500923,0.2892761,0.7050476,0.2892761c0.2588768,0,0.518734-0.1000214,0.7148552-0.2990799
		c0.3892975-0.3946915,0.3853722-1.0306053-0.0098076-1.4199028l-4.4285507-4.3678169l7.2055969-0.0630035
		c0.5540352-0.0049019,1.000206-0.4584274,0.9953041-1.0129547c-0.0049019-0.5515823-0.4530334-0.9953041-1.0041275-0.9953041
		c-0.0029449,0-0.0058861,0-0.0088272,0l-9.0322609,0.0789375c-0.0513611,0.0004311-0.0953636,0.0226784-0.1446381,0.0305824
		l-8.7366142-8.6168556l11.7572746-3.2300186c0.0494003,0.0425949,0.088253,0.0942593,0.1471519,0.1275997l7.8624115,4.447979
		c0.1559143,0.0882549,0.3255577,0.1299305,0.4932404,0.1299305c0.350071,0,0.6903381-0.1833725,0.874691-0.5099106
		C53.7187386,29.408905,53.5481148,28.796032,53.0656624,28.5229378z"/>
	<g>
		<path class="st0" d="M19.7873268,30.5346889l12.3172569-12.317255c-1.5962257-1.7489529-3.8870811-2.8529797-6.4415302-2.8529797
			c-4.8207283,0-8.7287064,3.9079781-8.7287064,8.7287674C16.9343472,26.6476707,18.038435,28.9384651,19.7873268,30.5346889z"/>
	</g>
</g>
<g id="Layer_3">
</g>
</svg>
