<?xml version="1.0" encoding="utf-8"?>
<!-- Generator: Adobe Illustrator 24.3.0, SVG Export Plug-In . SVG Version: 6.00 Build 0)  -->
<svg version="1.1" id="Layer_1" xmlns="http://www.w3.org/2000/svg" xmlns:xlink="http://www.w3.org/1999/xlink" x="0px" y="0px"
	 viewBox="0 0 55.8766251 52.8839989" style="enable-background:new 0 0 55.8766251 52.8839989;" xml:space="preserve">
<style type="text/css">
	.st0{fill:#0E3866;}
</style>
<path class="st0" d="M7.4575109,22.44314c0.427002,4.4749985,1.7610016,8.6849976,3.9660034,12.5129986
	c1.7749939,3.0820007,4.1179962,5.9290009,6.9620066,8.461998c4.1109924,3.663002,8.1109924,5.614006,9.2870026,6.1440048
	c1.1749878-0.5299988,5.1749878-2.4800034,9.2869873-6.1440048c2.8440094-2.5329971,5.1860046-5.3799973,6.9620056-8.461998
	c2.2050018-3.828001,3.5390015-8.0380001,3.9660034-12.5129986V6.8091369
	c-1.1959991,0.1830063-3.2620087,0.4050064-5.852005,0.3030014c-3.6620026-0.1449966-9.0859985-0.9970016-14.3889923-4.1920013
	c-5.5670013,3.0070038-10.9600067,3.8670044-14.5450144,4.0530014c-2.5169983,0.1310043-4.4929962-0.038002-5.6439972-0.1889954
	V22.44314z M27.6725235,51.4881363c-0.1170044,0-0.2340088-0.0219955-0.3440094-0.0669937
	c-0.2030029-0.0810013-5.0130005-2.0490036-10.1190033-6.5820007c-3.0029917-2.6660004-5.4799967-5.6689987-7.3620005-8.927002
	c-2.3569946-4.0809994-3.7789917-8.5689983-4.2279968-13.3400021c-0.0029907-0.0279999-0.0039978-0.0569992-0.0039978-0.0859985
	V5.7041411c0-0.2789993,0.1260071-0.5419998,0.3419952-0.7170029c0.2160034-0.1749954,0.5-0.2419968,0.7720032-0.1839981
	c0.0240021,0.0049973,2.5579987,0.5309982,6.3419952,0.3269958c3.4750071-0.1879959,8.750001-1.0469971,14.1500101-4.0799942
	c0.2939911-0.1650009,0.6559906-0.1560058,0.9420013,0.0239944c5.0829926,3.201004,10.3549957,4.0480042,13.8819885,4.1940002
	c3.8510132,0.1600037,6.5250092-0.4549942,6.552002-0.4609985c0.2740021-0.0639954,0.5620117,0,0.7830048,0.1750031
	c0.2200012,0.173996,0.348999,0.4399948,0.348999,0.7220001v16.7819977c0,0.0289993-0.0009918,0.0579987-0.0039978,0.0859985
	c-0.4490051,4.7710037-1.8710022,9.2590027-4.2290039,13.3400021c-1.8820038,3.2580032-4.3580017,6.2610016-7.3609924,8.927002
	c-5.1060028,4.5329971-9.9160004,6.5009995-10.1190033,6.5820007C27.906517,51.4661407,27.7895126,51.4881363,27.6725235,51.4881363
	"/>
<path class="st0" d="M27.8115158,25.3622379c-2.0839996,0-4.1940002,1.0419998-5.7890015,2.8580017
	c-1.6309967,1.8559952-2.5660095,4.3439922-2.5660095,6.8239956c0,0.3150024,0.0410004,0.723999,0.2380066,0.8909988
	c0.4669952,0.3970032,2.1119995,0.1269989,3.5630035-0.1110001c1.3710022-0.2249985,2.9259949-0.4799957,4.571991-0.4799957
	c1.6790009,0,3.2089996,0.2589951,4.5579987,0.4869995c1.3150024,0.2220001,2.8059998,0.473999,3.2070007,0.135994
	c0.1380005-0.1169968,0.2140045-0.4229965,0.2140045-0.862999C35.8085098,29.8232365,32.1465073,25.3622379,27.8115158,25.3622379
	 M20.6395187,37.9822311c-0.8560028,0-1.576004-0.1649933-2.1380005-0.6419983
	c-0.5890045-0.5009995-0.8880005-1.272995-0.8880005-2.2959976c0-2.9209976,1.1029968-5.8519955,3.0239868-8.039999
	c1.9450073-2.2149963,4.5600128-3.4850006,7.1740112-3.4850006c2.6389923,0,5.1299896,1.2560043,7.0130005,3.5360031
	c1.79599,2.1749954,2.8259888,5.1089993,2.8259888,8.0489941c0,1.0340042-0.2829895,1.7770004-0.8669891,2.2700043
	c-1.0540009,0.8909988-2.6640015,0.6179962-4.7030029,0.272995c-1.2779999-0.2159958-2.7259979-0.4599991-4.2510071-0.4599991
	c-1.4960022,0-2.9720001,0.2420044-4.2740021,0.4550018C22.4635086,37.8212357,21.4845047,37.9822311,20.6395187,37.9822311"/>
<path class="st0" d="M23.258522,14.3268375c-1.1910095,0-2.1960144,1.6460037-2.1960144,3.5940018
	s1.0050049,3.5940018,2.1960144,3.5940018c1.1909943,0,2.1959991-1.6460037,2.1959991-3.5940018
	S24.4495163,14.3268375,23.258522,14.3268375 M23.258522,23.3578358c-2.2650146,0-4.0390015-2.3879929-4.0390015-5.4369965
	s1.7739868-5.4369965,4.0390015-5.4369965c2.2649994,0,4.0389862,2.3879929,4.0389862,5.4369965
	S25.5235214,23.3578358,23.258522,23.3578358"/>
<path class="st0" d="M32.1015244,14.3268375c-1.1910095,0-2.1960144,1.6460037-2.1960144,3.5940018
	s1.0050049,3.5940018,2.1960144,3.5940018c1.1909943,0,2.1959991-1.6460037,2.1959991-3.5940018
	S33.2925186,14.3268375,32.1015244,14.3268375 M32.1015244,23.3578358c-2.2650146,0-4.0390015-2.3879929-4.0390015-5.4369965
	s1.7739868-5.4369965,4.0390015-5.4369965c2.2649994,0,4.0389862,2.3879929,4.0389862,5.4369965
	S34.3665237,23.3578358,32.1015244,23.3578358"/>
<path class="st0" d="M39.7255173,22.1580372c-0.6009979,0-1.4170074,0.6679993-1.8200073,1.8269958
	c-0.2249908,0.6450043-0.2680054,1.3250046-0.1190033,1.8650055c0.0680084,0.2470016,0.2389984,0.6809998,0.6139984,0.8119965
	c0.3740082,0.1310043,0.7770081-0.1039963,0.9840088-0.2549973c0.4530029-0.3310013,0.8410034-0.8909988,1.0659943-1.5350037
	c0.223999-0.6449966,0.2680054-1.3239975,0.1190033-1.8649979c-0.0690002-0.2470016-0.2389984-0.6809998-0.6139984-0.8119965
	C39.8835068,22.1700382,39.8065109,22.1580372,39.7255173,22.1580372 M38.6245193,28.5410328
	c-0.2840118,0-0.5630035-0.0459976-0.8310089-0.1389999c-0.8540039-0.2969971-1.5039978-1.048996-1.7830048-2.0619965
	c-0.25-0.9049988-0.1949921-1.9570007,0.1549988-2.9609985c0.776001-2.2280045,2.7070007-3.512001,4.3960114-2.9240036
	c0.8539886,0.2980042,1.5049896,1.0490036,1.7839966,2.0620041c0.25,0.9059982,0.1949921,1.9570007-0.1549988,2.9609985
	c-0.3500061,1.0039978-0.9600067,1.8619995-1.7180023,2.4160004C39.8895187,28.3200397,39.2465134,28.5410328,38.6245193,28.5410328
	"/>
<path class="st0" d="M15.6205206,22.1580372c-0.0820007,0-0.1589966,0.012001-0.2310028,0.0370026
	c-0.602005,0.2099991-0.9530029,1.3610001-0.4949951,2.6769943c0.2249908,0.6440048,0.6129913,1.2040024,1.0659943,1.5350037
	c0.2070017,0.151001,0.6100016,0.3860016,0.9840097,0.2549973c0.375-0.1309967,0.54599-0.5649948,0.6139984-0.8119965
	c0.1490021-0.5400009,0.1059875-1.2200012-0.1190033-1.8650055C17.0365219,22.8260365,16.2205276,22.1580372,15.6205206,22.1580372
	 M16.7205276,28.5410328c-0.6220093,0-1.2650156-0.220993-1.8480082-0.6469955
	c-0.7579956-0.5540009-1.3679962-1.4120026-1.7180023-2.4160004c-0.776001-2.2279968-0.0610046-4.4339981,1.6289978-5.0230026
	c1.6890116-0.5879974,3.6200113,0.6959991,4.3960123,2.9240036c0.3499908,1.0039978,0.4049988,2.0559998,0.1549988,2.9609985
	c-0.279007,1.0130005-0.9290009,1.7649994-1.7830048,2.0619965C17.2835159,28.4950352,17.0045242,28.5410328,16.7205276,28.5410328"
	/>
</svg>
