<?xml version="1.0" encoding="utf-8"?>
<!-- Generator: Adobe Illustrator 24.3.0, SVG Export Plug-In . SVG Version: 6.00 Build 0)  -->
<svg version="1.1" id="Layer_1" xmlns="http://www.w3.org/2000/svg" xmlns:xlink="http://www.w3.org/1999/xlink" x="0px" y="0px"
	 viewBox="0 0 55.8766251 52.8839989" style="enable-background:new 0 0 55.8766251 52.8839989;" xml:space="preserve">
<style type="text/css">
	.st0{fill:#0E3866;}
</style>
<path class="st0" d="M7.5219994,22.4428349c0.427002,4.4749985,1.7610168,8.6849976,3.9660034,12.513998
	c1.7749939,3.0820007,4.1170044,5.9290009,6.9609985,8.461998c4.1119995,3.663002,8.1119995,5.6130066,9.2880249,6.1440048
	c1.1749878-0.5299988,5.1759949-2.4800034,9.2879944-6.1440048c2.8439941-2.5329971,5.1860046-5.3799973,6.9609985-8.461998
	c2.2049866-3.8290005,3.5390015-8.0389996,3.9660034-12.513998V6.8088317
	c-1.1960144,0.1840057-3.2620239,0.4060059-5.8520203,0.3030014c-3.6609802-0.1439972-9.0859985-0.9960022-14.3889771-4.1920013
	c-5.5670166,3.0070038-10.960022,3.8680038-14.5450134,4.0540009c-2.5169983,0.1300049-4.493988-0.0390015-5.6440125-0.1889954
	V22.4428349z M27.7370262,51.4888306c-0.1170044,0-0.2340088-0.0219955-0.3440247-0.0669937
	c-0.2030029-0.0810013-5.0130005-2.0490036-10.118988-6.5820007c-3.0029907-2.6660004-5.480011-5.6700058-7.3619995-8.9280014
	c-2.3569946-4.0809994-3.7799988-8.5689983-4.2279968-13.3390026c-0.0029907-0.0289993-0.0039978-0.0569992-0.0039978-0.0859985
	V5.703836c0-0.2779999,0.125-0.5419998,0.34198-0.7170029c0.2160034-0.173996,0.5-0.2419968,0.7720032-0.1839981
	c0.0240173,0.0049973,2.5580139,0.5309982,6.3420105,0.3269958c3.4750061-0.1869965,8.75-1.0469971,14.1499939-4.0799942
	c0.2950134-0.1650009,0.6560059-0.1560058,0.9420166,0.0239944c5.0829773,3.2020035,10.3549805,4.0480042,13.8829956,4.1940002
	c3.848999,0.1610031,6.5249939-0.4549942,6.5509949-0.4609985c0.2739868-0.0639954,0.5629883,0,0.7829895,0.1750031
	c0.2200012,0.1749954,0.3500061,0.4409943,0.3500061,0.7220001v16.7829971c0,0.0289993-0.0019836,0.0569992-0.0050049,0.0859985
	c-0.447998,4.7700043-1.8710022,9.2580032-4.2279968,13.3390026c-1.8819885,3.2579956-4.3590088,6.262001-7.3619995,8.9280014
	c-5.1059875,4.5329971-9.9159851,6.5009995-10.118988,6.5820007C27.9710045,51.466835,27.8540001,51.4888306,27.7370262,51.4888306"
	/>
<path class="st0" d="M37.9040184,33.9748383l-0.446991-0.0310059c0.1889954-1.9959927,0.4879761-6.6029949-0.3850098-9.6919918
	c0.8869934-0.5130005,1.7189941-0.9220047,2.4320068-1.2369995C38.465023,25.1748371,38.2260094,27.429842,37.9040184,33.9748383
	 M26.7910118,32.8638382c-0.4790039,0.25-2.4199829,0.5390015-6.2290039,0.0499954
	c-3.276001-0.4189987-5.5529785-1.1319942-6.1289978-1.5449963c0.1380005-1.802002,3.3880005-3.0219955,4.960022-3.4339981
	c0.4139709,0.2439957,1.1419983,0.6149979,2.0479736,0.8419952c1.2730103,0.3200073,2.4980164,0.2630005,3.6180115-0.1589966
	c0.5710144-0.2149963,1.1159973-0.5250015,1.625-0.9280014c0.0920105-0.072998,0.1700134-0.1640015,0.2279968-0.2659988
	c2.9309998-5.1449966,10.1369934-11.0909958,12.2709961-12.7890015c2.0310059,2.0970001,1.8250122,4.8080063,1.6390076,5.8860016
	c-0.9309998,0.3099976-2.947998,1.0690002-5.243988,2.4759979c-0.0710144,0.0330048-0.1370239,0.0740051-0.1960144,0.1220016
	C31.3820152,25.6198368,28.418026,28.9828358,26.7910118,32.8638382 M39.8370323,12.7338352
	c-0.0010071-0.0009995-0.0020142-0.0019989-0.0030212-0.0029984c-0.0069885-0.0049973-0.0119934-0.0099945-0.0180054-0.0149994
	c-0.0069885-0.0059967-0.0149841-0.0100021-0.0220032-0.0159988c-0.0139771-0.0110016-0.0289917-0.0220032-0.0439758-0.0329971
	c-0.0110168-0.0070038-0.0220032-0.0139999-0.0339966-0.0210037c-0.0140076-0.0089951-0.0270081-0.0179977-0.0420227-0.0250015
	c-0.0139771-0.0079956-0.0269775-0.0149994-0.0409851-0.0209961c-0.0130005-0.0070038-0.0249939-0.0130005-0.0379944-0.0179977
	c-0.0160217-0.0070038-0.0320129-0.0130005-0.0480042-0.0190048c-0.0119934-0.0039978-0.0230103-0.0079956-0.0339966-0.012001
	c-0.0180054-0.0059967-0.0350037-0.0099945-0.053009-0.0149994c-0.0100098-0.0029984-0.0209961-0.0059967-0.0320129-0.0079956
	c-0.0179749-0.0040054-0.0359802-0.0070038-0.0539856-0.0100021c-0.0110168-0.0019989-0.0230103-0.0029984-0.0350037-0.0049973
	c-0.0169983-0.0020065-0.0339966-0.003006-0.0509949-0.0040054c-0.0130005-0.0009995-0.026001-0.0019989-0.0390015-0.0019989
	c-0.0150146,0-0.0310059,0-0.0469971,0c-0.0140076,0.0009995-0.0280151,0.0009995-0.0429993,0.0019989
	c-0.0140076,0.0019989-0.0280151,0.003006-0.0419922,0.0050049c-0.0160217,0.0019989-0.0310059,0.0039978-0.0470276,0.0069962
	c-0.0139771,0.0019989-0.0269775,0.0050049-0.039978,0.0080032c-0.0160217,0.0029984-0.0310059,0.0069962-0.0469971,0.0110016
	c-0.0130005,0.0039978-0.0270081,0.0079956-0.0400085,0.0129929c-0.0150146,0.0050049-0.0289917,0.0090027-0.0429993,0.015007
	c-0.0150146,0.0049973-0.0299988,0.0119934-0.0440063,0.0179977c-0.0119934,0.0059967-0.0249939,0.0110016-0.0369873,0.0169983
	c-0.0160217,0.0080032-0.0320129,0.0169983-0.0480042,0.026001c-0.0100098,0.0059967-0.0200195,0.012001-0.0299988,0.0179977
	c-0.0169983,0.0110016-0.03302,0.0220032-0.0490112,0.0330048c-0.0059814,0.0049973-0.0130005,0.0089951-0.019989,0.0139999
	c-0.098999,0.0749969-2.4510193,1.8709946-5.28302,4.4699936c-3.7509766,3.4440002-6.4359741,6.5330048-7.9829712,9.1830063
	c-2.4840088,1.8249969-5.1970215-0.0650024-5.3110046-0.1460037c-0.006012-0.0039978-0.0120239-0.0069962-0.0180054-0.012001
	c-0.0150146-0.0089951-0.0289917-0.0189972-0.0429993-0.0279999c-0.0119934-0.0069962-0.0249939-0.0139999-0.0370178-0.0209961
	c-0.0139771-0.0070038-0.0269775-0.0139999-0.0409851-0.0210037c-0.0140076-0.0069962-0.0280151-0.0130005-0.0419922-0.0189972
	c-0.0130005-0.0060043-0.0270081-0.0110016-0.0400085-0.0159988c-0.0150146-0.0050049-0.0289917-0.0100021-0.0440063-0.0149994
	c-0.0140076-0.0040054-0.0279846-0.0080032-0.0429993-0.012001c-0.0140076-0.0040054-0.0279846-0.0070038-0.0429993-0.0100021
	c-0.0149841-0.0029984-0.0299988-0.0059967-0.04599-0.0090027c-0.0130005-0.0019989-0.0270081-0.0039978-0.0410156-0.0049973
	c-0.0159912-0.0019989-0.0319824-0.0029984-0.0480042-0.0039978c-0.0139771-0.0009995-0.0279846-0.0019989-0.0409851-0.0019989
	c-0.0159912,0-0.0320129,0-0.0480042,0.0009995c-0.0149841,0.0009995-0.0289917,0.0009995-0.0440063,0.0029984
	c-0.0149841,0.0009995-0.0299988,0.0029984-0.0440063,0.0049973c-0.0169983,0.0019989-0.0329895,0.0050049-0.0489807,0.0080032
	c-0.007019,0.0009995-0.0150146,0.0019989-0.0230103,0.0029984c-0.0669861,0.0149994-1.6650085,0.3659973-3.2720032,1.1500015
	c-2.9329834,1.4309998-3.5269775,3.1549988-3.5019836,4.3619995c-0.0299988,1.0819988,1.2680054,1.614996,1.7619934,1.8169994
	c1.6350098,0.6709976,4.5559998,1.2689972,7.4400024,1.5249939c1.45401,0.1290054,2.7600098,0.1529999,3.7770081,0.0710068
	c0.7279968-0.0590057,1.3099976-0.1710052,1.7639771-0.3420029c0.4060059-0.1520004,0.7109985-0.3519974,0.9260254-0.6040039
	c0.065979-0.0759964,0.117981-0.1619949,0.1549988-0.2549973c1.6299744-4.0309963,4.552002-6.7679958,7.0269775-8.4829998
	c0.8059998,3.6119995,0.0950012,9.3290005,0.0870056,9.3930035c-0.0319824,0.2519989,0.0410156,0.5059967,0.2019958,0.7009964
	c0.1610107,0.1959991,0.3959961,0.3170013,0.6490173,0.3349991l2.3399963,0.1600037
	c0.1340027,0.0089951,0.2659912-0.0100021,0.3880005-0.0569992c0.1049805-0.0390015,0.2030029-0.0979996,0.2879944-0.1740036
	c0.1849976-0.1640015,0.29599-0.3959961,0.3080139-0.6439972c0.4549866-9.5409985,0.6889954-10.1969967,2.6809998-13.2580013
	c0.0039978-0.0049973,0.0059814-0.0100021,0.0089722-0.0149994c0.0200195-0.0309982,0.0380249-0.064003,0.0540161-0.0979996
	c0.0010071-0.0029984,0.0029907-0.0059967,0.0050049-0.0100021c0.0159912-0.0369949,0.0299988-0.0749969,0.0419922-0.1139984
	c0.0010071-0.0039978,0.0029907-0.0079956,0.0039978-0.0130005C42.5560265,21.2768421,43.9590111,16.1498356,39.8370323,12.7338352"
	/>
<path class="st0" d="M25.5290489,31.003336c-3.1900024,0.1480026-3.1900024,0.1480026-6.0280151-0.4039993l-0.0710144-0.0139999
	c-0.375-0.072998-0.7379761,0.1720047-0.8099976,0.5460052c-0.072998,0.375,0.1710205,0.737999,0.5460205,0.8099976
	l0.0709839,0.0139999c2.9450073,0.5739956,3.0639954,0.5819988,6.3560181,0.4279995
	c0.0749817-0.0029984,0.1459961-0.0179977,0.2119751-0.0429993c0.2730103-0.1030045,0.4610291-0.3719997,0.4460144-0.6789989
	C26.2340355,31.2803364,25.9100304,30.9853382,25.5290489,31.003336"/>
<path class="st0" d="M17.1970482,30.1626377c-0.3730164-0.0259933-0.6970215,0.2560043-0.7220154,0.6290054
	c-0.026001,0.3740005,0.256012,0.6969986,0.6289978,0.7229996c0.3739929,0.0250015,0.696991-0.2570038,0.7220154-0.6300049
	C17.852047,30.5116444,17.570034,30.1886387,17.1970482,30.1626377"/>
</svg>
