<?xml version="1.0" encoding="utf-8"?>
<!-- Generator: Adobe Illustrator 24.3.0, SVG Export Plug-In . SVG Version: 6.00 Build 0)  -->
<svg version="1.1" id="Layer_1" xmlns="http://www.w3.org/2000/svg" xmlns:xlink="http://www.w3.org/1999/xlink" x="0px" y="0px"
	 viewBox="0 0 119.3703156 52.8839989" style="enable-background:new 0 0 119.3703156 52.8839989;" xml:space="preserve">
<style type="text/css">
	.st0{fill:#0E3866;}
</style>
<g>
	<g>
		<path class="st0" d="M22.9307537,52.6432304l-0.5436878-0.2554932c-0.2057228-0.096302-5.0947723-2.411911-10.0542536-6.4804001
			C5.6233282,40.4032707,2.076966,34.3152695,2.076966,28.3016548L2.0760677,6.7679901l20.8591785-6.4015269l20.7610779,6.4027843
			l0.0001793,21.5324078c0,6.080452-3.530014,12.1896553-10.2082329,17.6671295
			c-4.9384613,4.0501595-9.8075657,6.3269615-10.012392,6.4218292L22.9307537,52.6432304z M4.6518426,8.671792L4.652741,28.3016548
			c0,11.5266647,15.1939468,19.9000893,18.2852001,21.4837189c1.3861675-0.7014389,5.1988029-2.7507782,8.9587955-5.8425674
			c4.2079124-3.4604797,9.2239914-8.9825134,9.2239914-15.6411514L41.1205482,8.6705351L22.9334488,3.0615404L4.6518426,8.671792z"
			/>
	</g>
	<g>
		<path class="st0" d="M50.5633736,29.1921635h-1.3412018v-6.300148h2.9468307c0.661377,0,1.1791649,0.1937103,1.5539742,0.5811272
			c0.3745041,0.3874168,0.5617561,0.8707676,0.5617561,1.4500484c0,0.5725174-0.1887894,1.054636-0.5666733,1.4451294
			c-0.3778877,0.3904915-0.8941345,0.5854301-1.549057,0.5854301h-1.605629V29.1921635z M51.9894371,25.7730503
			c0.2708855,0,0.4928818-0.0768681,0.6659889-0.2312202c0.173111-0.1543522,0.259819-0.3603611,0.259819-0.618639
			s-0.0867081-0.464901-0.259819-0.6192532c-0.1731071-0.153738-0.3951035-0.2312202-0.6659889-0.2312202h-1.4260635v1.7003326
			H51.9894371z"/>
		<path class="st0" d="M60.216526,29.1921635H58.677002l-1.2372742-2.2384129h-0.9823799v2.2384129h-1.3412018v-6.300148h2.9468307
			c0.6484642,0,1.1634827,0.1887894,1.544445,0.5669823c0.3809586,0.3775787,0.5712852,0.8658485,0.5712852,1.4641933
			c0,0.5159416-0.1337509,0.934721-0.4012527,1.255724c-0.2678108,0.321619-0.5937347,0.5263977-0.9777679,0.6143341
			L60.216526,29.1921635z M57.8646584,25.7730503c0.2770309,0,0.503643-0.0768681,0.68013-0.2312202
			c0.1761856-0.1543522,0.264431-0.3603611,0.264431-0.618639s-0.0882454-0.464901-0.264431-0.6192532
			c-0.176487-0.153738-0.4030991-0.2312202-0.68013-0.2312202h-1.4073105v1.7003326H57.8646584z"/>
		<path class="st0" d="M64.1743393,29.3059292c-0.9510193,0-1.736618-0.3074741-2.3567924-0.9211922
			c-0.6201782-0.6137199-0.9304199-1.3934746-0.9304199-2.3380356s0.3102417-1.7236996,0.9304199-2.3374195
			c0.6201744-0.6143322,1.4057732-0.9211922,2.3567924-0.9211922c0.9571609,0,1.7458344,0.3056297,2.3660126,0.9162731
			c0.6201706,0.6106434,0.9304123,1.3916283,0.9304123,2.3423386c0,0.9513264-0.3102417,1.7323112-0.9304123,2.3429546
			C65.9201736,29.0002995,65.1315002,29.3059292,64.1743393,29.3059292z M62.7907028,27.5299587
			c0.3492889,0.3904915,0.8105011,0.5854301,1.3836365,0.5854301c0.5728226,0,1.035881-0.1949387,1.3885498-0.5854301
			c0.3526764-0.3904934,0.5288544-0.8849125,0.5288544-1.4832573c0-0.5977287-0.176178-1.0921478-0.5288544-1.4826412
			c-0.3526688-0.3904915-0.8157272-0.5854301-1.3885498-0.5854301c-0.5731354,0-1.0343475,0.1949387-1.3836365,0.5854301
			c-0.3495979,0.3904934-0.5242462,0.8849125-0.5242462,1.4826412
			C62.2664566,26.6450462,62.4411049,27.1394653,62.7907028,27.5299587z"/>
		<path class="st0" d="M70.9941177,29.1921635h-1.3507385v-5.1194458h-1.8417664v-1.1807022h5.0250473v1.1807022h-1.8325424
			V29.1921635z"/>
		<path class="st0" d="M78.1441193,29.1921635h-4.4580688v-6.300148h4.4580688v1.1807022h-3.1168671v1.3319778h3.050766v1.1807022
			h-3.050766v1.4260654h3.1168671V29.1921635z"/>
		<path class="st0" d="M82.2436752,29.3059292c-0.9571686,0-1.7553711-0.3037853-2.3943024-0.9119682
			c-0.6392365-0.6075687-0.9590149-1.3897839-0.9590149-2.3472595c0-0.9568596,0.3197784-1.7390747,0.9590149-2.3472576
			c0.6389313-0.6075687,1.4371338-0.9113541,2.3943024-0.9113541c1.1776276,0,2.0557709,0.513483,2.6353607,1.5398312
			l-1.1524124,0.5663681c-0.1386719-0.2644291-0.3416061-0.4827347-0.609108-0.6561508
			c-0.267807-0.1734161-0.5589828-0.2595081-0.8738403-0.2595081c-0.5731277,0-1.0454102,0.1949387-1.4168396,0.5854301
			c-0.3717346,0.3904934-0.5571442,0.8849125-0.5571442,1.4826412c0,0.5983448,0.1854095,1.0927639,0.5571442,1.4832573
			c0.3714294,0.3904915,0.8437119,0.5854301,1.4168396,0.5854301c0.3148575,0,0.6060333-0.0848637,0.8738403-0.2552032
			c0.2675018-0.1697254,0.4704361-0.3898773,0.609108-0.6610699l1.1524124,0.5577583
			C84.2806931,28.7893715,83.4022369,29.3059292,82.2436752,29.3059292z"/>
		<path class="st0" d="M88.4869385,29.1921635h-1.3507309v-5.1194458h-1.841774v-1.1807022h5.0250549v1.1807022h-1.83255V29.1921635
			z"/>
		<path class="st0" d="M95.6372528,29.1921635H91.179184v-6.300148h4.4580688v1.1807022h-3.1168671v1.3319778h3.0507584v1.1807022
			h-3.0507584v1.4260654h3.1168671V29.1921635z"/>
		<path class="st0" d="M99.1698227,29.1921635h-2.4840775v-6.300148h2.4840775c0.988533,0,1.7928848,0.2896423,2.4133682,0.8689232
			c0.6201782,0.5792809,0.9304199,1.3412018,0.9304199,2.2857628s-0.3087082,1.7052536-0.9258041,2.2814598
			C100.9707031,28.9043674,100.1648102,29.1921635,99.1698227,29.1921635z M99.1698227,28.0114632
			c0.6044998,0,1.084465-0.1887894,1.4405212-0.5663681c0.3554382-0.3781929,0.5334702-0.8437099,0.5334702-1.3983936
			c0-0.5792809-0.173111-1.0527916-0.5193253-1.4211445c-0.3465271-0.3683548-0.8314133-0.5528393-1.4546661-0.5528393H98.026947
			v3.9387455H99.1698227z"/>
		<path class="st0" d="M109.3047943,29.1921635h-3.4191132v-6.300148h3.3151855
			c0.5731354,0,1.0186615,0.1561985,1.3365936,0.4673615c0.3179245,0.311779,0.4768906,0.6912022,0.4768906,1.1382694
			c0,0.3843441-0.1036224,0.7053471-0.31147,0.963625c-0.2078552,0.2582779-0.4661331,0.4187794-0.7745285,0.4815044
			c0.340065,0.0504265,0.6263199,0.2238407,0.8593903,0.5196323c0.2330627,0.2964039,0.3495941,0.6395454,0.3495941,1.0294228
			c0,0.4913445-0.1604996,0.8978252-0.4818115,1.2188282C110.3345261,29.031662,109.8840714,29.1921635,109.3047943,29.1921635z
			 M108.9081497,25.4139194c0.2266083,0,0.4061737-0.0627251,0.5383911-0.1887894
			c0.1322098-0.1260643,0.1983185-0.2896404,0.1983185-0.4913425c0-0.201088-0.0676422-0.3665104-0.2029343-0.4956493
			c-0.1355972-0.1291389-0.3133163-0.1937084-0.5337753-0.1937084h-1.6812668v1.3694897H108.9081497z M108.9555054,28.0305252
			c0.2515106,0,0.4501419-0.0645695,0.5949554-0.1937084c0.1448212-0.1291389,0.2170792-0.3068581,0.2170792-0.5337753
			c0-0.2078514-0.072258-0.3824978-0.2170792-0.5239353c-0.1448135-0.1420536-0.3434448-0.2127724-0.5949554-0.2127724h-1.7286224
			v1.4641914H108.9555054z"/>
		<path class="st0" d="M114.9629364,29.1921635h-1.3415146v-2.5784798l-2.4275055-3.7216682h1.5302963l1.5681229,2.531744
			l1.5490494-2.531744h1.5299911l-2.4084396,3.7216682V29.1921635z"/>
	</g>
	<g>
		<path class="st0" d="M28.3144131,18.1915016c-0.1080723-0.108881-0.3220177-0.1978188-0.4754124-0.1976376l-9.8514938,0.0091629
			c-0.1533508,0.0001793-0.367609,0.0890274-0.4760418,0.1974583l-4.7789545,4.7788219
			c-0.1084776,0.1084309-0.1084776,0.2859478,0,0.3943787l9.970212,9.9700794
			c0.1084766,0.1085205,0.2862625,0.1087914,0.3950996,0.0007172l2.2180481-2.2025967
			c0.1088352-0.1080723,0.1091499-0.2852287,0.0006733-0.3936596l-2.2015629-2.2013397
			c-0.1085224-0.1084309-0.1085224-0.2859478-0.0000458-0.3943787l1.3212166-1.3212166
			c0.1084766-0.1084328,0.2859039-0.1084328,0.3943806,0l2.2014732,2.2014275
			c0.1084309,0.1085224,0.2858124,0.1083431,0.3941097-0.0002689l5.6415157-5.658493
			c0.1083412-0.1086121,0.1085205-0.2864876,0.0004044-0.3953686L28.3144131,18.1915016z"/>
		<path class="st0" d="M38.834198,11.1259089l-15.9073334-5.098547L6.93787,11.1259089
			c0,0,0.0010781,5.0110464,0.0010781,16.7172928c0,11.7061558,15.9879169,19.6569042,15.9879169,19.6569042
			s15.9078255-7.9507484,15.9078255-19.6569042C38.8346901,23.07094,38.834198,11.1259089,38.834198,11.1259089z
			 M36.5128365,23.3587742l-7.4067898,7.3536072c-0.108881,0.1080723-0.1091957,0.2852287-0.0007191,0.3937511l2.2072678,2.2072678
			c0.1084328,0.1084328,0.198988,0.3226891,0.2012787,0.4760399l0.0431652,2.9247894
			c0.0022907,0.1534386-0.0846252,0.1901817-0.193058,0.081749l-3.9643669-3.9644585
			c-0.1084766-0.1084328-0.2855892-0.1080742-0.3935719,0.0008087l-3.9445152,3.9773064
			c-0.1079826,0.1088791-0.2851391,0.1092377-0.3935699,0.0008087L9.2592297,23.4017143
			c-0.1084318-0.1084309-0.1083422-0.2858562,0.0001793-0.394289l7.1939697-7.1810331
			c0.1086121-0.1083412,0.3228703-0.19701,0.4763107-0.19701l11.9573364-0.0001793
			c0.1533508-0.0000896,0.3676987,0.0885782,0.4762211,0.19701l7.1501274,7.1389894
			C36.6218987,23.0736351,36.6216278,23.2507019,36.5128365,23.3587742z"/>
	</g>
	<g>
		<path class="st0" d="M50.7477303,35.6351738c-0.5285149,0-0.9534912-0.1822624-1.2749329-0.5463371
			c-0.3216667-0.3636246-0.4824982-0.8192787-0.4824982-1.3665161c0-0.5467911,0.1608315-1.0024452,0.4824982-1.3665199
			c0.3214417-0.3636227,0.746418-0.5458851,1.2749329-0.5458851c0.5246849,0,0.948761,0.1822624,1.2722282,0.5458851
			c0.3234711,0.3640747,0.4852066,0.8197289,0.4852066,1.3665199c0,0.5806198-0.1811333,1.0552254-0.5434036,1.4247131
			l0.4270096,0.4213676l-0.122036,0.1276741l-0.4324226-0.4326477
			C51.5275345,35.5111084,51.1652679,35.6351738,50.7477303,35.6351738z M50.7477303,35.4687004
			c0.3694878,0,0.6893501-0.1087265,0.959137-0.3270798L51.09692,34.5262604l0.1276703-0.1276741l0.6153641,0.6212234
			c0.3139954-0.3252754,0.470993-0.7574692,0.470993-1.2974892c0-0.5134048-0.1432381-0.9329681-0.4294891-1.2582436
			c-0.2864761-0.3252754-0.6643105-0.4876881-1.133728-0.4876881c-0.4730225,0-0.8519859,0.1624126-1.1364326,0.4876881
			c-0.2846718,0.3252754-0.4267807,0.7448387-0.4267807,1.2582436c0,0.5102425,0.1421089,0.9289055,0.4267807,1.2559853
			C49.8957443,35.3053856,50.2747078,35.4687004,50.7477303,35.4687004z"/>
		<path class="st0" d="M55.7482224,35.2471886c-0.2366257,0.2585068-0.5765648,0.3879852-1.0200386,0.3879852
			c-0.4437027,0-0.7836418-0.1294785-1.0200386-0.3879852c-0.2366257-0.2589569-0.3548279-0.6189728-0.3548279-1.0813942V31.870821
			h0.1772995v2.2949734c0,0.4141502,0.1035385,0.7349129,0.3103905,0.9618416
			c0.2070732,0.227375,0.5025749,0.3410645,0.8871765,0.3410645c0.3841476,0,0.6798744-0.1136894,0.8869476-0.3410645
			c0.206852-0.2269287,0.3103905-0.5476913,0.3103905-0.9618416V31.870821h0.1772995v2.2949734
			C56.1028214,34.6282158,55.9846191,34.9882317,55.7482224,35.2471886z"/>
		<path class="st0" d="M59.8892784,35.5684013h-0.2050438l-0.4103165-0.9920654h-2.0621834l-0.4103165,0.9920654h-0.2050476
			l1.541111-3.6975803h0.2106857L59.8892784,35.5684013z M59.2073746,34.4098625l-0.96455-2.3337708l-0.9645462,2.3337708
			H59.2073746z"/>
		<path class="st0" d="M63.3430176,35.5684013H63.165493l-2.494606-3.4092979v3.4092979h-0.1772995V31.870821h0.1772995
			l2.494606,3.3763676V31.870821h0.1775246V35.5684013z"/>
		<path class="st0" d="M65.4661026,35.5684013h-0.1775208v-3.5311089h-1.2471924V31.870821h2.6775436v0.1664715h-1.2528305
			V35.5684013z"/>
		<path class="st0" d="M69.8124313,35.2471886c-0.2366257,0.2585068-0.576561,0.3879852-1.0200348,0.3879852
			c-0.4437027,0-0.783638-0.1294785-1.0200424-0.3879852c-0.2366257-0.2589569-0.3548203-0.6189728-0.3548203-1.0813942V31.870821
			h0.1772995v2.2949734c0,0.4141502,0.1035309,0.7349129,0.3103867,0.9618416
			c0.207077,0.227375,0.5025711,0.3410645,0.8871765,0.3410645c0.3841476,0,0.6798706-0.1136894,0.8869476-0.3410645
			c0.2068481-0.2269287,0.3103867-0.5476913,0.3103867-0.9618416V31.870821h0.1772995v2.2949734
			C70.1670303,34.6282158,70.0488358,34.9882317,69.8124313,35.2471886z"/>
		<path class="st0" d="M74.4355392,35.5684013h-0.1775284v-3.4868965l-1.4411774,3.4868965h-0.0554962l-1.4414062-3.4868965
			v3.4868965h-0.1772995V31.870821h0.2826462l1.3638077,3.3095989l1.3635864-3.3095989h0.2828674V35.5684013z"/>
		<path class="st0" d="M79.7628784,35.5684013h-0.2327881l-1.3969727-1.762619l-1.396965,1.762619h-0.233017l1.5300598-1.89571
			l-1.4468231-1.8018703h0.2384262l1.3083191,1.6575069l1.3083191-1.6575069h0.238205l-1.4468155,1.7960072L79.7628784,35.5684013z"
			/>
	</g>
	<g>
		<path class="st0" d="M83.233757,35.5961494h-0.1775208v-3.5311127h-1.2471924v-0.1664715h2.6775436v0.1664715H83.233757
			V35.5961494z"/>
		<path class="st0" d="M87.4469986,35.5961494h-2.2618103v-3.6975842h2.2618103v0.1664715h-2.0845108v1.5465279h2.0457153v0.1664696
			h-2.0457153v1.652092h2.0845108V35.5961494z"/>
		<path class="st0" d="M89.9968719,35.6629181c-0.5210724,0-0.9589081-0.179554-1.313736-0.5377655
			c-0.3548279-0.3586578-0.5323486-0.8170242-0.5323486-1.3750877c0-0.5580673,0.1775208-1.0159798,0.5323486-1.3746376
			c0.3548279-0.3586617,0.7926636-0.5377655,1.313736-0.5377655s0.9498825,0.1939926,1.2862091,0.5819778l-0.1387253,0.1222572
			c-0.1328583-0.1664696-0.3002319-0.2977524-0.5016708-0.3938484c-0.2014389-0.0960922-0.4166336-0.1439133-0.645813-0.1439133
			c-0.4694214,0-0.8619156,0.1624107-1.1779404,0.4876862s-0.4739304,0.7448387-0.4739304,1.2582436
			c0,0.5102425,0.1579056,0.9289055,0.4739304,1.2559853s0.708519,0.4903946,1.1779404,0.4903946
			c0.2291794,0,0.4443741-0.047821,0.645813-0.1439133c0.2014389-0.096096,0.3688126-0.2273788,0.5016708-0.3938522
			l0.1441422,0.1163979C90.9411163,35.4671211,90.510498,35.6629181,89.9968719,35.6629181z"/>
		<path class="st0" d="M94.8532181,35.5961494h-0.1775284v-1.8181152h-2.5223465v1.8181152h-0.1772995v-3.6975842h0.1772995
			v1.7129993h2.5223465v-1.7129993h0.1775284V35.5961494z"/>
		<path class="st0" d="M98.6782455,35.5961494h-0.1775208l-2.494606-3.4093018v3.4093018h-0.1772995v-3.6975842h0.1772995
			l2.494606,3.3763676v-3.3763676h0.1775208V35.5961494z"/>
		<path class="st0" d="M101.2836075,35.6629181c-0.528511,0-0.9534912-0.1822624-1.2749329-0.5463371
			c-0.3216629-0.3636208-0.4824982-0.8192787-0.4824982-1.3665161c0-0.5467873,0.1608353-1.0024452,0.4824982-1.3665199
			c0.3214417-0.3636208,0.7464218-0.5458832,1.2749329-0.5458832c0.5246811,0,0.948761,0.1822624,1.2722321,0.5458832
			c0.3234711,0.3640747,0.4852066,0.8197327,0.4852066,1.3665199c0,0.5472374-0.1617355,1.0028954-0.4852066,1.3665161
			C102.2323685,35.4806557,101.8082886,35.6629181,101.2836075,35.6629181z M101.2836075,35.4964447
			c0.4694214,0,0.8472519-0.1633148,1.133728-0.4903946c0.2862549-0.3270798,0.4294891-0.7457428,0.4294891-1.2559853
			c0-0.5134048-0.1432343-0.9329681-0.4294891-1.2582436c-0.2864761-0.3252754-0.6643066-0.4876862-1.133728-0.4876862
			c-0.4730225,0-0.8519821,0.1624107-1.1364288,0.4876862c-0.2846756,0.3252754-0.4267883,0.7448387-0.4267883,1.2582436
			c0,0.5102425,0.1421127,0.9289055,0.4267883,1.2559853C100.4316254,35.3331299,100.810585,35.4964447,101.2836075,35.4964447z"/>
		<path class="st0" d="M105.9236298,35.5961494h-2.0344315v-3.6975842h0.1772995v3.5315609h1.857132V35.5961494z"/>
		<path class="st0" d="M108.0636368,35.6629181c-0.528511,0-0.9534912-0.1822624-1.2749329-0.5463371
			c-0.3216705-0.3636208-0.4824982-0.8192787-0.4824982-1.3665161c0-0.5467873,0.1608276-1.0024452,0.4824982-1.3665199
			c0.3214417-0.3636208,0.7464218-0.5458832,1.2749329-0.5458832c0.5246811,0,0.948761,0.1822624,1.2722321,0.5458832
			c0.3234711,0.3640747,0.4852066,0.8197327,0.4852066,1.3665199c0,0.5472374-0.1617355,1.0028954-0.4852066,1.3665161
			C109.0123978,35.4806557,108.5883179,35.6629181,108.0636368,35.6629181z M108.0636368,35.4964447
			c0.4694214,0,0.8472519-0.1633148,1.133728-0.4903946c0.2862549-0.3270798,0.4294891-0.7457428,0.4294891-1.2559853
			c0-0.5134048-0.1432343-0.9329681-0.4294891-1.2582436c-0.2864761-0.3252754-0.6643066-0.4876862-1.133728-0.4876862
			c-0.4730225,0-0.8519821,0.1624107-1.1364288,0.4876862c-0.2846756,0.3252754-0.4267883,0.7448387-0.4267883,1.2582436
			c0,0.5102425,0.1421127,0.9289055,0.4267883,1.2559853C107.2116547,35.3331299,107.5906143,35.4964447,108.0636368,35.4964447z"/>
		<path class="st0" d="M112.3876343,35.6683311c-0.5210724,0-0.9589081-0.1791039-1.313736-0.5377655
			c-0.3548203-0.3582077-0.5323486-0.8183746-0.5323486-1.3805008c0-0.5580673,0.1775284-1.0159798,0.5323486-1.3746376
			c0.3548279-0.3586617,0.7926636-0.5377655,1.313736-0.5377655c0.5323486,0,0.9830475,0.1903839,1.3527603,0.5711479
			l-0.116394,0.1218109c-0.1441422-0.1664734-0.3252792-0.2955017-0.5434036-0.3879852
			c-0.218132-0.0924835-0.4488907-0.1385002-0.6929626-0.1385002c-0.4694138,0-0.861908,0.1624107-1.1779404,0.4876862
			c-0.3160248,0.3252754-0.4739227,0.7448387-0.4739227,1.2582436c0,0.5102425,0.1578979,0.9298096,0.4739227,1.2586937
			c0.3160324,0.3288841,0.7085266,0.4930992,1.1779404,0.4930992c0.2476807,0,0.4730225-0.0487213,0.6764908-0.1466217
			c0.2030182-0.0978966,0.3694916-0.2151947,0.4987411-0.3523445v-1.0141716h-1.5244141v-0.1664734h1.7019424v1.2528305
			c-0.1626358,0.1813583-0.3613663,0.3252754-0.5959625,0.4326477
			C112.9096069,35.6146469,112.6574173,35.6683311,112.3876343,35.6683311z"/>
		<path class="st0" d="M115.8855896,35.5961494h-0.1775284V33.994133l-1.4856186-2.0955677h0.2273788l1.3471146,1.9182682
			l1.3471146-1.9182682h0.2271576l-1.4856186,2.0955677V35.5961494z"/>
	</g>
</g>
<path class="st0" d="M79.7628784,35.5684013h-0.2327881l-1.3969727-1.762619l-1.396965,1.762619h-0.233017l1.5300598-1.89571
	l-1.4468231-1.8018703h0.2384262l1.3083191,1.6575069l1.3083191-1.6575069h0.238205l-1.4468155,1.7960072L79.7628784,35.5684013z"/>
</svg>
