<?xml version="1.0" encoding="utf-8"?>
<!-- Generator: Adobe Illustrator 24.3.0, SVG Export Plug-In . SVG Version: 6.00 Build 0)  -->
<svg version="1.1" id="Layer_1" xmlns="http://www.w3.org/2000/svg" xmlns:xlink="http://www.w3.org/1999/xlink" x="0px" y="0px"
	 viewBox="0 0 55.8766251 52.8839989" style="enable-background:new 0 0 55.8766251 52.8839989;" xml:space="preserve">
<style type="text/css">
	.st0{fill:#0E3866;}
	.st1{clip-path:url(#SVGID_2_);fill:#0E3866;}
</style>
<g>
	<path class="st0" d="M47.5401497,50.7284164l6.3036652-6.3050232
		C52.9980049,47.4773941,50.5941925,49.8812866,47.5401497,50.7284164 M43.6389809,50.9307137l6.1660423-6.1673622
		c0.0633965,0.0053482,0.1200829,0.0201721,0.1861572,0.0201721c0.741951,0,1.2788048-0.325058,1.7091217-0.586792
		c0.2887001-0.1739731,0.5180016-0.3129539,0.723053-0.3129539c0.2320137,0,0.6232224,0.1267967,1.0292549,0.295414
		l-6.73666,6.7366982c-0.5153236,0.0917206-1.0441132,0.1483688-1.5863609,0.1483688
		C44.6210136,51.0642586,44.1245842,51.0116425,43.6389809,50.9307137 M37.1828766,46.3388824l1.8912392-1.891201
		c0.3520622,0.1821251,0.7419128,0.3358421,1.192482,0.3358421c0.6164742,0,1.1101875-0.2859497,1.5445366-0.5382195
		c0.3345604-0.1942215,0.6245804-0.3615265,0.8876343-0.3615265c0.0283241,0,0.0593262,0.0094719,0.0890083,0.013504
		l-4.2734871,4.2721252C38.0003662,47.6176872,37.5471191,47.0066109,37.1828766,46.3388824 M38.6626968,44.2224159
		l-1.6889076,1.6889114c-0.2374077-0.4950714-0.4303169-1.0131187-0.574646-1.5526466
		c0.5341797-0.2496376,1.1250458-0.4749031,1.4366379-0.4749031C38.0624046,43.8837776,38.3537788,44.0470467,38.6626968,44.2224159
		 M46.7752724,44.1940918c0.290062-0.1605492,0.5787201-0.3103142,0.7850952-0.3103142
		c0.1929054,0,0.4303131,0.1443329,0.706871,0.3103142c0.2792358,0.1672211,0.6097221,0.3533783,1.0009308,0.4721031
		l-6.1633682,6.1606941c-0.7621651-0.174057-1.4878922-0.4438591-2.1637268-0.7986374L46.7752724,44.1940918z
		 M43.6241188,44.2574921c0.4316788,0.2468376,0.9227142,0.5260315,1.5054703,0.5260315
		c0.1699371,0,0.3318024-0.0283241,0.4883232-0.0674324l-5.0828667,5.081543
		c-0.6191902-0.3682785-1.1951981-0.8026695-1.7091217-1.3030891l4.4353485-4.4339981
		C43.3786392,44.1199112,43.4986839,44.1859436,43.6241188,44.2574921 M45.1295891,32.9640427
		c4.9897461,0,9.050106,4.0589638,9.050106,9.050106c0,0.3318863-0.020256,0.6583405-0.0552864,0.9820747
		c-0.5490417-0.2374496-1.1978722-0.4627151-1.7010536-0.4627151c-0.5827599,0-1.0306091,0.271122-1.4231339,0.5098915
		c-0.3453522,0.2091293-0.6434402,0.3898506-1.0090408,0.3898506c-0.3695946,0-0.6744766-0.1834412-1.0278931-0.3952026
		c-0.3912048-0.2374496-0.8363457-0.5045395-1.4029198-0.5045395c-0.5786858,0-1.0872612,0.2833099-1.5351105,0.5328636
		c-0.3237381,0.1807213-0.6582603,0.3668785-0.895668,0.3668785c-0.2253075,0-0.5220795-0.1686172-0.8363838-0.3480263
		c-0.4532471-0.2590179-0.9658585-0.5517159-1.5944366-0.5517159c-0.6259384,0-1.125042,0.290062-1.5634689,0.5436478
		c-0.3304901,0.1915092-0.6151123,0.3560944-0.8687019,0.3560944c-0.2616959,0-0.5760078-0.1794052-0.9078522-0.3682785
		c-0.4370651-0.2495537-0.9307785-0.5314636-1.5229645-0.5314636c-0.5031815,0-1.1520119,0.2239456-1.7010536,0.4627151
		c-0.0350304-0.3237343-0.0552864-0.6501884-0.0552864-0.9820747C36.0794411,37.0230064,40.139801,32.9640427,45.1295891,32.9640427
		 M45.1295891,31.6136875c-5.7344131,0-10.4004593,4.6646938-10.4004593,10.4004612
		c0,5.7344513,4.6660461,10.3990593,10.4004593,10.3990593c5.7343712,0,10.4004173-4.664608,10.4004173-10.3990593
		C55.5300064,36.2783813,50.8639603,31.6136875,45.1295891,31.6136875"/>
</g>
<g>
	<g>
		<defs>
			<circle id="SVGID_1_" cx="24.0318775" cy="24.4551144" r="23.4819889"/>
		</defs>
		<clipPath id="SVGID_2_">
			<use xlink:href="#SVGID_1_"  style="overflow:visible;"/>
		</clipPath>
		<path class="st1" d="M34.178051,30.0152645c-1.0535393,8.5091763-10.1495476,10.1454716-14.597044,11.5915813
			c-1.2788048,0.3709145-3.1943378,1.3597374-5.2366209,2.5534935c-1.2113743-0.5921478-2.3606691-1.2936249-3.4344635-2.0894623
			c0.9375334-1.0063629,1.612009-1.8642769,2.8557405-2.4551048c4.370636-1.482502,11.3177395-4.7227364,11.3177395-4.7227364
			s3.0068207-2.3404121,3.0068207-6.1660461c0.1942253-6.3616676-6.129652-7.2978001-7.1629391-11.7858028
			c-1.0346851-4.4893208,0.2144794-6.8310528-4.5460072-11.0074234c-0.585433-0.512609-1.2450485-0.9982948-1.9492054-1.4582105
			c1.6767235-0.8121381,3.4735279-1.417784,5.3539867-1.7846625c0.739233,0.5611033,1.4420319,1.1762178,2.058506,1.8385913
			c3.6691532,3.941638,1.5229645,9.1324396,3.4344196,11.9031296C26.7614841,18.9308605,34.9968567,22.4044304,34.178051,30.0152645
			 M16.6929092,12.8430319c1.2032642,1.3395681,0.3817406,5.0289354,0.5072174,6.6733007
			c0.125433,1.6443653,6.0109253,7.1804771,5.5819683,9.4062824c-0.430315,2.2244053-6.6355114,5.2690201-6.6355114,5.2690201
			s-3.7352676,3.207798-5.2690182,4.5270309c-0.4235649,0.3629227-1.2895908,0.8390579-2.3229189,1.3355293
			c-1.1061101-1.0886116-2.0976119-2.2932358-2.9541693-3.5936127c0.9954948-0.1619492,2.1461482-0.2792778,4.0670729-0.8255577
			c4.0738249-1.1574478,8.1962252-6.5168686,8.1962252-8.9760075s-3.5517874-3.9807453-3.9024878-5.2689362
			c-0.3520994-1.2882729,0.4680662-4.6053295-1.2100153-8.3527412c-0.6610155-1.4731131-2.4672489-2.9474602-4.4178553-4.1925907
			c0.729804-0.7391901,1.5108624-1.4258533,2.337738-2.0571046c0.3912086,0.222548,0.7743063,0.4464946,1.1425848,0.6690431
			C15.9509602,10.2665682,15.488287,11.5022297,16.6929092,12.8430319 M8.925642,12.6083822
			c3.5126801,2.3808393,1.9519234,8.9381323,2.4591398,10.6742182c0.5071745,1.7374859,3.1228294,2.9083519,2.9663553,5.1719494
			c-0.1565161,2.2635136-4.4488535,2.6533623-8.0788994,3.5517864c-0.8552403,0.2104454-1.7374444,0.5179634-2.5886502,0.8632698
			c-0.2900202-0.6933327-0.5463245-1.4055996-0.7661965-2.1326866c0.406028-0.1915092,0.9253883-0.3736305,1.5202897-0.4478149
			c1.456851-0.1821194,6.6746187-0.9766388,6.4007769-3.2402363c-0.2738419-2.2635155-1.9641094-3.5908966-1.9897146-4.7226543
			c-0.0269642-1.1317577,0.6366854-5.0207825-0.9766407-6.9079514c-0.7068753-0.8269587-1.9276762-1.4461069-3.0742536-1.8818169
			c0.4383855-0.7783813,0.9226713-1.5283575,1.4487419-2.2459774C7.2205548,11.6478786,8.1486187,12.0809526,8.925642,12.6083822
			 M3.5338631,16.1777077c1.2208014,0.5530338,2.3741713,1.1991863,2.6992655,1.7779102
			c0.7675552,1.3664913,0.0013175,3.0823231,0.0903606,4.2410851c0.0904031,1.1574459,0.7027998,1.4177837,1.1978717,3.6691952
			c0.4937129,2.2500134-1.2491236,2.4968491-2.3943839,2.5886517c-0.585433,0.0458584-1.7293756,0.1982594-2.704658,0.3358383
			c-0.072824-0.3547764-0.1362209-0.7135849-0.1915493-1.0751133c0.8012707-0.1295109,3.2469482-0.6515026,3.2469482-2.1758289
			c0-1.8211346-0.805346-1.7820263-0.9227128-2.7316628c-0.1173248-0.9496365,0.8188491-2.770771,0.0782585-4.0455437
			c-0.3912077-0.6730747-1.1075103-0.856514-1.6983356-0.879488C3.1116564,17.3040314,3.3112743,16.7347755,3.5338631,16.1777077
			 M2.0446136,22.644598c0.0687897-0.8889561,0.1821218-1.7658081,0.3520997-2.623724
			c0.1605089,0.0661125,0.2778754,0.161869,0.3237357,0.3021641C2.9807875,21.1135216,2.0648677,22.0132637,2.0446136,22.644598
			 M2.0432551,22.6553841c-0.0080688,0.6286163,0.9361739,1.1290398,0.9375324,1.9869556
			c0,0.4101048-0.4680665,0.8188076-0.9591036,1.1358738c-0.0310403-0.4762173-0.0485771-0.9550686-0.0485771-1.4393559
			C1.9731069,23.7723198,2.0014708,23.2124538,2.0432551,22.6553841 M48.2611275,30.8852825
			c0.5395699-2.0450001,0.8282356-4.1925068,0.8282356-6.4075279c0-13.8375568-11.2179108-25.0567417-25.0581455-25.0567417
			c-13.8389139,0-25.0568237,11.2191849-25.0568237,25.0567417c0,13.8389568,11.2179089,25.0582256,25.0568237,25.0582256
			c3.8579884,0,7.5123234-0.872818,10.7767658-2.4308167c-0.4586372-0.9348183-0.7931595-1.9411774-0.9860687-2.9960365
			c-2.9501743,1.463562-6.2739811,2.2878036-9.7906971,2.2878036c-1.2140484,0-2.4065266-0.0997887-3.5680065-0.288662
			c2.777523-1.9937897,5.6305466-3.9807434,7.6647625-4.3840981c2.2244473-0.441143,3.7393036-0.2036934,5.5212879-0.3588104
			c0.3183441-5.6791229,4.7361603-10.2628803,10.3424149-10.8374863c-0.1092529-2.7249126-1.0413971-5.4295712-2.6709404-7.1468029
			c-2.8111954-3.1619377-9.7974472-5.3081264-11.1625805-7.7672663c-1.3664913-2.4591389,0.0782166-7.1035767-1.5229645-11.0843239
			c-0.2873459-0.7176197-0.6677265-1.3745589-1.0994034-1.9695017c2.0841522,0.3318868,4.0711479,0.9564693,5.9164944,1.8305223
			c0.1227608,0.2064104,0.2455139,0.4155378,0.3656006,0.6326513c1.9896736,3.5248652-0.5854759,3.7784529,0.9887428,6.868927
			c1.5742607,3.0890732,9.0029297,6.6611156,9.0029297,6.6611156s-0.8147736-3.7366276-2.7855911-8.2771597
			c3.1632957,3.8174782,5.0653267,8.7183008,5.0653267,14.0628214c0,2.1273346-0.302166,4.1831226-0.863308,6.129652
			C46.2768059,30.4725456,47.293911,30.6181927,48.2611275,30.8852825"/>
	</g>
</g>
</svg>
