<?xml version="1.0" encoding="utf-8"?>
<!-- Generator: Adobe Illustrator 25.0.1, SVG Export Plug-In . SVG Version: 6.00 Build 0)  -->
<svg version="1.1" xmlns="http://www.w3.org/2000/svg" xmlns:xlink="http://www.w3.org/1999/xlink" x="0px" y="0px"
	 viewBox="0 0 55.9 52.9" style="enable-background:new 0 0 55.9 52.9;" xml:space="preserve">
<style type="text/css">
	.st0{fill:#0E3866;}
</style>
<g id="Layer_1">
</g>
<g id="Layer_2">
	<g>
		<path class="st0" d="M7.8,39.4v8.7c0,0.2,0.1,0.5,0.3,0.6s0.4,0.3,0.6,0.3l6.5,0c0.5,0,0.9-0.4,0.9-0.9v-8h7.3v8
			c0,0.5,0.4,0.9,0.9,0.9l6.3,0c0.5,0,0.9-0.4,0.9-0.9c0-0.1,0.2-14.6,6-20.5c1,0,4.2,0.2,6.1,1.7c2.1,1.7,2.1,5.2,1.9,5.8
			c-0.2,0.5-0.9,2-2,2.4c-0.7,0.3-1.5,0.1-2.4-0.4c-0.4-0.2-0.8-0.1-1.1,0.2l-4,4.4c-0.3,0.3-0.3,0.9,0,1.2
			c2.4,2.7,6.5,3.6,10.5,2.2c4-1.4,6.6-4.7,6.7-8.5c0-5.2,0-8.4-0.1-11.4c0-2.8-0.1-5.5-0.1-9.8c0-3.9-2.2-7.3-6.2-9.5
			c-3.3-1.8-7.4-2.5-9.7-1.7c-2.5-2.5-5-3.7-7.4-3.7c-0.1,0-0.1,0-0.2,0c-2.9,0.1-5.2,1.9-6.8,3.6c-0.1,0-0.1-0.1-0.2-0.1
			c-2.6-0.6-8.9,0.8-13.8,4.7c-3.1,2.5-6.9,7.1-6.9,14.7c0.1,4.3,2.5,8.8,4.2,12.1C6.8,37.1,7.5,38.5,7.8,39.4z M9.8,10.1
			c4-3.2,8.9-4.5,11.4-4.5l-0.1,0.1c-2.8,3.1-2.2,11.2,5.5,21.5c0.2,0.3,0.5,0.4,0.8,0.4c8.2-0.9,7.2-12.9,7.2-13.4
			c0-0.5-0.5-0.9-1-0.8c-0.5,0-0.9,0.5-0.8,1c0,0.1,0.9,10.2-5.1,11.4C20.6,15.9,20.7,9,22.5,7l0.3-0.4c1.4-1.6,3.7-4.2,6.7-4.3
			c2.1,0,4.3,1.2,6.7,3.6c0.3,0.3,0.8,0.4,1.1,0.1c1.1-0.7,5-0.5,8.5,1.5c2,1.1,5.3,3.6,5.3,7.9c0,4.3,0,7,0.1,9.8
			c0,3,0.1,6.1,0.1,11.3c-0.1,3.6-2.9,5.9-5.5,6.9c-3,1.1-6,0.6-8-1.1l3-3.3c1.2,0.5,2.3,0.6,3.3,0.2c2.1-0.8,3-3.3,3.1-3.5
			c0.3-0.8,0.5-5.4-2.5-7.8c-2.8-2.2-7.4-2.1-7.6-2.1c-0.2,0-0.4,0.1-0.6,0.2c-5.7,5.4-6.6,17.7-6.7,21.1l-4.5,0v-8
			c0-0.5-0.4-0.9-0.9-0.9h-5c1.7-1.2,3-3.1,3-5.6c0-0.5-0.4-0.9-0.9-0.9c-0.5,0-0.9,0.4-0.9,0.9c0.1,4.3-5.3,5.6-5.5,5.6
			c-0.4,0.1-0.7,0.5-0.7,0.9v7.9l-4.7,0v-8c0-0.1,0-0.1,0-0.2c-0.3-1.1-1.1-2.6-2-4.3c-1.7-3.3-3.9-7.4-4-11.3
			C3.6,17.9,5.7,13.5,9.8,10.1z"/>
		<path class="st0" d="M44.6,18.8c0.8,0,1.5-0.7,1.5-1.5c0-0.8-0.7-1.5-1.5-1.5c-0.8,0-1.5,0.7-1.5,1.5
			C43.1,18.1,43.8,18.8,44.6,18.8z"/>
		<path class="st0" d="M52.9,50.4h-50c-0.5,0-0.9,0.4-0.9,0.9s0.4,0.9,0.9,0.9h50c0.5,0,0.9-0.4,0.9-0.9S53.4,50.4,52.9,50.4z"/>
	</g>
</g>
</svg>
