<?xml version="1.0" encoding="utf-8"?>
<!-- Generator: Adobe Illustrator 24.3.0, SVG Export Plug-In . SVG Version: 6.00 Build 0)  -->
<svg version="1.1" id="Layer_1" xmlns="http://www.w3.org/2000/svg" xmlns:xlink="http://www.w3.org/1999/xlink" x="0px" y="0px"
	 viewBox="0 0 55.8766251 52.8839989" style="enable-background:new 0 0 55.8766251 52.8839989;" xml:space="preserve">
<style type="text/css">
	.st0{fill:#0E3866;}
</style>
<path class="st0" d="M7.3229756,22.7756805c0.427002,4.4749985,1.7610021,8.6849976,3.9660039,12.5130005
	c1.7749939,3.0820007,4.1179962,5.9290009,6.961997,8.461998c4.1110001,3.663002,8.1110001,5.614006,9.2870026,6.1440048
	c1.1749954-0.5299988,5.1749954-2.4800034,9.2869949-6.1440048c2.8440018-2.5329971,5.1860046-5.3799973,6.9620056-8.461998
	c2.2049942-3.8280029,3.5389938-8.038002,3.9659958-12.5130005V7.1416779
	c-1.1959991,0.1830063-3.2630005,0.4050064-5.8519974,0.3030014c-3.6620026-0.1449966-9.0860062-0.9970016-14.3889999-4.1920013
	c-5.5670013,3.0070038-10.9599991,3.8670044-14.5450048,4.0530014c-2.5159988,0.1310043-4.4929962-0.038002-5.6439977-0.1889954
	V22.7756805z M27.5379791,51.8206787c-0.1170044,0-0.2340012-0.0219955-0.3440018-0.0669937
	c-0.2030029-0.0810013-5.0130005-2.0490036-10.1190033-6.5820007c-3.0029974-2.6660004-5.4799948-5.6689987-7.3619986-8.927002
	c-2.3569951-4.0810013-3.7789998-8.5690002-4.2279973-13.340004c-0.0029984-0.0279999-0.0039978-0.0569992-0.0039978-0.0859985
	V6.0366821c0-0.2789993,0.1259995-0.5419998,0.3419952-0.7170029c0.2160034-0.1749954,0.5-0.2419968,0.7720032-0.1839981
	c0.0239944,0.0049973,2.5589986,0.5309982,6.3419957,0.3269958c3.4749975-0.1879959,8.749999-1.0469971,14.1500006-4.0799942
	c0.2939987-0.1650009,0.6559982-0.1560059,0.9420013,0.0239944c5.0830002,3.201004,10.3549957,4.0480042,13.8819962,4.1940002
	c3.8500061,0.1600037,6.5250015-0.4549942,6.5519943-0.4609985c0.2740021-0.0639954,0.5620117,0,0.7830048,0.1750031
	c0.2200012,0.173996,0.348999,0.4399948,0.348999,0.7220001v16.7819977c0,0.0289993-0.0009918,0.0579987-0.0039978,0.0859985
	c-0.4490051,4.7710037-1.8710022,9.2590027-4.2289963,13.340004c-1.8810043,3.2580032-4.3580017,6.2610016-7.3610001,8.927002
	c-5.1060028,4.5329971-9.9160004,6.5009995-10.1180038,6.5820007
	C27.7719727,51.7986832,27.6549759,51.8206787,27.5379791,51.8206787"/>
<path class="st0" d="M27.5379791,14.2533798c-0.8630066,0.9690018-2.4340057,2.7900009-3.989006,4.8799973
	c-3.7399979,5.0289993-4.5249939,7.6880035-4.5249939,9.0330048c0,4.6949997,3.8189926,8.5139999,8.5139999,8.5139999
	c4.6949997,0,8.5139999-3.8190002,8.5139999-8.5139999c0-1.3450012-0.7850037-4.0040054-4.5250015-9.0330048
	C29.9719772,17.0433807,28.4009781,15.2223816,27.5379791,14.2533798 M27.5379791,38.5233765
	c-5.7110062,0-10.3570023-4.6459961-10.3570023-10.3569946c0-2.362999,1.6490021-5.7770004,4.9000015-10.1460037
	c2.362999-3.1749954,4.6869965-5.6640015,4.784996-5.7679977c0.1740036-0.1860046,0.4169998-0.2910004,0.6720047-0.2910004
	c0.2549973,0,0.4979935,0.1049957,0.6719971,0.2910004c0.0979996,0.1039963,2.4219971,2.5930023,4.784996,5.7679977
	c3.2510071,4.3690033,4.9000015,7.7830048,4.9000015,10.1460037C37.8949738,33.8773804,33.2489777,38.5233765,27.5379791,38.5233765
	"/>
<path class="st0" d="M24.7439804,33.7106781c-0.0960007,0-0.1940002-0.0149994-0.2900009-0.0469971
	c-1.3670044-0.4530029-2.4750061-1.4109955-3.1210022-2.697998c-0.6470032-1.2870026-0.7529984-2.7480011-0.3000031-4.1149979
	c0.1600037-0.4830017,0.6819992-0.7450027,1.1650009-0.5850067c0.4830017,0.1600037,0.7440033,0.6820068,0.5839996,1.1650009
	c-0.2979965,0.8990021-0.2279968,1.8610001,0.1969986,2.7080002c0.4260025,0.8470001,1.1550064,1.4780045,2.0550003,1.776001
	c0.4830017,0.1600037,0.7440033,0.6809998,0.5839996,1.1640015C25.489975,33.465683,25.1299744,33.7106781,24.7439804,33.7106781"/>
</svg>
