<?xml version="1.0" encoding="utf-8"?>
<!-- Generator: Adobe Illustrator 24.3.0, SVG Export Plug-In . SVG Version: 6.00 Build 0)  -->
<svg version="1.1" id="Layer_1" xmlns="http://www.w3.org/2000/svg" xmlns:xlink="http://www.w3.org/1999/xlink" x="0px" y="0px"
	 viewBox="0 0 74.4989243 52.8839989" style="enable-background:new 0 0 74.4989243 52.8839989;" xml:space="preserve">
<style type="text/css">
	.st0{fill:#0E3866;}
</style>
<path class="st0" d="M50.2916489,48.4652481v-3.7192116L2.5782013,17.188448l-0.1089339,3.4137707L50.2916489,48.4652481z
	 M71.9257889,36.9329453l0.0325623-3.4524536L52.3563919,44.556675v3.8994217L71.9257889,36.9329453z M23.3449116,3.9212475
	L3.715452,15.3934908L51.157032,42.7942963l19.7190666-11.1423645L23.3449116,3.9212475z M0.5704733,15.3629332
	c0-0.014246,0.0081406-0.0264568,0.0091348-0.041728c0.0081716-0.1140451,0.0346438-0.2239885,0.0763718-0.3278427
	c0.0091659-0.0224018,0.0173064-0.0458136,0.0274976-0.0682154c0.0906023-0.1893768,0.2290845-0.3532896,0.4123396-0.4601889
	L22.8378677,1.7587405c0.3146229-0.1832552,0.6984386-0.1842805,1.0130615,0l49.6641617,28.9748325
	c0.0844803,0.0488739,0.1598282,0.1109848,0.2260056,0.1802101c0.0071487,0.0071316,0.0122147,0.0173073,0.0193558,0.0254631
	c0.0732956,0.0824623,0.13134,0.1771488,0.1761398,0.2789688c0.013237,0.0285072,0.0254517,0.0570145,0.0356445,0.0875568
	c0.0407028,0.1180992,0.0692215,0.2402706,0.0692215,0.3685608c0,0.001009-0.0010223,0.001009-0.0010223,0.0020351
	c0,0.001009,0.0010223,0.001009,0.0010223,0.0020351l-0.0570145,5.8929043
	c-0.0040665,0.3807869-0.2036362,0.7320442-0.5233231,0.9203949l-21.621933,12.7326736
	c-0.0010223,0-0.0020485,0.0010071-0.0030441,0.0010071l-0.0030746,0.0020523
	c-0.039711,0.0234108-0.0844803,0.0356216-0.1262398,0.0539551c-0.039711,0.0162811-0.0773659,0.038681-0.1191254,0.0498848
	c-0.0865326,0.0234261-0.1751175,0.0356369-0.2636986,0.0356369h-0.0009956c-0.0875549,0-0.1751442-0.0122108-0.2616768-0.0356369
	c-0.028492-0.0081406-0.0549622-0.0234146-0.0824623-0.0346146c-0.0539703-0.0193405-0.1089325-0.0366478-0.1608505-0.0661812
	L0.9105113,22.1518097c-0.3359677-0.1965084-0.5385799-0.5701637-0.5263691-0.9702778L0.5704733,15.3629332z"/>
<path class="st0" d="M48.8774643,35.511631c-0.1120071-0.5222855,0.3206825-0.9509201,0.9672012-0.9580498l5.1303368-0.0610847
	l-10.5345306-5.9702873c-0.5386086-0.3604202-0.6729927-0.9580669-0.2993355-1.3347683
	c0.3726311-0.3777256,1.1117744-0.3909626,1.650383-0.0315514l10.5345306,5.9702854l-0.9743462-4.1417427
	c-0.1231956-0.5212727,0.3003616-0.9580498,0.9438057-0.9743462c0.6434746-0.0162811,1.2645149,0.3929977,1.3866844,0.9142857
	l1.5068359,6.4060383c0.0621109,0.2636986-0.0152855,0.5049934-0.1903992,0.6821442
	c-0.0040703,0.0030594-0.0101624,0.0050926-0.0142632,0.0091629c-0.0030441,0.0030632-0.0030441,0.0081406-0.0071144,0.0122108
	c-0.0030441,0.0030632-0.0091667,0.0050964-0.013237,0.0081558c-0.0030441,0.0040703-0.0040703,0.0091667-0.0071144,0.0122108
	c-0.1751137,0.1771507-0.4469528,0.2891464-0.7737846,0.293232l-7.935276,0.0946732
	C49.6023445,36.4493294,48.9894447,36.0329208,48.8774643,35.511631"/>
<path class="st0" d="M30.9248619,20.5451889l-11.9304123-7.0484724l0.9743481,4.1427526
	c0.1231937,0.5212746-0.3003311,0.9570408-0.9438057,0.9743481c-0.6434441,0.0152702-1.2645149-0.3929996-1.3877106-0.9142876
	l-1.5058117-6.4060383c-0.0620804-0.2636967,0.0152855-0.5049925,0.1904011-0.6821423
	c0.0040703-0.0030603,0.010191-0.0050955,0.0132351-0.0091658c0.0040703-0.0040703,0.0040703-0.0081406,0.0081406-0.0122261
	c0.0030766-0.0030451,0.0091667-0.0050802,0.0122108-0.0081406c0.0041027-0.0040703,0.0050964-0.0091658,0.008173-0.013236
	c0.1751137-0.1761398,0.4469509-0.2881193,0.7737541-0.2922049l7.935276-0.0946722
	c0.6444683-0.0071306,1.2583961,0.4092789,1.3704052,0.9305525c0.1119785,0.5222988-0.3207111,0.9499254-0.9672318,0.958066
	l-5.1303349,0.0610847l11.9304104,7.0474625c0.5375557,0.3604202,0.6719666,0.958065,0.299305,1.3347664
	C32.2025833,20.8913631,31.4634418,20.9056091,30.9248619,20.5451889"/>
<path class="st0" d="M36.3545341,24.7999363l-5.0224266,2.8171673l2.814106,0.0335865
	c0.3542976,0.0040703,0.591526,0.2392597,0.5304375,0.5253601c-0.0610847,0.2860832-0.3980751,0.5141582-0.7524071,0.5100727
	L29.571764,28.634203c-0.1781597-0.0020351-0.3278275-0.0631199-0.4235249-0.1608677
	c-0.0020504-0.0010109-0.0020504-0.0040703-0.0040703-0.0061054c-0.0020504-0.0020351-0.0050964-0.003046-0.0071468-0.0050964
	c-0.0020199-0.0020351-0.0020199-0.0040703-0.0040703-0.0061054c-0.0020199-0.0020351-0.0061207-0.0030441-0.0081406-0.0050793
	c-0.0956974-0.0977497-0.138483-0.2301102-0.103838-0.3736572l0.8256741-3.5145645
	c0.0682297-0.2850742,0.408268-0.510088,0.7615738-0.5009232c0.3522797,0.0091667,0.5844097,0.2484264,0.5172024,0.5345097
	l-0.5345097,2.2714405l5.022398-2.8171501c0.2952652-0.1975174,0.700489-0.1893768,0.9051208,0.0173054
	C36.7230949,24.2745914,36.6497688,24.6024342,36.3545341,24.7999363"/>
<path class="st0" d="M44.3610573,22.8990917c-0.3533058-0.0091515-0.5854378-0.2484112-0.5172348-0.5345097l0.5335159-2.2724514
	l-4.7689209,2.818161c-0.2952347,0.1965065-0.7004585,0.1893768-0.9050903-0.0173054
	c-0.2046661-0.2066841-0.1313362-0.5345097,0.1649208-0.7320271l4.7678986-2.817152l-2.8130836-0.0336018
	c-0.3543282-0.0040703-0.5925484-0.2392616-0.5304375-0.5263691c0.0610847-0.2850742,0.3970528-0.513134,0.7513504-0.510088
	l4.3525124,0.0529442c0.179184,0.0010242,0.3278275,0.0631351,0.4245491,0.1598434
	c0.0020218,0.0020504,0.0020218,0.0050945,0.0040703,0.0071297c0.0020218,0.0020351,0.0050964,0.0030613,0.0071144,0.0040703
	c0.0020523,0.0020351,0.0020523,0.0050964,0.0040703,0.0071316c0.0020523,0.0020351,0.0050964,0.0030594,0.0071487,0.0050945
	c0.0956955,0.0967236,0.1384506,0.2290688,0.1048622,0.3736572l-0.8267288,3.5145645
	C45.0543976,22.6832581,44.7133064,22.9082565,44.3610573,22.8990917"/>
</svg>
