<?xml version="1.0" encoding="utf-8"?>
<!-- Generator: Adobe Illustrator 24.3.0, SVG Export Plug-In . SVG Version: 6.00 Build 0)  -->
<svg version="1.1" id="Layer_1" xmlns="http://www.w3.org/2000/svg" xmlns:xlink="http://www.w3.org/1999/xlink" x="0px" y="0px"
	 viewBox="0 0 55.8766251 52.8839989" style="enable-background:new 0 0 55.8766251 52.8839989;" xml:space="preserve">
<style type="text/css">
	.st0{fill:#0E3866;}
</style>
<path class="st0" d="M7.55651,22.44314c0.427002,4.4749985,1.7610016,8.6849976,3.9660034,12.5129986
	c1.7749939,3.0820007,4.1179962,5.9290009,6.9620066,8.461998c4.1109924,3.663002,8.1109924,5.614006,9.2870026,6.1440048
	c1.1749878-0.5299988,5.1749878-2.4800034,9.2869873-6.1440048c2.8440094-2.5329971,5.1860046-5.3799973,6.9620056-8.461998
	c2.2050018-3.828001,3.5390015-8.0380001,3.9660034-12.5129986V6.8091369
	c-1.1959991,0.1830063-3.2620087,0.4050064-5.852005,0.3030014c-3.6620026-0.1449966-9.0859985-0.9970016-14.3889923-4.1920013
	c-5.5670013,3.0070038-10.9600067,3.8670044-14.5450144,4.0530014C10.6835089,7.1041427,8.7075109,6.9351363,7.55651,6.784143
	V22.44314z M27.7715225,51.4881363c-0.1170044,0-0.2340088-0.0219955-0.3440094-0.0669937
	c-0.2030029-0.0810013-5.0130005-2.0490036-10.1190033-6.5820007c-3.0029917-2.6660004-5.4799967-5.6689987-7.3620005-8.927002
	c-2.3569946-4.0809994-3.7789917-8.5689983-4.2279968-13.3400021c-0.0029907-0.0279999-0.0039978-0.0569992-0.0039978-0.0859985
	V5.7041411c0-0.2789993,0.1260071-0.5419998,0.3419952-0.7170029c0.2160034-0.1749954,0.5-0.2419968,0.7720032-0.1839981
	c0.0240021,0.0049973,2.5590057,0.5309982,6.3419952,0.3269958c3.4750071-0.1879959,8.750001-1.0469971,14.1500101-4.0799942
	c0.2939911-0.1650009,0.6559906-0.1560058,0.9420013,0.0239944c5.0829926,3.201004,10.3549957,4.0480042,13.8819885,4.1940002
	c3.8500061,0.1600037,6.5250092-0.4549942,6.552002-0.4609985c0.2740021-0.0639954,0.5620117,0,0.7830048,0.1750031
	c0.2200012,0.173996,0.348999,0.4399948,0.348999,0.7220001v16.7819977c0,0.0289993-0.0009918,0.0579987-0.0039978,0.0859985
	c-0.4490051,4.7710037-1.8710022,9.2590027-4.2290039,13.3400021c-1.8809967,3.2580032-4.3580017,6.2610016-7.3609924,8.927002
	c-5.1060028,4.5329971-9.9160004,6.5009995-10.1190033,6.5820007
	C28.0055161,51.4661407,27.8885117,51.4881363,27.7715225,51.4881363"/>
<path class="st0" d="M31.9405136,35.0335312c0.2519989-0.6139984,0.3829956-1.2689972,0.3829956-1.9409943
	c0-0.1460037-0.0090027-0.2810059-0.026001-0.5070038c-0.1389923-1.9199963-0.9609985-3.0869961-1.6849976-4.1169949
	c-0.5809937-0.8240051-1.0399933-1.4760056-1.0399933-2.3940048c0-0.3529968-0.1960144-0.6709976-0.5110016-0.8279953
	c-0.1300049-0.0650024-0.2720032-0.0970001-0.4130096-0.0970001c-0.197998,0-0.3959961,0.0639954-0.5579987,0.1869965
	c-1.1320038,0.8550034-2.076004,2.2949982-2.4059906,3.6689987c-0.0400085,0.1679993-0.0750122,0.3440018-0.105011,0.5289993
	c-0.0869904-0.1729965-0.2259979-0.3169937-0.4019928-0.4079971c-0.2660065-0.1380005-0.5839996-0.1389999-0.8480072-0.0029984
	c-0.1129913,0.0579987-0.5110016,0.2910004-0.8880005,0.8669968c-0.4689941,0.7160034-0.7229919,1.6660004-0.7549896,2.8230038
	c-0.006012,0.0979996-0.006012,0.1919937-0.006012,0.2789993c0,0.6719971,0.1300049,1.3269958,0.3830109,1.9409943
	c-2.5230103-1.5369949-4.098999-4.2849941-4.098999-7.2889919v-0.0220032c0-0.1579971,0-0.3079987,0.0099945-0.473999
	l0.0010071-0.012001c0.0749969-2.6139984,0.7630005-4.1419983,1.3509979-4.9779968
	c0.5019989,1.3389969,1.7480011,3.6279984,4.3919983,3.6279984c0.5099945,0,0.9250031-0.4150009,0.9250031-0.9250031
	c0-1.8399963,0.0410004-3.9649963,0.5289917-5.8959961c0.4940033-1.9530029,1.7649994-4.0600052,3.378006-5.6360016
	c0.4550018,2.1329956,1.6589966,3.7519989,2.9259949,5.4580002c1.5910034,2.1409988,3.2369995,4.3560028,3.5090027,7.9059982
	l0.0209961,0.288002c0.0169983,0.223999,0.0330048,0.435997,0.0330048,0.663002
	C36.0395126,30.7485371,34.4635086,33.4965363,31.9405136,35.0335312 M24.5305099,33.0745316
	c0-0.0540009,0-0.1100006,0.0039978-0.1769943v-0.012001c0.0090027-0.3310013,0.0410004-0.6350021,0.0950012-0.9080029
	c0.4519958,0.5409985,1.0449982,0.8299999,1.7259979,0.8299999c0.5110016,0,0.9260101-0.4150009,0.9260101-0.9249935
	c0-0.7720032,0.0149994-1.6610031,0.2029877-2.4460068c0.1150055-0.4799957,0.3470001-0.9909973,0.6590118-1.4629974
	c0.2630005,0.576004,0.6139984,1.0739975,0.9559937,1.5599976c0.6430054,0.9150009,1.2510071,1.7779999,1.3609924,3.2929974
	c0.006012,0.0910034,0.0130005,0.177002,0.0130005,0.2660065c-0.0009918,1.7589951-1.3329926,3.1889954-2.9720001,3.1889954
	c-1.6380005,0-2.970993-1.4300003-2.970993-3.1889954V33.0745316z M37.8505173,26.9235325l-0.0190125-0.2629929
	c-0.3139954-4.0910034-2.2029877-6.6330032-3.8699951-8.8770065c-1.4759979-1.987999-2.7510071-3.7039948-2.7510071-6.1809998
	c0-0.3479996-0.1929932-0.6629944-0.5019989-0.822998c-0.3119965-0.1610031-0.6809998-0.1340027-0.9619904,0.0699997
	c-2.5240021,1.8069992-4.6320038,4.8530045-5.3679962,7.762001c-0.4500122,1.7819977-0.5540009,3.7549973-0.5780029,5.2300034
	c-1.6390076-0.753006-2.0579987-3.4360046-2.0619965-3.4640045c-0.0420074-0.2910004-0.2220001-0.5469971-0.4840088-0.6869965
	c-0.2639923-0.1380005-0.5769958-0.1430054-0.8359985-0.0139999c-0.1269989,0.060997-3.1210022,1.5769958-3.2920074,7.4840012
	c-0.0119934,0.1909943-0.0129852,0.3779984-0.0129852,0.5839996c0,5.7279949,4.6599884,10.387991,10.3879852,10.387991
	c5.7280121,0,10.3880005-4.659996,10.3880005-10.387991C37.8895035,27.4525394,37.8695145,27.1835346,37.8505173,26.9235325"/>
</svg>
