<?xml version="1.0" encoding="utf-8"?>
<!-- Generator: Adobe Illustrator 24.3.0, SVG Export Plug-In . SVG Version: 6.00 Build 0)  -->
<svg version="1.1" id="Layer_1" xmlns="http://www.w3.org/2000/svg" xmlns:xlink="http://www.w3.org/1999/xlink" x="0px" y="0px"
	 viewBox="0 0 55.8766251 52.8839989" style="enable-background:new 0 0 55.8766251 52.8839989;" xml:space="preserve">
<style type="text/css">
	.st0{fill:#0E3866;}
</style>
<path class="st0" d="M7.4213796,22.7756805c0.427,4.4749985,1.7610002,8.6849976,3.9660001,12.5130005
	c1.776001,3.0820007,4.118,5.9290009,6.961997,8.461998c4.1110001,3.663002,8.1110001,5.614006,9.2870026,6.1440048
	c1.1749992-0.5299988,5.1749992-2.4800034,9.2869987-6.1440048c2.843998-2.5329971,5.1870003-5.3799973,6.9620018-8.461998
	c2.204998-3.8280029,3.5389977-8.038002,3.9659996-12.5130005V7.1416779
	c-1.1960068,0.1830063-3.262001,0.4050064-5.8520012,0.3030014c-3.6619987-0.1449966-9.0860023-0.9970016-14.3889999-4.1920013
	c-5.5670013,3.0070038-10.9599991,3.8670044-14.5449991,4.0530014C10.5483809,7.4366837,8.572381,7.2676773,7.4213796,7.116684
	V22.7756805z M27.6363792,51.8206787c-0.1170006,0-0.2340012-0.0219955-0.3440018-0.0669937
	c-0.2029991-0.0810013-5.0130005-2.0490036-10.1189995-6.5820007c-3.0029974-2.6660004-5.4789991-5.6689987-7.3609972-8.927002
	c-2.3580003-4.0810013-3.7800012-8.5690002-4.2290006-13.340004c-0.0030003-0.0279999-0.0039997-0.0569992-0.0039997-0.0859985
	V6.0366821c0-0.2789993,0.1259995-0.5419998,0.3419991-0.7170029c0.2159996-0.1749954,0.5-0.2419968,0.7719994-0.1839981
	C6.7173791,5.1406784,9.25138,5.6666794,13.0353804,5.462677c3.4749956-0.1879959,8.7499971-1.0469971,14.1499987-4.0799942
	c0.2939987-0.1650009,0.6559982-0.1560059,0.9419975,0.0239944c5.0830002,3.201004,10.3549995,4.0480042,13.882,4.1940002
	c3.8490028,0.1600037,6.5250015-0.4549942,6.552002-0.4609985c0.2739944-0.0639954,0.5619965,0,0.7829971,0.1750031
	c0.2200012,0.173996,0.348999,0.4399948,0.348999,0.7220001v16.7819977c0,0.0289993-0.0009995,0.0579987-0.0039978,0.0859985
	c-0.4489975,4.7710037-1.8710022,9.2590027-4.2279968,13.340004c-1.8820038,3.2580032-4.3590012,6.2610016-7.3620033,8.927002
	c-5.105999,4.5329971-9.9160004,6.5009995-10.118,6.5820007C27.8703766,51.7986832,27.753376,51.8206787,27.6363792,51.8206787"/>
<path class="st0" d="M31.8045769,16.3521805c-0.821003,0-1.3440018,0.2179947-1.5660019,0.4469986
	c-0.4389992,0.4519958-0.8549995,1.1989975-1.3359985,2.0629959c-0.6750031,1.2140045-1.5160027,2.7250061-2.8640022,4.2320023
	c-1.2290001,1.375-2.5369987,2.163002-3.6899986,2.8590012c-1.0289993,0.6210022-1.9179993,1.1559982-2.4570007,1.9589996
	c-1.0099983,1.5029984-0.2130013,3.6259995,2.0790024,5.5400009c2.3259964,1.9430008,5.3099976,2.1470032,6.1099968,1.3310013
	c0.4540024-0.4630051,0.8360023-1.3120041,1.2789993-2.2949982c0.5540009-1.2310028,1.2440033-2.7630005,2.4120026-4.3110046
	c1.2929993-1.7159958,2.8019981-2.3929977,4.1329994-2.9909973c1.0110016-0.4530029,1.8829994-0.8450012,2.6100006-1.6269989
	c0.4420013-0.4760056,0.6399994-0.9729996,0.6049995-1.5200043c-0.0680008-1.0820007-1.0530014-2.4690018-2.7739983-3.9069977
	c-1.0840034-0.9059982-2.4550018-1.5330048-3.7600021-1.7210007C32.3005753,16.3701782,32.0405769,16.3521805,31.8045769,16.3521805
	 M26.519577,37.0701752c-1.8310013,0-4.0180016-0.772995-5.7310028-2.2039948
	c-1.4349976-1.1990051-2.4349976-2.5439987-2.8899994-3.8880005c-0.5019989-1.4800034-0.3409996-2.8950043,0.4630013-4.0930023
	c0.7679977-1.1419983,1.8689995-1.8069992,3.0349998-2.5100021c1.0929985-0.6589966,2.223999-1.3409958,3.269001-2.5089951
	c1.2109985-1.3550034,1.9629974-2.7070007,2.6269989-3.9000015c0.5449982-0.9790039,1.0149994-1.8239975,1.6240005-2.451004
	c1.6809998-1.7309952,5.7849998-1.1569977,8.6110001,1.2030029c2.1730003,1.8160019,3.3279991,3.5670013,3.4309998,5.2040024
	c0.0669975,1.0639954-0.3010025,2.0369949-1.0940018,2.8909988c-0.980999,1.0559998-2.1119995,1.564003-3.204998,2.0550003
	c-1.2390022,0.5550003-2.4090004,1.0800018-3.4169998,2.4179993c-1.0430031,1.3840027-1.6599998,2.7519989-2.2030029,3.9589996
	c-0.5149994,1.1429977-0.9599991,2.1310043-1.6429977,2.8280029C28.7345734,36.7481766,27.7005768,37.0701752,26.519577,37.0701752"
	/>
<path class="st0" d="M32.3638763,18.6863785c-0.4669991,0-0.9099998,0.2529984-1.1069984,0.6800003
	c-0.1199989,0.2610016-0.1290016,0.552002-0.026001,0.8180008c0.1119995,0.288002,0.3390007,0.5149994,0.6389999,0.6409988
	c0.6189995,0.2590027,1.3390007-0.0009995,1.605999-0.5810013c0.1200027-0.2600021,0.1290016-0.5510025,0.026001-0.8170013
	c-0.1119995-0.2879944-0.3390007-0.5149994-0.6389999-0.6409988C32.6998787,18.7183762,32.5308762,18.6863785,32.3638763,18.6863785
	 M32.3588791,22.3053741c-0.3430023,0-0.6900024-0.0659943-1.0230026-0.2059937
	c-0.6489983-0.2720032-1.144001-0.7740021-1.3919983-1.4140015c-0.2410011-0.6190033-0.2210007-1.2929993,0.0579987-1.8970032
	c0.5750008-1.2480011,2.0979996-1.8209991,3.3950005-1.2770004c0.6489983,0.2720032,1.144001,0.7750015,1.3919983,1.4140015
	c0.2410011,0.6200027,0.2210007,1.2929993-0.0579987,1.8980026C34.3038788,21.7503815,33.3518753,22.3053741,32.3588791,22.3053741"
	/>
<path class="st0" d="M32.7877769,25.491684h0.0009995H32.7877769z M31.5177765,24.3206787
	c-0.2750015,0-0.5390015,0.1470032-0.651001,0.3910065c-0.0669975,0.1459961-0.0719986,0.3079987-0.0149994,0.4569931
	c0.0639992,0.1640015,0.1949997,0.2940063,0.3689995,0.3670044c0.3570023,0.1500015,0.788002-0.0029984,0.9400024-0.3339996
	c0.0669975-0.1450043,0.0719986-0.3069992,0.0139999-0.4560013c-0.064003-0.1640015-0.1940002-0.2939987-0.368-0.3669968
	C31.7127762,24.3396835,31.6147766,24.3206787,31.5177765,24.3206787 M31.5067787,26.974678
	c-0.2750015,0-0.5540009-0.0529938-0.8200035-0.1649933c-0.5229988-0.2190018-0.9219971-0.6240005-1.1219978-1.1399994
	c-0.1959991-0.5010071-0.1790009-1.0470047,0.0470009-1.5360031c0.4629974-1.0049973,1.6870003-1.4660034,2.7290001-1.0299988
	c0.5229988,0.2190018,0.9209976,0.6240005,1.1219978,1.1409988c0.1949997,0.5009995,0.1780014,1.0469971-0.0470009,1.5360031
	C33.0717773,26.5276794,32.3057785,26.974678,31.5067787,26.974678"/>
<path class="st0" d="M24.8839798,23.7583771c-0.2110023,0-0.4230003-0.0719986-0.5960007-0.2189941l-3.151001-2.6740036
	c-0.3880005-0.3300018-0.4360008-0.9109955-0.105999-1.298996c0.3289986-0.3880005,0.9099998-0.4350052,1.2980003-0.1060028
	l3.1519966,2.6740036c0.3880005,0.3289948,0.4350014,0.9109955,0.1060028,1.298996
	C25.4049797,23.6483841,25.1449776,23.7583771,24.8839798,23.7583771"/>
<path class="st0" d="M27.8502769,19.7793732c-0.2540016,0-0.5070038-0.1049957-0.689003-0.3099976l-2.5049973-2.822998
	c-0.3380013-0.3799973-0.3030014-0.9629974,0.0769997-1.3000031c0.3810005-0.3379974,0.9629974-0.3030014,1.3009987,0.0770035
	l2.5050011,2.822998c0.336998,0.3810043,0.3029976,0.9629974-0.0780029,1.3010025
	C28.286274,19.7023773,28.067276,19.7793732,27.8502769,19.7793732"/>
<path class="st0" d="M30.9136772,16.4343719c-0.3810005,0-0.7380028-0.237999-0.8700027-0.6189957l-1.1259995-3.2369995
	c-0.1669998-0.4800034,0.0870018-1.0050049,0.5670013-1.1720047c0.480999-0.1679993,1.0060005,0.0860062,1.1730003,0.5670013
	l1.1259995,3.2369995c0.1669998,0.4800034-0.0870018,1.0050049-0.5670013,1.1730042
	C31.1166763,16.4173737,31.0136757,16.4343719,30.9136772,16.4343719"/>
<path class="st0" d="M34.0213776,16.7283783c-0.1210022,0-0.2440033-0.0239944-0.3620033-0.0749969
	c-0.4679985-0.1999969-0.6849976-0.7409973-0.4839973-1.2089996l1.4379997-3.3610001
	c0.2010002-0.4670029,0.7420006-0.6839981,1.2099991-0.4840012c0.4679985,0.2000046,0.6850014,0.7420044,0.4840012,1.2099991
	l-1.439003,3.3600006C34.7193756,16.5193787,34.3793755,16.7283783,34.0213776,16.7283783"/>
<path class="st0" d="M36.9368782,18.3463745c-0.2550011,0-0.5090027-0.1049957-0.6910019-0.3119965
	c-0.3370018-0.3809967-0.2999992-0.9629974,0.0810013-1.3000031l2.6590004-2.3470001
	c0.382-0.336998,0.9639969-0.3009949,1.3009987,0.0810013c0.336998,0.3810043,0.2999992,0.9640045-0.0810013,1.3000031
	l-2.6599998,2.3470001C37.3708763,18.2703781,37.1538773,18.3463745,36.9368782,18.3463745"/>
<path class="st0" d="M39.0489769,20.7273712c-0.394001,0-0.7590027-0.2549973-0.8800011-0.6509933
	c-0.1500015-0.4869995,0.1229973-1.0020065,0.6100006-1.151001l3.0410004-0.9340057
	c0.4869995-0.1499939,1.0019989,0.1240005,1.1519966,0.6100006c0.1490021,0.4869995-0.1239967,1.0020065-0.6110001,1.151001
	l-3.0409966,0.9340057C39.2299767,20.7143784,39.1389732,20.7273712,39.0489769,20.7273712"/>
<path class="st0" d="M42.3311768,24.5503769c-0.0400009,0-0.0800018-0.0029984-0.1200027-0.0079956L39.6771736,24.21138
	c-0.5049973-0.0650024-0.8599968-0.5279999-0.7939987-1.0319977c0.0649986-0.5050049,0.5279999-0.8600006,1.0320015-0.7949982
	l2.5339966,0.3309937c0.5050011,0.0660019,0.8600006,0.5279999,0.7940025,1.0330048
	C43.1831741,24.2123795,42.7871742,24.5503769,42.3311768,24.5503769"/>
<path class="st0" d="M39.5953789,28.4353714c-0.2020035,0-0.4050026-0.0659943-0.5750008-0.2019958l-2.394001-1.913002
	c-0.3969994-0.3180008-0.4620018-0.897995-0.144001-1.2949982c0.3170013-0.3980026,0.8969994-0.4629974,1.295002-0.1449966
	l2.3939972,1.9139938c0.3970032,0.3180008,0.4620018,0.8970032,0.144001,1.2950058
	C40.1333771,28.3173752,39.8653755,28.4353714,39.5953789,28.4353714"/>
<path class="st0" d="M35.6315765,31.5834732c-0.2320023,0-0.4640007-0.086998-0.6430016-0.260994L32.3785744,28.77948
	c-0.3639984-0.3550034-0.3719978-0.9380035-0.0169983-1.3030014c0.355999-0.3639984,0.9389992-0.3720016,1.3029976-0.0169983
	l2.6100006,2.5429993c0.3640022,0.3549957,0.3720016,0.9379959,0.0170021,1.3029938
	C36.1105728,31.4904785,35.8715744,31.5834732,35.6315765,31.5834732"/>
<path class="st0" d="M32.7613792,35.7870712c-0.2550011,0-0.5080032-0.1049957-0.6910019-0.310997l-2.2919998-2.5920029
	c-0.3370018-0.3809967-0.302002-0.9639969,0.079998-1.3009949c0.3810005-0.336998,0.9630013-0.3010025,1.3000031,0.0800018
	l2.2929993,2.5919952c0.336998,0.3810043,0.3009987,0.9640045-0.0800018,1.3010025
	C33.1963768,35.7110748,32.9783783,35.7870712,32.7613792,35.7870712"/>
<path class="st0" d="M29.4805794,40.0591736c-0.3640022,0-0.7080002-0.2169952-0.8540001-0.5749969l-1.3410034-3.2979965
	c-0.1909981-0.4710007,0.0349998-1.0090027,0.507-1.2000046c0.4710007-0.1920013,1.0080032,0.0350037,1.2000008,0.5060043
	l1.3409996,3.2979965c0.1920013,0.4720001-0.0349998,1.0090027-0.5060005,1.201004
	C29.7135773,40.037178,29.5965767,40.0591736,29.4805794,40.0591736"/>
<path class="st0" d="M23.1570778,39.7173767c-0.1290016,0-0.2610016-0.0269928-0.3860016-0.0849991
	c-0.4620018-0.2139969-0.663002-0.760994-0.4500008-1.2229996l1.362999-2.947998
	c0.2140007-0.461998,0.7610016-0.663002,1.2230034-0.4489975c0.461998,0.2129974,0.6629982,0.7610016,0.4499969,1.2229996
	l-1.362999,2.9469986C23.8380775,39.5193787,23.5050774,39.7173767,23.1570778,39.7173767"/>
<path class="st0" d="M17.7244797,36.2655716c-0.2670021,0-0.5320015-0.1159973-0.7140007-0.3389969
	c-0.3220024-0.3939972-0.2630005-0.973999,0.1310005-1.2959976l2.6329994-2.1490021
	c0.3939972-0.3219986,0.973999-0.2630005,1.2959976,0.1309967c0.3220024,0.3940048,0.2630005,0.9740067-0.1310005,1.2960052
	l-2.6329994,2.1490021C18.135479,36.1975784,17.9294777,36.2655716,17.7244797,36.2655716"/>
<path class="st0" d="M18.3401794,30.7982788c-0.0420036,0-0.0840034-0.0029984-0.1270027-0.0089951l-3.5199995-0.4860001
	c-0.5039978-0.0690002-0.8559971-0.5340042-0.7869968-1.038002c0.0699997-0.5039978,0.5359993-0.8560028,1.0389996-0.7870026
	l3.5199995,0.4860001c0.5039978,0.0699997,0.855999,0.5350037,0.7859993,1.0390015
	C19.188179,30.4642792,18.7931786,30.7982788,18.3401794,30.7982788"/>
<path class="st0" d="M21.0740776,26.5758743c-0.2270012,0-0.4550018-0.0839996-0.6330032-0.2519989l-2.9409981-2.784996
	c-0.3689995-0.348999-0.3850021-0.9329987-0.0349998-1.302002c0.3499985-0.3690033,0.9329987-0.3860016,1.3019981-0.0360031
	l2.9410019,2.7850037c0.3689995,0.3499985,0.3849983,0.9329987,0.0349998,1.302002
	C21.5620766,26.4788818,21.3180771,26.5758743,21.0740776,26.5758743"/>
</svg>
